{
	"asset":{
		"generator":"Khronos glTF Blender I/O v4.4.56",
		"version":"2.0"
	},
	"scene":0,
	"scenes":[
		{
			"name":"Scene",
			"nodes":[
				0,
				1,
				2,
				3,
				4,
				5,
				6,
				7,
				8,
				9,
				10,
				11,
				12,
				13,
				14,
				15,
				16,
				17
			]
		}
	],
	"nodes":[
		{
			"mesh":0,
			"name":"Ground"
		},
		{
			"mesh":1,
			"name":"Wall"
		},
		{
			"mesh":2,
			"name":"Ramp"
		},
		{
			"mesh":3,
			"name":"Wall.001"
		},
		{
			"mesh":4,
			"name":"Icosphere"
		},
		{
			"mesh":5,
			"name":"Sphere"
		},
		{
			"mesh":6,
			"name":"Cylinder"
		},
		{
			"mesh":7,
			"name":"Cone"
		},
		{
			"mesh":8,
			"name":"Torus"
		},
		{
			"mesh":9,
			"name":"Connector"
		},
		{
			"extras":{
				"behavior":"CONTACT_LINEAR_VELOCITY",
				"behaviorMask":"STATIC_ENVIRONMENT",
				"magnitude":25.0
			},
			"mesh":10,
			"name":"Launcher"
		},
		{
			"extras":{
				"behavior":"FIELD_FORCE",
				"direction":[
					-1.0,
					0.0,
					0.0
				],
				"ignorePathfinding":true,
				"mask":"NONE",
				"group":"NONE",
				"behaviorMask":"KINEMATIC_ENVIRONMENT",
				"magnitude":25.0
			},
			"mesh":11,
			"name":"Field"
		},
		{
			"extras":{
				"type":"LINK_START",
				"bidirectional":false,
				"id":0
			},
			"name":"Link_Start",
			"scale":[
				5,
				5,
				5
			],
			"translation":[
				-28,
				26,
				0
			]
		},
		{
			"extras":{
				"type":"LINK_END",
				"id":0
			},
			"name":"Link_End",
			"scale":[
				5,
				5,
				5
			],
			"translation":[
				-15,
				1,
				0
			]
		},
		{
			"name":"Field_Transform",
			"rotation":[
				0,
				0,
				-0.3826834261417389,
				0.9238795638084412
			],
			"scale":[
				9.999998092651367,
				9.999998092651367,
				10
			],
			"translation":[
				50,
				14,
				-20
			]
		},
		{
			"extras":{
				"behavior":"FIELD_LINEAR_VELOCITY",
				"direction":[
					-1.0,
					0.0,
					0.0
				],
				"ignorePathfinding":true,
				"mask":"NONE",
				"group":"NONE",
				"behaviorMask":"KINEMATIC_ENVIRONMENT",
				"magnitude":25.0
			},
			"mesh":12,
			"name":"Field.001"
		},
		{
			"name":"Field_Transform.001",
			"rotation":[
				-0.2705981135368347,
				0.6532815098762512,
				-0.27059802412986755,
				0.6532815098762512
			],
			"scale":[
				9.999998092651367,
				9.999998092651367,
				10
			],
			"translation":[
				0,
				14,
				-50
			]
		},
		{
			"name":"Launcher_Transform",
			"rotation":[
				-0.3826834261417389,
				0,
				0,
				0.9238795638084412
			],
			"scale":[
				10,
				9.999998092651367,
				10
			],
			"translation":[
				0,
				0,
				75
			]
		}
	],
	"materials":[
		{
			"doubleSided":true,
			"name":"Material",
			"pbrMetallicRoughness":{
				"baseColorFactor":[
					0.5,
					0.5,
					0.5,
					1
				],
				"metallicFactor":0,
				"roughnessFactor":0.5
			}
		},
		{
			"alphaMode":"BLEND",
			"doubleSided":true,
			"name":"Field",
			"pbrMetallicRoughness":{
				"baseColorFactor":[
					0,
					1,
					1,
					0.25
				],
				"metallicFactor":0,
				"roughnessFactor":0
			}
		}
	],
	"meshes":[
		{
			"name":"Ground",
			"primitives":[
				{
					"attributes":{
						"POSITION":0,
						"NORMAL":1,
						"TEXCOORD_0":2
					},
					"indices":3,
					"material":0
				}
			]
		},
		{
			"name":"Wall",
			"primitives":[
				{
					"attributes":{
						"POSITION":4,
						"NORMAL":5,
						"TEXCOORD_0":6
					},
					"indices":7
				}
			]
		},
		{
			"name":"Ramp",
			"primitives":[
				{
					"attributes":{
						"POSITION":8,
						"NORMAL":9,
						"TEXCOORD_0":10
					},
					"indices":11
				}
			]
		},
		{
			"name":"Wall.001",
			"primitives":[
				{
					"attributes":{
						"POSITION":12,
						"NORMAL":13,
						"TEXCOORD_0":14
					},
					"indices":15
				}
			]
		},
		{
			"name":"Icosphere",
			"primitives":[
				{
					"attributes":{
						"POSITION":16,
						"NORMAL":17,
						"TEXCOORD_0":18
					},
					"indices":19
				}
			]
		},
		{
			"name":"Sphere",
			"primitives":[
				{
					"attributes":{
						"POSITION":20,
						"NORMAL":21,
						"TEXCOORD_0":22
					},
					"indices":23
				}
			]
		},
		{
			"name":"Cylinder",
			"primitives":[
				{
					"attributes":{
						"POSITION":24,
						"NORMAL":25,
						"TEXCOORD_0":26
					},
					"indices":27
				}
			]
		},
		{
			"name":"Cone",
			"primitives":[
				{
					"attributes":{
						"POSITION":28,
						"NORMAL":29,
						"TEXCOORD_0":30
					},
					"indices":31
				}
			]
		},
		{
			"name":"Torus",
			"primitives":[
				{
					"attributes":{
						"POSITION":32,
						"NORMAL":33,
						"TEXCOORD_0":34
					},
					"indices":35
				}
			]
		},
		{
			"name":"Connector",
			"primitives":[
				{
					"attributes":{
						"POSITION":36,
						"NORMAL":37,
						"TEXCOORD_0":38
					},
					"indices":7
				}
			]
		},
		{
			"name":"Launcher",
			"primitives":[
				{
					"attributes":{
						"POSITION":39,
						"NORMAL":40,
						"TEXCOORD_0":41
					},
					"indices":42
				}
			]
		},
		{
			"name":"Field",
			"primitives":[
				{
					"attributes":{
						"POSITION":43,
						"NORMAL":44,
						"TEXCOORD_0":45
					},
					"indices":46,
					"material":1
				}
			]
		},
		{
			"name":"Field.001",
			"primitives":[
				{
					"attributes":{
						"POSITION":47,
						"NORMAL":48,
						"TEXCOORD_0":49
					},
					"indices":50,
					"material":1
				}
			]
		}
	],
	"accessors":[
		{
			"bufferView":0,
			"componentType":5126,
			"count":24,
			"max":[
				100,
				0,
				150
			],
			"min":[
				-100,
				-10,
				-150
			],
			"type":"VEC3"
		},
		{
			"bufferView":1,
			"componentType":5126,
			"count":24,
			"type":"VEC3"
		},
		{
			"bufferView":2,
			"componentType":5126,
			"count":24,
			"type":"VEC2"
		},
		{
			"bufferView":3,
			"componentType":5123,
			"count":36,
			"type":"SCALAR"
		},
		{
			"bufferView":4,
			"componentType":5126,
			"count":24,
			"max":[
				55,
				35,
				90
			],
			"min":[
				45,
				-5,
				10
			],
			"type":"VEC3"
		},
		{
			"bufferView":5,
			"componentType":5126,
			"count":24,
			"type":"VEC3"
		},
		{
			"bufferView":6,
			"componentType":5126,
			"count":24,
			"type":"VEC2"
		},
		{
			"bufferView":7,
			"componentType":5123,
			"count":36,
			"type":"SCALAR"
		},
		{
			"bufferView":8,
			"componentType":5126,
			"count":24,
			"max":[
				-25,
				24.665063858032227,
				72.900634765625
			],
			"min":[
				-75,
				-4.665063858032227,
				27.099365234375
			],
			"type":"VEC3"
		},
		{
			"bufferView":9,
			"componentType":5126,
			"count":24,
			"type":"VEC3"
		},
		{
			"bufferView":10,
			"componentType":5126,
			"count":24,
			"type":"VEC2"
		},
		{
			"bufferView":11,
			"componentType":5123,
			"count":36,
			"type":"SCALAR"
		},
		{
			"bufferView":12,
			"componentType":5126,
			"count":24,
			"max":[
				74.74873352050781,
				35,
				-75.25126647949219
			],
			"min":[
				25.251262664794922,
				-5,
				-124.74873352050781
			],
			"type":"VEC3"
		},
		{
			"bufferView":13,
			"componentType":5126,
			"count":24,
			"type":"VEC3"
		},
		{
			"bufferView":14,
			"componentType":5126,
			"count":24,
			"type":"VEC2"
		},
		{
			"bufferView":15,
			"componentType":5123,
			"count":36,
			"type":"SCALAR"
		},
		{
			"bufferView":16,
			"componentType":5126,
			"count":240,
			"max":[
				-45.244712829589844,
				7.5,
				-95
			],
			"min":[
				-54.755287170410156,
				-2.5,
				-105
			],
			"type":"VEC3"
		},
		{
			"bufferView":17,
			"componentType":5126,
			"count":240,
			"type":"VEC3"
		},
		{
			"bufferView":18,
			"componentType":5126,
			"count":240,
			"type":"VEC2"
		},
		{
			"bufferView":19,
			"componentType":5123,
			"count":240,
			"type":"SCALAR"
		},
		{
			"bufferView":20,
			"componentType":5126,
			"count":1984,
			"max":[
				-25.000001907348633,
				7.5,
				-95
			],
			"min":[
				-34.999996185302734,
				-2.5,
				-105
			],
			"type":"VEC3"
		},
		{
			"bufferView":21,
			"componentType":5126,
			"count":1984,
			"type":"VEC3"
		},
		{
			"bufferView":22,
			"componentType":5126,
			"count":1984,
			"type":"VEC2"
		},
		{
			"bufferView":23,
			"componentType":5123,
			"count":2880,
			"type":"SCALAR"
		},
		{
			"bufferView":24,
			"componentType":5126,
			"count":192,
			"max":[
				-7.5,
				10,
				-97.5
			],
			"min":[
				-12.5,
				0,
				-102.5
			],
			"type":"VEC3"
		},
		{
			"bufferView":25,
			"componentType":5126,
			"count":192,
			"type":"VEC3"
		},
		{
			"bufferView":26,
			"componentType":5126,
			"count":192,
			"type":"VEC2"
		},
		{
			"bufferView":27,
			"componentType":5123,
			"count":372,
			"type":"SCALAR"
		},
		{
			"bufferView":28,
			"componentType":5126,
			"count":128,
			"max":[
				-17.5,
				10,
				-77.5
			],
			"min":[
				-22.5,
				0,
				-82.5
			],
			"type":"VEC3"
		},
		{
			"bufferView":29,
			"componentType":5126,
			"count":128,
			"type":"VEC3"
		},
		{
			"bufferView":30,
			"componentType":5126,
			"count":128,
			"type":"VEC2"
		},
		{
			"bufferView":31,
			"componentType":5123,
			"count":186,
			"type":"SCALAR"
		},
		{
			"bufferView":32,
			"componentType":5126,
			"count":2304,
			"max":[
				-30,
				7.5,
				-50
			],
			"min":[
				-50,
				2.5,
				-70
			],
			"type":"VEC3"
		},
		{
			"bufferView":33,
			"componentType":5126,
			"count":2304,
			"type":"VEC3"
		},
		{
			"bufferView":34,
			"componentType":5126,
			"count":2304,
			"type":"VEC2"
		},
		{
			"bufferView":35,
			"componentType":5123,
			"count":3456,
			"type":"SCALAR"
		},
		{
			"bufferView":36,
			"componentType":5126,
			"count":24,
			"max":[
				-25,
				24.609203338623047,
				29.695096969604492
			],
			"min":[
				-75,
				19.609203338623047,
				-20.304903030395508
			],
			"type":"VEC3"
		},
		{
			"bufferView":37,
			"componentType":5126,
			"count":24,
			"type":"VEC3"
		},
		{
			"bufferView":38,
			"componentType":5126,
			"count":24,
			"type":"VEC2"
		},
		{
			"bufferView":39,
			"componentType":5126,
			"count":24,
			"max":[
				12.5,
				10.60660171508789,
				85.60659790039062
			],
			"min":[
				-12.5,
				-10.60660171508789,
				64.39340209960938
			],
			"type":"VEC3"
		},
		{
			"bufferView":40,
			"componentType":5126,
			"count":24,
			"type":"VEC3"
		},
		{
			"bufferView":41,
			"componentType":5126,
			"count":24,
			"type":"VEC2"
		},
		{
			"bufferView":42,
			"componentType":5123,
			"count":36,
			"type":"SCALAR"
		},
		{
			"bufferView":43,
			"componentType":5126,
			"count":24,
			"max":[
				67.67767333984375,
				31.677669525146484,
				-10
			],
			"min":[
				32.322330474853516,
				-3.6776695251464844,
				-30
			],
			"type":"VEC3"
		},
		{
			"bufferView":44,
			"componentType":5126,
			"count":24,
			"type":"VEC3"
		},
		{
			"bufferView":45,
			"componentType":5126,
			"count":24,
			"type":"VEC2"
		},
		{
			"bufferView":46,
			"componentType":5123,
			"count":36,
			"type":"SCALAR"
		},
		{
			"bufferView":47,
			"componentType":5126,
			"count":24,
			"max":[
				10.000000953674316,
				31.677669525146484,
				-32.322330474853516
			],
			"min":[
				-10.000000953674316,
				-3.6776695251464844,
				-67.67767333984375
			],
			"type":"VEC3"
		},
		{
			"bufferView":48,
			"componentType":5126,
			"count":24,
			"type":"VEC3"
		},
		{
			"bufferView":49,
			"componentType":5126,
			"count":24,
			"type":"VEC2"
		},
		{
			"bufferView":50,
			"componentType":5123,
			"count":36,
			"type":"SCALAR"
		}
	],
	"bufferViews":[
		{
			"buffer":0,
			"byteLength":288,
			"byteOffset":0,
			"target":34962
		},
		{
			"buffer":0,
			"byteLength":288,
			"byteOffset":288,
			"target":34962
		},
		{
			"buffer":0,
			"byteLength":192,
			"byteOffset":576,
			"target":34962
		},
		{
			"buffer":0,
			"byteLength":72,
			"byteOffset":768,
			"target":34963
		},
		{
			"buffer":0,
			"byteLength":288,
			"byteOffset":840,
			"target":34962
		},
		{
			"buffer":0,
			"byteLength":288,
			"byteOffset":1128,
			"target":34962
		},
		{
			"buffer":0,
			"byteLength":192,
			"byteOffset":1416,
			"target":34962
		},
		{
			"buffer":0,
			"byteLength":72,
			"byteOffset":1608,
			"target":34963
		},
		{
			"buffer":0,
			"byteLength":288,
			"byteOffset":1680,
			"target":34962
		},
		{
			"buffer":0,
			"byteLength":288,
			"byteOffset":1968,
			"target":34962
		},
		{
			"buffer":0,
			"byteLength":192,
			"byteOffset":2256,
			"target":34962
		},
		{
			"buffer":0,
			"byteLength":72,
			"byteOffset":2448,
			"target":34963
		},
		{
			"buffer":0,
			"byteLength":288,
			"byteOffset":2520,
			"target":34962
		},
		{
			"buffer":0,
			"byteLength":288,
			"byteOffset":2808,
			"target":34962
		},
		{
			"buffer":0,
			"byteLength":192,
			"byteOffset":3096,
			"target":34962
		},
		{
			"buffer":0,
			"byteLength":72,
			"byteOffset":3288,
			"target":34963
		},
		{
			"buffer":0,
			"byteLength":2880,
			"byteOffset":3360,
			"target":34962
		},
		{
			"buffer":0,
			"byteLength":2880,
			"byteOffset":6240,
			"target":34962
		},
		{
			"buffer":0,
			"byteLength":1920,
			"byteOffset":9120,
			"target":34962
		},
		{
			"buffer":0,
			"byteLength":480,
			"byteOffset":11040,
			"target":34963
		},
		{
			"buffer":0,
			"byteLength":23808,
			"byteOffset":11520,
			"target":34962
		},
		{
			"buffer":0,
			"byteLength":23808,
			"byteOffset":35328,
			"target":34962
		},
		{
			"buffer":0,
			"byteLength":15872,
			"byteOffset":59136,
			"target":34962
		},
		{
			"buffer":0,
			"byteLength":5760,
			"byteOffset":75008,
			"target":34963
		},
		{
			"buffer":0,
			"byteLength":2304,
			"byteOffset":80768,
			"target":34962
		},
		{
			"buffer":0,
			"byteLength":2304,
			"byteOffset":83072,
			"target":34962
		},
		{
			"buffer":0,
			"byteLength":1536,
			"byteOffset":85376,
			"target":34962
		},
		{
			"buffer":0,
			"byteLength":744,
			"byteOffset":86912,
			"target":34963
		},
		{
			"buffer":0,
			"byteLength":1536,
			"byteOffset":87656,
			"target":34962
		},
		{
			"buffer":0,
			"byteLength":1536,
			"byteOffset":89192,
			"target":34962
		},
		{
			"buffer":0,
			"byteLength":1024,
			"byteOffset":90728,
			"target":34962
		},
		{
			"buffer":0,
			"byteLength":372,
			"byteOffset":91752,
			"target":34963
		},
		{
			"buffer":0,
			"byteLength":27648,
			"byteOffset":92124,
			"target":34962
		},
		{
			"buffer":0,
			"byteLength":27648,
			"byteOffset":119772,
			"target":34962
		},
		{
			"buffer":0,
			"byteLength":18432,
			"byteOffset":147420,
			"target":34962
		},
		{
			"buffer":0,
			"byteLength":6912,
			"byteOffset":165852,
			"target":34963
		},
		{
			"buffer":0,
			"byteLength":288,
			"byteOffset":172764,
			"target":34962
		},
		{
			"buffer":0,
			"byteLength":288,
			"byteOffset":173052,
			"target":34962
		},
		{
			"buffer":0,
			"byteLength":192,
			"byteOffset":173340,
			"target":34962
		},
		{
			"buffer":0,
			"byteLength":288,
			"byteOffset":173532,
			"target":34962
		},
		{
			"buffer":0,
			"byteLength":288,
			"byteOffset":173820,
			"target":34962
		},
		{
			"buffer":0,
			"byteLength":192,
			"byteOffset":174108,
			"target":34962
		},
		{
			"buffer":0,
			"byteLength":72,
			"byteOffset":174300,
			"target":34963
		},
		{
			"buffer":0,
			"byteLength":288,
			"byteOffset":174372,
			"target":34962
		},
		{
			"buffer":0,
			"byteLength":288,
			"byteOffset":174660,
			"target":34962
		},
		{
			"buffer":0,
			"byteLength":192,
			"byteOffset":174948,
			"target":34962
		},
		{
			"buffer":0,
			"byteLength":72,
			"byteOffset":175140,
			"target":34963
		},
		{
			"buffer":0,
			"byteLength":288,
			"byteOffset":175212,
			"target":34962
		},
		{
			"buffer":0,
			"byteLength":288,
			"byteOffset":175500,
			"target":34962
		},
		{
			"buffer":0,
			"byteLength":192,
			"byteOffset":175788,
			"target":34962
		},
		{
			"buffer":0,
			"byteLength":72,
			"byteOffset":175980,
			"target":34963
		}
	],
	"buffers":[
		{
			"byteLength":176052,
			"uri":"data:application/octet-stream;base64,"
		}
	]
}
