{
	"asset":{
		"generator":"Khronos glTF Blender I/O v4.4.56",
		"version":"2.0"
	},
	"scene":0,
	"scenes":[
		{
			"name":"Scene",
			"nodes":[
				0,
				1,
				2,
				3,
				4,
				5,
				6,
				7,
				8,
				9,
				11,
				13,
				14,
				15,
				17
			]
		}
	],
	"nodes":[
		{
			"mesh":0,
			"name":"Ground",
			"scale":[
				100,
				5,
				150
			],
			"translation":[
				0,
				-5,
				0
			]
		},
		{
			"mesh":1,
			"name":"Wall",
			"scale":[
				5,
				20,
				40
			],
			"translation":[
				50,
				15,
				50
			]
		},
		{
			"mesh":2,
			"name":"Ramp",
			"rotation":[
				0.2588190734386444,
				0,
				0,
				0.965925931930542
			],
			"scale":[
				25,
				2.5,
				25
			],
			"translation":[
				-50,
				10,
				50
			]
		},
		{
			"mesh":3,
			"name":"Wall.001",
			"rotation":[
				0,
				-0.3826834559440613,
				0,
				0.9238795638084412
			],
			"scale":[
				30,
				20,
				5
			],
			"translation":[
				50,
				15,
				-100
			]
		},
		{
			"mesh":4,
			"name":"Icosphere",
			"scale":[
				5,
				5,
				5
			],
			"translation":[
				-50,
				2.5,
				-100
			]
		},
		{
			"mesh":5,
			"name":"Sphere",
			"scale":[
				5,
				5,
				5
			],
			"translation":[
				-30,
				2.5,
				-100
			]
		},
		{
			"mesh":6,
			"name":"Cylinder",
			"scale":[
				2.5,
				5,
				2.5
			],
			"translation":[
				-10,
				5,
				-100
			]
		},
		{
			"mesh":7,
			"name":"Cone",
			"scale":[
				2.5,
				5,
				2.5
			],
			"translation":[
				-20,
				5,
				-80
			]
		},
		{
			"mesh":8,
			"name":"Torus",
			"scale":[
				8,
				10,
				8
			],
			"translation":[
				-40,
				5,
				-60
			]
		},
		{
			"mesh":9,
			"name":"Connector",
			"scale":[
				25,
				2.5,
				25
			],
			"translation":[
				-50,
				22.109203338623047,
				4.69509744644165
			]
		},
		{
			"name":"Launcher_Transform",
			"scale":[
				0.7999999523162842,
				3.999999761581421,
				0.800000011920929
			]
		},
		{
			"children":[
				10
			],
			"mesh":10,
			"name":"Launcher",
			"rotation":[
				-0.3826834261417389,
				0,
				0,
				0.9238795638084412
			],
			"scale":[
				12.5,
				2.5,
				12.5
			],
			"translation":[
				0,
				0,
				75
			]
		},
		{
			"name":"Field_Transform",
			"scale":[
				0.4999999701976776,
				1.9999998807907104,
				1
			]
		},
		{
			"children":[
				12
			],
			"mesh":11,
			"name":"Field",
			"rotation":[
				0,
				0,
				-0.3826834261417389,
				0.9238795638084412
			],
			"scale":[
				20,
				5,
				10
			],
			"translation":[
				50,
				14,
				-20
			]
		},
		{
			"name":"Link_Start",
			"scale":[
				5,
				5,
				5
			],
			"translation":[
				-28,
				26,
				0
			]
		},
		{
			"name":"Link_End",
			"scale":[
				5,
				5,
				5
			],
			"translation":[
				-15,
				1,
				0
			]
		},
		{
			"name":"Field_Transform.001",
			"scale":[
				0.4999999701976776,
				1.9999998807907104,
				1
			]
		},
		{
			"children":[
				16
			],
			"mesh":12,
			"name":"Field.001",
			"rotation":[
				-0.27059805393218994,
				0.6532815098762512,
				-0.27059805393218994,
				0.6532815098762512
			],
			"scale":[
				20,
				5,
				10
			],
			"translation":[
				0,
				14,
				-50
			]
		}
	],
	"materials":[
		{
			"doubleSided":true,
			"name":"Material",
			"pbrMetallicRoughness":{
				"baseColorFactor":[
					0.5,
					0.5,
					0.5,
					1
				],
				"metallicFactor":0,
				"roughnessFactor":0.5
			}
		},
		{
			"alphaMode":"BLEND",
			"doubleSided":true,
			"name":"Field",
			"pbrMetallicRoughness":{
				"baseColorFactor":[
					0,
					1,
					1,
					0.25
				],
				"metallicFactor":0,
				"roughnessFactor":0
			}
		}
	],
	"meshes":[
		{
			"name":"Ground",
			"primitives":[
				{
					"attributes":{
						"POSITION":0,
						"NORMAL":1,
						"TEXCOORD_0":2
					},
					"indices":3,
					"material":0
				}
			]
		},
		{
			"name":"Wall",
			"primitives":[
				{
					"attributes":{
						"POSITION":4,
						"NORMAL":5,
						"TEXCOORD_0":6
					},
					"indices":7
				}
			]
		},
		{
			"name":"Ramp",
			"primitives":[
				{
					"attributes":{
						"POSITION":8,
						"NORMAL":9,
						"TEXCOORD_0":10
					},
					"indices":7
				}
			]
		},
		{
			"name":"Wall.001",
			"primitives":[
				{
					"attributes":{
						"POSITION":11,
						"NORMAL":12,
						"TEXCOORD_0":13
					},
					"indices":7
				}
			]
		},
		{
			"name":"Icosphere",
			"primitives":[
				{
					"attributes":{
						"POSITION":14,
						"NORMAL":15,
						"TEXCOORD_0":16
					},
					"indices":17
				}
			]
		},
		{
			"name":"Sphere",
			"primitives":[
				{
					"attributes":{
						"POSITION":18,
						"NORMAL":19,
						"TEXCOORD_0":20
					},
					"indices":21
				}
			]
		},
		{
			"name":"Cylinder",
			"primitives":[
				{
					"attributes":{
						"POSITION":22,
						"NORMAL":23,
						"TEXCOORD_0":24
					},
					"indices":25
				}
			]
		},
		{
			"name":"Cone",
			"primitives":[
				{
					"attributes":{
						"POSITION":26,
						"NORMAL":27,
						"TEXCOORD_0":28
					},
					"indices":29
				}
			]
		},
		{
			"name":"Torus",
			"primitives":[
				{
					"attributes":{
						"POSITION":30,
						"NORMAL":31,
						"TEXCOORD_0":32
					},
					"indices":33
				}
			]
		},
		{
			"name":"Connector",
			"primitives":[
				{
					"attributes":{
						"POSITION":34,
						"NORMAL":35,
						"TEXCOORD_0":36
					},
					"indices":7
				}
			]
		},
		{
			"name":"Launcher",
			"primitives":[
				{
					"attributes":{
						"POSITION":37,
						"NORMAL":38,
						"TEXCOORD_0":39
					},
					"indices":7
				}
			]
		},
		{
			"name":"Field",
			"primitives":[
				{
					"attributes":{
						"POSITION":40,
						"NORMAL":41,
						"TEXCOORD_0":42
					},
					"indices":7,
					"material":1
				}
			]
		},
		{
			"name":"Field.001",
			"primitives":[
				{
					"attributes":{
						"POSITION":43,
						"NORMAL":44,
						"TEXCOORD_0":45
					},
					"indices":7,
					"material":1
				}
			]
		}
	],
	"accessors":[
		{
			"bufferView":0,
			"componentType":5126,
			"count":24,
			"max":[
				1,
				1,
				1
			],
			"min":[
				-1,
				-1,
				-1
			],
			"type":"VEC3"
		},
		{
			"bufferView":1,
			"componentType":5126,
			"count":24,
			"type":"VEC3"
		},
		{
			"bufferView":2,
			"componentType":5126,
			"count":24,
			"type":"VEC2"
		},
		{
			"bufferView":3,
			"componentType":5123,
			"count":36,
			"type":"SCALAR"
		},
		{
			"bufferView":4,
			"componentType":5126,
			"count":24,
			"max":[
				1,
				1,
				1
			],
			"min":[
				-1,
				-1,
				-1
			],
			"type":"VEC3"
		},
		{
			"bufferView":5,
			"componentType":5126,
			"count":24,
			"type":"VEC3"
		},
		{
			"bufferView":6,
			"componentType":5126,
			"count":24,
			"type":"VEC2"
		},
		{
			"bufferView":7,
			"componentType":5123,
			"count":36,
			"type":"SCALAR"
		},
		{
			"bufferView":8,
			"componentType":5126,
			"count":24,
			"max":[
				1,
				1,
				1
			],
			"min":[
				-1,
				-1,
				-1
			],
			"type":"VEC3"
		},
		{
			"bufferView":9,
			"componentType":5126,
			"count":24,
			"type":"VEC3"
		},
		{
			"bufferView":10,
			"componentType":5126,
			"count":24,
			"type":"VEC2"
		},
		{
			"bufferView":11,
			"componentType":5126,
			"count":24,
			"max":[
				1,
				1,
				1
			],
			"min":[
				-1,
				-1,
				-1
			],
			"type":"VEC3"
		},
		{
			"bufferView":12,
			"componentType":5126,
			"count":24,
			"type":"VEC3"
		},
		{
			"bufferView":13,
			"componentType":5126,
			"count":24,
			"type":"VEC2"
		},
		{
			"bufferView":14,
			"componentType":5126,
			"count":240,
			"max":[
				0.9510578513145447,
				1,
				0.9999999403953552
			],
			"min":[
				-0.9510578513145447,
				-1,
				-0.9999999403953552
			],
			"type":"VEC3"
		},
		{
			"bufferView":15,
			"componentType":5126,
			"count":240,
			"type":"VEC3"
		},
		{
			"bufferView":16,
			"componentType":5126,
			"count":240,
			"type":"VEC2"
		},
		{
			"bufferView":17,
			"componentType":5123,
			"count":240,
			"type":"SCALAR"
		},
		{
			"bufferView":18,
			"componentType":5126,
			"count":1984,
			"max":[
				0.9999997019767761,
				1,
				0.9999993443489075
			],
			"min":[
				-0.9999990463256836,
				-1,
				-1
			],
			"type":"VEC3"
		},
		{
			"bufferView":19,
			"componentType":5126,
			"count":1984,
			"type":"VEC3"
		},
		{
			"bufferView":20,
			"componentType":5126,
			"count":1984,
			"type":"VEC2"
		},
		{
			"bufferView":21,
			"componentType":5123,
			"count":2880,
			"type":"SCALAR"
		},
		{
			"bufferView":22,
			"componentType":5126,
			"count":192,
			"max":[
				1,
				1,
				1
			],
			"min":[
				-1,
				-1,
				-1
			],
			"type":"VEC3"
		},
		{
			"bufferView":23,
			"componentType":5126,
			"count":192,
			"type":"VEC3"
		},
		{
			"bufferView":24,
			"componentType":5126,
			"count":192,
			"type":"VEC2"
		},
		{
			"bufferView":25,
			"componentType":5123,
			"count":372,
			"type":"SCALAR"
		},
		{
			"bufferView":26,
			"componentType":5126,
			"count":128,
			"max":[
				1,
				1,
				1
			],
			"min":[
				-1,
				-1,
				-1
			],
			"type":"VEC3"
		},
		{
			"bufferView":27,
			"componentType":5126,
			"count":128,
			"type":"VEC3"
		},
		{
			"bufferView":28,
			"componentType":5126,
			"count":128,
			"type":"VEC2"
		},
		{
			"bufferView":29,
			"componentType":5123,
			"count":186,
			"type":"SCALAR"
		},
		{
			"bufferView":30,
			"componentType":5126,
			"count":2304,
			"max":[
				1.25,
				0.25,
				1.25
			],
			"min":[
				-1.25,
				-0.25,
				-1.25
			],
			"type":"VEC3"
		},
		{
			"bufferView":31,
			"componentType":5126,
			"count":2304,
			"type":"VEC3"
		},
		{
			"bufferView":32,
			"componentType":5126,
			"count":2304,
			"type":"VEC2"
		},
		{
			"bufferView":33,
			"componentType":5123,
			"count":3456,
			"type":"SCALAR"
		},
		{
			"bufferView":34,
			"componentType":5126,
			"count":24,
			"max":[
				1,
				1,
				1
			],
			"min":[
				-1,
				-1,
				-1
			],
			"type":"VEC3"
		},
		{
			"bufferView":35,
			"componentType":5126,
			"count":24,
			"type":"VEC3"
		},
		{
			"bufferView":36,
			"componentType":5126,
			"count":24,
			"type":"VEC2"
		},
		{
			"bufferView":37,
			"componentType":5126,
			"count":24,
			"max":[
				1,
				1,
				1
			],
			"min":[
				-1,
				-1,
				-1
			],
			"type":"VEC3"
		},
		{
			"bufferView":38,
			"componentType":5126,
			"count":24,
			"type":"VEC3"
		},
		{
			"bufferView":39,
			"componentType":5126,
			"count":24,
			"type":"VEC2"
		},
		{
			"bufferView":40,
			"componentType":5126,
			"count":24,
			"max":[
				1,
				1,
				1
			],
			"min":[
				-1,
				-1,
				-1
			],
			"type":"VEC3"
		},
		{
			"bufferView":41,
			"componentType":5126,
			"count":24,
			"type":"VEC3"
		},
		{
			"bufferView":42,
			"componentType":5126,
			"count":24,
			"type":"VEC2"
		},
		{
			"bufferView":43,
			"componentType":5126,
			"count":24,
			"max":[
				1,
				1,
				1
			],
			"min":[
				-1,
				-1,
				-1
			],
			"type":"VEC3"
		},
		{
			"bufferView":44,
			"componentType":5126,
			"count":24,
			"type":"VEC3"
		},
		{
			"bufferView":45,
			"componentType":5126,
			"count":24,
			"type":"VEC2"
		}
	],
	"bufferViews":[
		{
			"buffer":0,
			"byteLength":288,
			"byteOffset":0,
			"target":34962
		},
		{
			"buffer":0,
			"byteLength":288,
			"byteOffset":288,
			"target":34962
		},
		{
			"buffer":0,
			"byteLength":192,
			"byteOffset":576,
			"target":34962
		},
		{
			"buffer":0,
			"byteLength":72,
			"byteOffset":768,
			"target":34963
		},
		{
			"buffer":0,
			"byteLength":288,
			"byteOffset":840,
			"target":34962
		},
		{
			"buffer":0,
			"byteLength":288,
			"byteOffset":1128,
			"target":34962
		},
		{
			"buffer":0,
			"byteLength":192,
			"byteOffset":1416,
			"target":34962
		},
		{
			"buffer":0,
			"byteLength":72,
			"byteOffset":1608,
			"target":34963
		},
		{
			"buffer":0,
			"byteLength":288,
			"byteOffset":1680,
			"target":34962
		},
		{
			"buffer":0,
			"byteLength":288,
			"byteOffset":1968,
			"target":34962
		},
		{
			"buffer":0,
			"byteLength":192,
			"byteOffset":2256,
			"target":34962
		},
		{
			"buffer":0,
			"byteLength":288,
			"byteOffset":2448,
			"target":34962
		},
		{
			"buffer":0,
			"byteLength":288,
			"byteOffset":2736,
			"target":34962
		},
		{
			"buffer":0,
			"byteLength":192,
			"byteOffset":3024,
			"target":34962
		},
		{
			"buffer":0,
			"byteLength":2880,
			"byteOffset":3216,
			"target":34962
		},
		{
			"buffer":0,
			"byteLength":2880,
			"byteOffset":6096,
			"target":34962
		},
		{
			"buffer":0,
			"byteLength":1920,
			"byteOffset":8976,
			"target":34962
		},
		{
			"buffer":0,
			"byteLength":480,
			"byteOffset":10896,
			"target":34963
		},
		{
			"buffer":0,
			"byteLength":23808,
			"byteOffset":11376,
			"target":34962
		},
		{
			"buffer":0,
			"byteLength":23808,
			"byteOffset":35184,
			"target":34962
		},
		{
			"buffer":0,
			"byteLength":15872,
			"byteOffset":58992,
			"target":34962
		},
		{
			"buffer":0,
			"byteLength":5760,
			"byteOffset":74864,
			"target":34963
		},
		{
			"buffer":0,
			"byteLength":2304,
			"byteOffset":80624,
			"target":34962
		},
		{
			"buffer":0,
			"byteLength":2304,
			"byteOffset":82928,
			"target":34962
		},
		{
			"buffer":0,
			"byteLength":1536,
			"byteOffset":85232,
			"target":34962
		},
		{
			"buffer":0,
			"byteLength":744,
			"byteOffset":86768,
			"target":34963
		},
		{
			"buffer":0,
			"byteLength":1536,
			"byteOffset":87512,
			"target":34962
		},
		{
			"buffer":0,
			"byteLength":1536,
			"byteOffset":89048,
			"target":34962
		},
		{
			"buffer":0,
			"byteLength":1024,
			"byteOffset":90584,
			"target":34962
		},
		{
			"buffer":0,
			"byteLength":372,
			"byteOffset":91608,
			"target":34963
		},
		{
			"buffer":0,
			"byteLength":27648,
			"byteOffset":91980,
			"target":34962
		},
		{
			"buffer":0,
			"byteLength":27648,
			"byteOffset":119628,
			"target":34962
		},
		{
			"buffer":0,
			"byteLength":18432,
			"byteOffset":147276,
			"target":34962
		},
		{
			"buffer":0,
			"byteLength":6912,
			"byteOffset":165708,
			"target":34963
		},
		{
			"buffer":0,
			"byteLength":288,
			"byteOffset":172620,
			"target":34962
		},
		{
			"buffer":0,
			"byteLength":288,
			"byteOffset":172908,
			"target":34962
		},
		{
			"buffer":0,
			"byteLength":192,
			"byteOffset":173196,
			"target":34962
		},
		{
			"buffer":0,
			"byteLength":288,
			"byteOffset":173388,
			"target":34962
		},
		{
			"buffer":0,
			"byteLength":288,
			"byteOffset":173676,
			"target":34962
		},
		{
			"buffer":0,
			"byteLength":192,
			"byteOffset":173964,
			"target":34962
		},
		{
			"buffer":0,
			"byteLength":288,
			"byteOffset":174156,
			"target":34962
		},
		{
			"buffer":0,
			"byteLength":288,
			"byteOffset":174444,
			"target":34962
		},
		{
			"buffer":0,
			"byteLength":192,
			"byteOffset":174732,
			"target":34962
		},
		{
			"buffer":0,
			"byteLength":288,
			"byteOffset":174924,
			"target":34962
		},
		{
			"buffer":0,
			"byteLength":288,
			"byteOffset":175212,
			"target":34962
		},
		{
			"buffer":0,
			"byteLength":192,
			"byteOffset":175500,
			"target":34962
		}
	],
	"buffers":[
		{
			"byteLength":175692,
			"uri":"data:application/octet-stream;base64,"
		}
	]
}
