{"asset":{"version":"2.0","generator":"gltfpack 1.0"},"extensionsUsed":["KHR_mesh_quantization","EXT_meshopt_compression","KHR_texture_transform","KHR_texture_basisu"],"extensionsRequired":["KHR_mesh_quantization","EXT_meshopt_compression","KHR_texture_basisu"],"buffers":[{"uri":"weapon_4x.bin","byteLength":123124},{"byteLength":217576,"extensions":{"EXT_meshopt_compression":{"fallback":true}}}],"bufferViews":[{"buffer":0,"byteOffset":0,"byteLength":21714},{"buffer":0,"byteOffset":21716,"byteLength":14122},{"buffer":1,"byteOffset":0,"byteLength":101760,"byteStride":12,"target":34962,"extensions":{"EXT_meshopt_compression":{"buffer":0,"byteOffset":35840,"byteLength":39490,"byteStride":12,"mode":"ATTRIBUTES","filter":"EXPONENTIAL","count":8480}}},{"buffer":1,"byteOffset":101760,"byteLength":33920,"byteStride":4,"target":34962,"extensions":{"EXT_meshopt_compression":{"buffer":0,"byteOffset":75332,"byteLength":16827,"byteStride":4,"mode":"ATTRIBUTES","filter":"OCTAHEDRAL","count":8480}}},{"buffer":1,"byteOffset":135680,"byteLength":33824,"byteStride":4,"target":34962,"extensions":{"EXT_meshopt_compression":{"buffer":0,"byteOffset":92160,"byteLength":22290,"byteStride":4,"mode":"ATTRIBUTES","count":8456}}},{"buffer":1,"byteOffset":169504,"byteLength":48072,"target":34963,"extensions":{"EXT_meshopt_compression":{"buffer":0,"byteOffset":114452,"byteLength":8670,"byteStride":2,"mode":"TRIANGLES","count":24036}}}],"accessors":[{"bufferView":2,"byteOffset":0,"componentType":5126,"count":8456,"type":"VEC3","min":[-0.996612549,-0.397506714,-0.121109009],"max":[0.990631104,0.396240234,0.105541229]},{"bufferView":3,"byteOffset":0,"componentType":5120,"count":8456,"type":"VEC3","normalized":true},{"bufferView":4,"byteOffset":0,"componentType":5123,"count":8456,"type":"VEC2","normalized":true},{"bufferView":5,"byteOffset":0,"componentType":5123,"count":24000,"type":"SCALAR"},{"bufferView":2,"byteOffset":101472,"componentType":5126,"count":24,"type":"VEC3","min":[-1,-1,-1],"max":[1,1,1]},{"bufferView":3,"byteOffset":33824,"componentType":5120,"count":24,"type":"VEC3","normalized":true},{"bufferView":5,"byteOffset":48000,"componentType":5123,"count":36,"type":"SCALAR"}],"samplers":[{"magFilter":9729,"minFilter":9987}],"images":[{"name":"Image_0","bufferView":0,"mimeType":"image/ktx2"},{"name":"Image_1","bufferView":1,"mimeType":"image/ktx2"}],"textures":[{"sampler":0,"extensions":{"KHR_texture_basisu":{"source":0}}},{"sampler":0,"extensions":{"KHR_texture_basisu":{"source":1}}}],"materials":[{"name":"PBR_Material.003","pbrMetallicRoughness":{"baseColorTexture":{"index":0,"extensions":{"KHR_texture_transform":{"offset":[0.000446999999,0.000443994999],"scale":[15.989852,15.9894514]}}},"metallicRoughnessTexture":{"index":1,"extensions":{"KHR_texture_transform":{"offset":[0.000446999999,0.000443994999],"scale":[15.989852,15.9894514]}}}}}],"meshes":[{"primitives":[{"attributes":{"POSITION":0,"NORMAL":1,"TEXCOORD_0":2},"indices":3,"material":0}]},{"primitives":[{"attributes":{"POSITION":4,"NORMAL":5},"indices":6}]}],"nodes":[{"name":"textured_mesh.obj","mesh":0},{"name":"world","children":[0]},{"name":"Cube","scale":[1.04999995,0.449999988,0.174999997],"mesh":1,"extras":{"physics":true}}],"scenes":[{"name":"Scene","nodes":[1,2],"extras":{"file_path":"/tmp/gradio/4143e00436d943fd1746a4c3fdf945d4fa6c61b40e0d523af700766cb9ffcfea/textured_mesh.glb","file_name":"textured_mesh.glb"}}],"scene":0}