g Lowpoly Rocket
v 0.01515621 0.00674798 4.51298E-06
v 0.01250085 0.005565737 -0.01364464
v 0.01368388 -5.814138E-10 -0.01364463
v 0.01659054 -4.21965E-10 4.517969E-06
v 0.01110123 0.01232917 4.510789E-06
v 0.009156303 0.01016911 -0.01364464
v 0.005126756 0.01577854 4.512615E-06
v 0.004228551 0.01301415 -0.01364464
v -0.001734187 0.01649966 4.512179E-06
v -0.001430358 0.01360892 -0.01364463
v -0.008295272 0.01436783 4.513327E-06
v -0.006841947 0.01185059 -0.01364464
v -0.01342203 0.009751673 4.511774E-06
v -0.0110705 0.008043185 -0.01364464
v -0.016228 0.003449365 4.509016E-06
v -0.01338487 0.002845038 -0.01364464
v -0.016228 -0.00344937 4.509217E-06
v -0.01338486 -0.002845042 -0.01364463
v -0.01342203 -0.009751676 4.51125E-06
v -0.0110705 -0.008043189 -0.01364463
v -0.008295271 -0.01436783 4.511759E-06
v -0.006841944 -0.01185059 -0.01364463
v -0.001734184 -0.01649966 4.512204E-06
v -0.001430356 -0.01360893 -0.01364463
v -0.008328459 0.01442029 0.112593
v -0.01343162 0.009757875 0.112572
v -0.01629022 0.003463995 0.112593
v -0.01623871 -0.003448443 0.112572
v -0.01347422 -0.00978422 0.112593
v -0.008302809 -0.01437127 0.112572
v -0.001744608 -0.01655631 0.112593
v -0.007800267 0.001657995 -0.02252628
v -0.006451531 0.004687307 -0.02252628
v -0.003987267 0.006906139 -0.02252628
v -0.0008335687 0.007930839 -0.02252628
v 0.00246426 0.007584223 -0.02252628
v 0.005335994 0.005926225 -0.02252628
v 0.007285086 0.00324353 -0.02252628
v 0.00797452 -9.759065E-10 -0.02252628
v 0.007285087 -0.003243532 -0.02252628
v 0.01250085 -0.005565737 -0.01364463
v 0.01515621 -0.00674798 4.513115E-06
v 0.009156305 -0.01016911 -0.01364463
v 0.01110124 -0.01232917 4.511644E-06
v 0.004228553 -0.01301415 -0.01364463
v 0.005126758 -0.01577854 4.51195E-06
v -0.001430356 -0.01360893 -0.01364463
v -0.001734184 -0.01649966 4.512204E-06
v 0.005124586 -0.01578254 0.112572
v -0.001744608 -0.01655631 0.112593
v 0.01113668 -0.01237093 0.112593
v 0.01515805 -0.006748369 0.112572
v 0.01662581 2.30371E-06 0.112572
v 0.01518806 0.006766348 0.112572
v 0.01113576 0.01237452 0.112593
v 0.005129659 0.01580278 0.112572
v -0.001739103 0.01650856 0.112572
v -0.0008335673 -0.00793084 -0.02252628
v 0.002464261 -0.007584225 -0.02252628
v 0.005335995 -0.005926228 -0.02252628
v -0.0002878074 -0.002738268 -0.02693557
v 0.0008508277 -0.002618592 -0.02693557
v 0.001842346 -0.002046139 -0.02693558
v 0.002515305 -0.001119889 -0.02693558
v 0.002753345 -1.174371E-09 -0.02693557
v 0.002515305 0.001119887 -0.02693558
v 0.001842346 0.002046136 -0.02693558
v 0.0008508272 0.002618589 -0.02693558
v -0.0002878079 0.002738265 -0.02693558
v -0.001376679 0.002384469 -0.02693558
v -0.002227511 0.001618377 -0.02693558
v -0.002693187 0.0005724521 -0.02693558
v -0.007800265 -0.001657999 -0.02252628
v -0.00645153 -0.00468731 -0.02252628
v -0.003987265 -0.006906142 -0.02252628
v -0.0008335673 -0.00793084 -0.02252628
v -0.002693186 -0.000572455 -0.02693558
v -0.002227511 -0.00161838 -0.02693557
v -0.001376679 -0.002384471 -0.02693558
v -0.0002878074 -0.002738268 -0.02693557
v -0.007855991 0.01360194 0.1135684
v -0.001645699 0.01561979 0.1135684
v 0.004848416 0.01493723 0.1135684
v 0.01050346 0.01167228 0.1135684
v -0.01270864 0.009232593 0.1135684
v 0.01434163 0.006389495 0.1135684
v -0.01536459 0.003267244 0.1135684
v 0.01569927 2.302034E-06 0.1135684
v -0.01536459 -0.003262643 0.1135684
v 0.01434164 -0.006384889 0.1135684
v -0.01270864 -0.009227991 0.1135684
v 0.01050346 -0.01166768 0.1135684
v -0.007855988 -0.01359734 0.1135684
v 0.004848418 -0.01493262 0.1135684
v -0.001645697 -0.01561518 0.1135684
v -0.0002878079 0.002738265 -0.02693558
v -0.001376679 0.002384469 -0.02693558
v 0.001842346 0.002046136 -0.02693558
v 0.0008508272 0.002618589 -0.02693558
v 0.002515305 0.001119887 -0.02693558
v -0.002227511 0.001618377 -0.02693558
v 0.002753345 -1.174371E-09 -0.02693557
v -0.002693187 0.0005724521 -0.02693558
v 0.002515305 -0.001119889 -0.02693558
v -0.002693186 -0.000572455 -0.02693558
v 0.001842346 -0.002046139 -0.02693558
v -0.002227511 -0.00161838 -0.02693557
v 0.0008508277 -0.002618592 -0.02693557
v -0.001376679 -0.002384471 -0.02693558
v -0.0002878074 -0.002738268 -0.02693557
v -0.001739103 0.01650856 0.112572
v 0.005129659 0.01580278 0.112572
v 0.004848416 0.01493723 0.1135684
v -0.001645699 0.01561979 0.1135684
v 0.01050346 0.01167228 0.1135684
v 0.01113576 0.01237452 0.112593
v 0.01434163 0.006389495 0.1135684
v 0.01518806 0.006766348 0.112572
v 0.01569927 2.302034E-06 0.1135684
v 0.01662581 2.30371E-06 0.112572
v 0.01434164 -0.006384889 0.1135684
v 0.01515805 -0.006748369 0.112572
v 0.01050346 -0.01166768 0.1135684
v 0.01113668 -0.01237093 0.112593
v 0.004848418 -0.01493262 0.1135684
v 0.005124586 -0.01578254 0.112572
v -0.001645697 -0.01561518 0.1135684
v -0.001744608 -0.01655631 0.112593
v -0.007855988 -0.01359734 0.1135684
v -0.008302809 -0.01437127 0.112572
v -0.01270864 -0.009227991 0.1135684
v -0.01347422 -0.00978422 0.112593
v -0.01536459 -0.003262643 0.1135684
v -0.01623871 -0.003448443 0.112572
v -0.01536459 0.003267244 0.1135684
v -0.01629022 0.003463995 0.112593
v -0.01270864 0.009232593 0.1135684
v -0.01343162 0.009757875 0.112572
v -0.007855991 0.01360194 0.1135684
v -0.008328459 0.01442029 0.112593
vt 0.7708362 0.6645784
vt 0.7668759 0.7857764
vt 0.803118 0.7857764
vt 0.8084818 0.6645784
vt 0.7337604 0.6645784
vt 0.7313426 0.7857764
vt 0.6970488 0.6645784
vt 0.6962254 0.7857764
vt 0.6604826 0.6645784
vt 0.6612456 0.7857764
vt 0.6237657 0.6645784
vt 0.6261256 0.7857764
vt 0.5866176 0.6645784
vt 0.5905844 0.7857764
vt 0.5488975 0.6645784
vt 0.5543306 0.7857764
vt 0.5099046 0.6645784
vt 0.5170392 0.7857764
vt 0.4683707 0.6645784
vt 0.4783895 0.7857764
vt 0.4245033 0.6645784
vt 0.4380682 0.7857764
vt 0.3780946 0.6645784
vt 0.3949858 0.7857764
vt 0.6228827 0.0242552
vt 0.5858833 0.0242552
vt 0.5482037 0.0242552
vt 0.5089946 0.0242552
vt 0.4686203 0.0242552
vt 0.4282375 0.0242552
vt 0.3769499 0.0242552
vt 0.568576 0.8734995
vt 0.5997567 0.8734995
vt 0.6312144 0.8734995
vt 0.6628716 0.8734995
vt 0.6945981 0.8734995
vt 0.7262529 0.8734995
vt 0.7577062 0.8734995
vt 0.788883 0.8734995
vt 0.8197308 0.8734995
vt 0.8403991 0.7857764
vt 0.8474798 0.6645784
vt 0.8790481 0.7857764
vt 0.8890415 0.6645784
vt 0.9193754 0.7857764
vt 0.9329395 0.6645784
vt 0.9624614 0.7857764
vt 0.9793615 0.6645784
vt 0.9291762 0.0242552
vt 0.9804636 0.0242552
vt 0.8887932 0.0242552
vt 0.8483969 0.0242552
vt 0.8091351 0.0242552
vt 0.7711428 0.0242552
vt 0.7338678 0.0242552
vt 0.6968505 0.0242552
vt 0.6598887 0.0242552
vt 0.9038452 0.8734995
vt 0.8790306 0.8734995
vt 0.8500574 0.8734995
vt 0.8566121 0.9283109
vt 0.8462842 0.9283109
vt 0.8296024 0.9283109
vt 0.8079982 0.9283109
vt 0.7826041 0.9283109
vt 0.7545557 0.9283109
vt 0.7248318 0.9283109
vt 0.6941998 0.9283109
vt 0.6632818 0.9283109
vt 0.6326476 0.9283109
vt 0.6029203 0.9283109
vt 0.5748672 0.9283109
vt 0.5377263 0.8734995
vt 0.5073982 0.8734995
vt 0.4784249 0.8734995
vt 0.4536113 0.8734995
vt 0.5494685 0.9283109
vt 0.527861 0.9283109
vt 0.5111777 0.9283109
vt 0.5008496 0.9283109
vt 0.110399 0.6565787
vt 0.1722736 0.6766829
vt 0.2369757 0.6698825
vt 0.2933181 0.6373531
vt 0.06205116 0.6130461
vt 0.3315587 0.5847197
vt 0.03558937 0.5536119
vt 0.345085 0.5210828
vt 0.03558949 0.4885535
vt 0.3315587 0.457446
vt 0.06205116 0.4291196
vt 0.2933181 0.4048124
vt 0.1103992 0.3855868
vt 0.2369757 0.3722831
vt 0.1722736 0.3654827
vt 0.2044689 0.29798
vt 0.2470075 0.2841583
vt 0.1212507 0.2709408
vt 0.159986 0.2933047
vt 0.09496037 0.2347553
vt 0.2802467 0.2542296
vt 0.08566099 0.1910049
vt 0.2984393 0.2133688
vt 0.09496037 0.1472546
vt 0.2984391 0.168641
vt 0.1212507 0.1110691
vt 0.2802467 0.1277801
vt 0.159986 0.08870514
vt 0.2470075 0.09785153
vt 0.2044689 0.08402984
vt 0.1759443 0.3440007
vt 0.2395216 0.337445
vt 0.2357396 0.3257376
vt 0.1772044 0.3318646
vt 0.2868003 0.296459
vt 0.2950814 0.3056639
vt 0.3212987 0.2487667
vt 0.3326391 0.2537968
vt 0.3334984 0.191186
vt 0.3459037 0.1911812
vt 0.321256 0.1336202
vt 0.3324082 0.1286715
vt 0.2867787 0.08591828
vt 0.2950689 0.07671154
vt 0.2357291 0.05661216
vt 0.2394972 0.04500784
vt 0.1771984 0.05033851
vt 0.1759031 0.0380168
vt 0.121253 0.06864658
vt 0.1151534 0.05808011
vt 0.07742084 0.1079364
vt 0.06739753 0.100654
vt 0.0536001 0.1617649
vt 0.041666 0.1592286
vt 0.05347051 0.2206289
vt 0.04135172 0.2232041
vt 0.07752381 0.2743536
vt 0.06765264 0.2815242
vt 0.1211772 0.3138368
vt 0.1149901 0.3245606
vn 0.9087773 0.4042477 -0.1034779
vn 0.8477712 0.377452 -0.3725774
vn 0.9280012 -1.25571E-07 -0.3725773
vn 0.9946361 -0.0005944347 -0.1034349
vn 0.6653177 0.7393491 -0.1035153
vn 0.620954 0.6896393 -0.3725773
vn 0.3064825 0.9462411 -0.1034221
vn 0.2867682 0.8825815 -0.3725773
vn -0.1033406 0.9892575 -0.1033935
vn -0.09700258 0.9229175 -0.3725772
vn -0.4973134 0.8613748 -0.1035027
vn -0.4640006 0.8036726 -0.3725773
vn -0.8046634 0.5846531 -0.1034289
vn -0.7507688 0.5454655 -0.3725771
vn -0.9728937 0.206794 -0.103509
vn -0.9077222 0.1929421 -0.3725772
vn -0.9729016 -0.2067986 -0.1034249
vn -0.9077221 -0.1929425 -0.3725772
vn -0.8046707 -0.5846309 -0.1034978
vn -0.7507687 -0.5454655 -0.3725772
vn -0.4973168 -0.8613841 -0.1034093
vn -0.4640003 -0.8036728 -0.3725772
vn -0.1039646 -0.9891831 -0.1034806
vn -0.09700245 -0.9229175 -0.3725772
vn -0.5000028 0.8660237 -0.0003232175
vn -0.8089889 0.5878237 -0.0003317163
vn -0.9781473 0.2079132 -0.0003337812
vn -0.9781483 -0.2079081 -0.0003247988
vn -0.80902 -0.587781 -0.0003111391
vn -0.5000046 -0.8660227 -0.0002933824
vn -0.1045338 -0.9945213 -0.0002763781
vn -0.7432686 0.1579864 -0.6500708
vn -0.6147505 0.4466427 -0.6500708
vn -0.3799369 0.65807 -0.6500706
vn -0.07942862 0.755711 -0.6500707
vn 0.234814 0.7226828 -0.6500707
vn 0.5084547 0.5646962 -0.6500708
vn 0.6941792 0.3090683 -0.6500708
vn 0.7598738 -1.356123E-07 -0.6500706
vn 0.6941794 -0.3090683 -0.6500705
vn 0.8477713 -0.3774519 -0.3725773
vn 0.9087964 -0.4042315 -0.1033733
vn 0.620954 -0.6896392 -0.3725773
vn 0.66554 -0.7391555 -0.1034687
vn 0.2867681 -0.8825816 -0.3725773
vn 0.3073628 -0.9459587 -0.1033934
vn -0.09700245 -0.9229175 -0.3725772
vn -0.1039646 -0.9891831 -0.1034806
vn 0.3090135 -0.9510576 -0.0002612864
vn -0.1045338 -0.9945213 -0.0002763781
vn 0.6691293 -0.743146 -0.0002524854
vn 0.9137481 -0.4062813 -0.0002059755
vn 0.9999993 -0.00116104 -0.000240352
vn 0.9137253 0.4063325 -0.0003657285
vn 0.668694 0.7435376 -0.0003863572
vn 0.3074794 0.9515547 -0.0002537368
vn -0.1035081 0.9946285 -0.0002334081
vn -0.07942818 -0.7557112 -0.6500705
vn 0.2348135 -0.7226831 -0.6500705
vn 0.5084547 -0.5646963 -0.6500707
vn -0.06744205 -0.6416724 -0.764008
vn 0.1993792 -0.6136283 -0.764008
vn 0.4317275 -0.4794821 -0.764008
vn 0.5894259 -0.2624289 -0.764008
vn 0.6452067 -1.173475E-07 -0.764008
vn 0.5894256 0.2624289 -0.7640082
vn 0.4317273 0.4794819 -0.7640083
vn 0.1993799 0.6136279 -0.7640082
vn -0.06744277 0.641672 -0.7640082
vn -0.3226034 0.5587652 -0.7640081
vn -0.5219825 0.3792431 -0.7640085
vn -0.631107 0.1341458 -0.7640084
vn -0.7432687 -0.157987 -0.6500707
vn -0.6147508 -0.4466427 -0.6500705
vn -0.3799365 -0.6580702 -0.6500706
vn -0.07942818 -0.7557112 -0.6500705
vn -0.6311072 -0.1341465 -0.7640082
vn -0.5219833 -0.379243 -0.764008
vn -0.3226028 -0.5587656 -0.7640082
vn -0.06744205 -0.6416724 -0.764008
vn 0 0 1
vn -3.592087E-07 0 1
vn -3.592087E-07 0 1
vn 0 0 1
vn 1.819365E-07 0 1
vn 1.819365E-07 0 1
vn 1.21291E-07 0 1
vn 1.21291E-07 0 1
vn 0 0 1
vn 0 0 1
vn -2.012846E-07 0 1
vn -2.012846E-07 0 1
vn -3.17544E-07 0 1
vn -3.17544E-07 0 1
vn 0 0 1
vn -7.302938E-07 0 -1
vn 2.578643E-07 0 -1
vn 2.578642E-07 0 -1
vn -7.302938E-07 0 -1
vn 1.346245E-07 -7.706245E-07 -1
vn 1.346244E-07 -7.706245E-07 -1
vn 0 0 -1
vn 0 0 -1
vn 1.239138E-07 1.768204E-07 -1
vn 1.239137E-07 1.768206E-07 -1
vn 3.285259E-07 -8.992236E-07 -1
vn 3.285259E-07 -8.992237E-07 -1
vn 5.377862E-07 -3.91677E-07 -1
vn 5.377861E-07 -3.91677E-07 -1
vn 2.794899E-06 -5.091791E-06 -1
vn -0.07458226 0.7328641 0.6762748
vn 0.224176 0.6999902 0.6780551
vn 0.224044 0.7000389 0.6780487
vn -0.07453214 0.7328709 0.676273
vn 0.4856298 0.5404688 0.6870642
vn 0.485695 0.540409 0.6870651
vn 0.6666222 0.294898 0.6845801
vn 0.6666337 0.2948737 0.6845795
vn 0.7352691 -0.001510262 0.6777737
vn 0.735266 -0.001337672 0.6777773
vn 0.6722198 -0.2973338 0.6780214
vn 0.6722303 -0.2973114 0.6780209
vn 0.4889765 -0.543062 0.6826315
vn 0.4889771 -0.5430614 0.6826314
vn 0.2260538 -0.6957208 0.6818154
vn 0.2260554 -0.6957203 0.6818154
vn -0.07638558 -0.7267612 0.6826298
vn -0.07638472 -0.7267612 0.6826298
vn -0.365761 -0.6335208 0.681814
vn -0.3657601 -0.6335213 0.681814
vn -0.5912016 -0.429534 0.6826282
vn -0.5912014 -0.4295342 0.6826282
vn -0.7155402 -0.1520931 0.6818137
vn -0.7155402 -0.1520931 0.6818137
vn -0.7147968 0.1519338 0.6826284
vn -0.7147968 0.1519341 0.6826285
vn -0.5918821 0.4301018 0.6816803
vn -0.5918854 0.4300972 0.6816803
vn -0.3655119 0.6330857 0.6823515
vn -0.3655114 0.633086 0.6823515
g Lowpoly Rocket_0
f 3/3/3 2/2/2 1/1/1
f 4/4/4 3/3/3 1/1/1
f 1/1/1 2/2/2 5/5/5
f 2/2/2 6/6/6 5/5/5
f 5/5/5 6/6/6 7/7/7
f 6/6/6 8/8/8 7/7/7
f 7/7/7 8/8/8 9/9/9
f 8/8/8 10/10/10 9/9/9
f 9/9/9 10/10/10 11/11/11
f 10/10/10 12/12/12 11/11/11
f 11/11/11 12/12/12 13/13/13
f 12/12/12 14/14/14 13/13/13
f 13/13/13 14/14/14 15/15/15
f 14/14/14 16/16/16 15/15/15
f 15/15/15 16/16/16 17/17/17
f 16/16/16 18/18/18 17/17/17
f 17/17/17 18/18/18 19/19/19
f 18/18/18 20/20/20 19/19/19
f 19/19/19 20/20/20 21/21/21
f 20/20/20 22/22/22 21/21/21
f 21/21/21 22/22/22 23/23/23
f 22/22/22 24/24/24 23/23/23
f 11/11/11 25/25/25 9/9/9
f 26/26/26 25/25/25 11/11/11
f 13/13/13 26/26/26 11/11/11
f 27/27/27 26/26/26 13/13/13
f 15/15/15 27/27/27 13/13/13
f 28/28/28 27/27/27 15/15/15
f 17/17/17 28/28/28 15/15/15
f 29/29/29 28/28/28 17/17/17
f 19/19/19 29/29/29 17/17/17
f 30/30/30 29/29/29 19/19/19
f 21/21/21 30/30/30 19/19/19
f 31/31/31 30/30/30 21/21/21
f 23/23/23 31/31/31 21/21/21
f 16/16/16 32/32/32 18/18/18
f 33/33/33 32/32/32 16/16/16
f 14/14/14 33/33/33 16/16/16
f 34/34/34 33/33/33 14/14/14
f 12/12/12 34/34/34 14/14/14
f 35/35/35 34/34/34 12/12/12
f 10/10/10 35/35/35 12/12/12
f 36/36/36 35/35/35 10/10/10
f 8/8/8 36/36/36 10/10/10
f 37/37/37 36/36/36 8/8/8
f 6/6/6 37/37/37 8/8/8
f 38/38/38 37/37/37 6/6/6
f 2/2/2 38/38/38 6/6/6
f 39/39/39 38/38/38 2/2/2
f 3/3/3 39/39/39 2/2/2
f 40/40/40 39/39/39 3/3/3
f 41/41/41 40/40/40 3/3/3
f 41/41/41 3/3/3 4/4/4
f 42/42/42 41/41/41 4/4/4
f 43/43/43 41/41/41 42/42/42
f 44/44/44 43/43/43 42/42/42
f 45/45/45 43/43/43 44/44/44
f 46/46/46 45/45/45 44/44/44
f 47/47/47 45/45/45 46/46/46
f 48/48/48 47/47/47 46/46/46
f 46/46/46 49/49/49 48/48/48
f 49/49/49 50/50/50 48/48/48
f 51/51/51 49/49/49 46/46/46
f 44/44/44 51/51/51 46/46/46
f 52/52/52 51/51/51 44/44/44
f 42/42/42 52/52/52 44/44/44
f 53/53/53 52/52/52 42/42/42
f 4/4/4 53/53/53 42/42/42
f 54/54/54 53/53/53 4/4/4
f 1/1/1 54/54/54 4/4/4
f 55/55/55 54/54/54 1/1/1
f 5/5/5 55/55/55 1/1/1
f 56/56/56 55/55/55 5/5/5
f 7/7/7 56/56/56 5/5/5
f 57/57/57 56/56/56 7/7/7
f 9/9/9 57/57/57 7/7/7
f 25/25/25 57/57/57 9/9/9
f 47/47/47 58/58/58 45/45/45
f 58/58/58 59/59/59 45/45/45
f 45/45/45 59/59/59 43/43/43
f 59/59/59 60/60/60 43/43/43
f 43/43/43 60/60/60 41/41/41
f 60/60/60 40/40/40 41/41/41
f 58/58/58 61/61/61 59/59/59
f 61/61/61 62/62/62 59/59/59
f 59/59/59 62/62/62 60/60/60
f 62/62/62 63/63/63 60/60/60
f 60/60/60 63/63/63 40/40/40
f 63/63/63 64/64/64 40/40/40
f 40/40/40 64/64/64 39/39/39
f 64/64/64 65/65/65 39/39/39
f 39/39/39 65/65/65 38/38/38
f 65/65/65 66/66/66 38/38/38
f 38/38/38 66/66/66 37/37/37
f 66/66/66 67/67/67 37/37/37
f 37/37/37 67/67/67 36/36/36
f 67/67/67 68/68/68 36/36/36
f 36/36/36 68/68/68 35/35/35
f 68/68/68 69/69/69 35/35/35
f 35/35/35 69/69/69 34/34/34
f 69/69/69 70/70/70 34/34/34
f 34/34/34 70/70/70 33/33/33
f 70/70/70 71/71/71 33/33/33
f 33/33/33 71/71/71 32/32/32
f 71/71/71 72/72/72 32/32/32
f 32/32/32 72/72/72 73/73/73
f 32/32/32 73/73/73 18/18/18
f 18/18/18 73/73/73 20/20/20
f 73/73/73 74/74/74 20/20/20
f 20/20/20 74/74/74 22/22/22
f 74/74/74 75/75/75 22/22/22
f 22/22/22 75/75/75 24/24/24
f 75/75/75 76/76/76 24/24/24
f 72/72/72 77/77/77 73/73/73
f 73/73/73 77/77/77 74/74/74
f 77/77/77 78/78/78 74/74/74
f 74/74/74 78/78/78 75/75/75
f 78/78/78 79/79/79 75/75/75
f 75/75/75 79/79/79 76/76/76
f 79/79/79 80/80/80 76/76/76
f 83/83/83 82/82/82 81/81/81
f 84/84/84 83/83/83 81/81/81
f 84/84/84 81/81/81 85/85/85
f 86/86/86 84/84/84 85/85/85
f 86/86/86 85/85/85 87/87/87
f 88/88/88 86/86/86 87/87/87
f 87/87/87 89/89/89 88/88/88
f 89/89/89 90/90/90 88/88/88
f 89/89/89 91/91/91 90/90/90
f 91/91/91 92/92/92 90/90/90
f 91/91/91 93/93/93 92/92/92
f 93/93/93 94/94/94 92/92/92
f 93/93/93 95/95/95 94/94/94
f 98/98/98 97/97/97 96/96/96
f 99/99/99 98/98/98 96/96/96
f 98/98/98 100/100/100 97/97/97
f 100/100/100 101/101/101 97/97/97
f 100/100/100 102/102/102 101/101/101
f 102/102/102 103/103/103 101/101/101
f 103/103/103 102/102/102 104/104/104
f 105/105/105 103/103/103 104/104/104
f 105/105/105 104/104/104 106/106/106
f 107/107/107 105/105/105 106/106/106
f 107/107/107 106/106/106 108/108/108
f 109/109/109 107/107/107 108/108/108
f 110/110/110 109/109/109 108/108/108
f 113/113/113 112/112/112 111/111/111
f 114/114/114 113/113/113 111/111/111
f 113/113/113 115/115/115 112/112/112
f 115/115/115 116/116/116 112/112/112
f 115/115/115 117/117/117 116/116/116
f 117/117/117 118/118/118 116/116/116
f 117/117/117 119/119/119 118/118/118
f 119/119/119 120/120/120 118/118/118
f 119/119/119 121/121/121 120/120/120
f 121/121/121 122/122/122 120/120/120
f 121/121/121 123/123/123 122/122/122
f 123/123/123 124/124/124 122/122/122
f 123/123/123 125/125/125 124/124/124
f 125/125/125 126/126/126 124/124/124
f 125/125/125 127/127/127 126/126/126
f 127/127/127 128/128/128 126/126/126
f 127/127/127 129/129/129 128/128/128
f 129/129/129 130/130/130 128/128/128
f 129/129/129 131/131/131 130/130/130
f 131/131/131 132/132/132 130/130/130
f 131/131/131 133/133/133 132/132/132
f 133/133/133 134/134/134 132/132/132
f 133/133/133 135/135/135 134/134/134
f 135/135/135 136/136/136 134/134/134
f 135/135/135 137/137/137 136/136/136
f 137/137/137 138/138/138 136/136/136
f 137/137/137 139/139/139 138/138/138
f 139/139/139 140/140/140 138/138/138
f 139/139/139 114/114/114 140/140/140
f 114/114/114 111/111/111 140/140/140
