mtllib model_0.mtl
o model_0
v -2.6514787673950195 -0.20281599462032318 3.2121176719665527 
v -2.108656644821167 -0.20281599462032318 3.2121176719665527 
v -2.6514787673950195 -0.20281599462032318 2.554517984390259 
v -2.108656644821167 -0.20281599462032318 2.554517984390259 
v -2.6514787673950195 -0.20281599462032318 1.9475033283233643 
v -2.108656644821167 -0.20281599462032318 1.9475033283233643 
v -2.6514787673950195 -0.20281599462032318 1.2899037599563599 
v -2.108656644821167 -0.20281599462032318 1.2899037599563599 
v -2.6514787673950195 -0.20281599462032318 0.632304310798645 
v -2.108656644821167 -0.20281599462032318 0.632304310798645 
v -2.6514787673950195 -0.20281599462032318 0.025289440527558327 
v -2.108656644821167 -0.20281599462032318 0.025289440527558327 
v -2.6514787673950195 -0.20281599462032318 -0.6323100328445435 
v -2.108656644821167 -0.20281599462032318 -0.6323100328445435 
v -2.6514787673950195 -0.20281599462032318 -1.2899094820022583 
v -2.108656644821167 -0.20281599462032318 -1.2899094820022583 
v -2.6514787673950195 -0.20281599462032318 -1.9475088119506836 
v -2.108656644821167 -0.20281599462032318 -1.9475088119506836 
v -2.6514787673950195 -0.20281599462032318 -2.5545237064361572 
v -2.108656644821167 -0.20281599462032318 -2.5545237064361572 
v -2.6514787673950195 -0.20281599462032318 -3.212123394012451 
v -2.108656644821167 -0.20281599462032318 -3.212123394012451 
v -1.6075903177261353 -0.20281599462032318 3.2121176719665527 
v -1.6075903177261353 -0.20281599462032318 2.554517984390259 
v -1.6075903177261353 -0.20281599462032318 1.9475033283233643 
v -1.6075903177261353 -0.20281599462032318 1.2899037599563599 
v -1.6075903177261353 -0.20281599462032318 0.632304310798645 
v -1.6075903177261353 -0.20281599462032318 0.025289440527558327 
v -1.6075903177261353 -0.20281599462032318 -0.6323100328445435 
v -1.6075903177261353 -0.20281599462032318 -1.2899094820022583 
v -1.6075903177261353 -0.20281599462032318 -1.9475088119506836 
v -1.6075903177261353 -0.20281599462032318 -2.5545237064361572 
v -1.6075903177261353 -0.20281599462032318 -3.212123394012451 
v -1.0647684335708618 -0.20281599462032318 3.2121176719665527 
v -1.0647684335708618 -0.20281599462032318 2.554517984390259 
v -1.0647684335708618 -0.20281599462032318 1.9475033283233643 
v -1.0647684335708618 -0.20281599462032318 1.2899037599563599 
v -1.0647684335708618 -0.20281599462032318 0.632304310798645 
v -1.0647684335708618 -0.20281599462032318 0.025289440527558327 
v -1.0647684335708618 -0.20281599462032318 -0.6323100328445435 
v -1.0647684335708618 -0.20281599462032318 -1.2899094820022583 
v -1.0647684335708618 -0.20281599462032318 -1.9475088119506836 
v -1.0647684335708618 -0.20281599462032318 -2.5545237064361572 
v -1.0647684335708618 -0.20281599462032318 -3.212123394012451 
v -0.5219464898109436 -0.20281599462032318 3.2121176719665527 
v -0.5219464898109436 -0.20281599462032318 2.554517984390259 
v -0.5219464898109436 -0.20281599462032318 1.9475033283233643 
v -0.5219464898109436 -0.20281599462032318 1.2899037599563599 
v -0.5219464898109436 -0.20281599462032318 0.632304310798645 
v -0.5219464898109436 -0.20281599462032318 0.025289440527558327 
v -0.5219464898109436 -0.20281599462032318 -0.6323100328445435 
v -0.5219464898109436 -0.20281599462032318 -1.2899094820022583 
v -0.5219464898109436 -0.20281599462032318 -1.9475088119506836 
v -0.5219464898109436 -0.20281599462032318 -2.5545237064361572 
v -0.5219464898109436 -0.20281599462032318 -3.212123394012451 
v 0.020875416696071625 -0.20281599462032318 3.2121176719665527 
v 0.020875416696071625 -0.20281599462032318 2.554517984390259 
v 0.020875416696071625 -0.20281599462032318 1.9475033283233643 
v 0.020875416696071625 -0.20281599462032318 1.2899037599563599 
v 0.020875416696071625 -0.20281599462032318 0.632304310798645 
v 0.020875416696071625 -0.20281599462032318 0.025289440527558327 
v 0.020875416696071625 -0.20281599462032318 -0.6323100328445435 
v 0.020875416696071625 -0.20281599462032318 -1.2899094820022583 
v 0.020875416696071625 -0.20281599462032318 -1.9475088119506836 
v 0.020875416696071625 -0.20281599462032318 -2.5545237064361572 
v 0.020875416696071625 -0.20281599462032318 -3.212123394012451 
v 0.5219417810440063 -0.20281599462032318 3.2121176719665527 
v 0.5219417810440063 -0.20281599462032318 2.554517984390259 
v 0.5219417810440063 -0.20281599462032318 1.9475033283233643 
v 0.5219417810440063 -0.20281599462032318 1.2899037599563599 
v 0.5219417810440063 -0.20281599462032318 0.632304310798645 
v 0.5219417810440063 -0.20281599462032318 0.025289440527558327 
v 0.5219417810440063 -0.20281599462032318 -0.6323100328445435 
v 0.5219417810440063 -0.20281599462032318 -1.2899094820022583 
v 0.5219417810440063 -0.20281599462032318 -1.9475088119506836 
v 0.5219417810440063 -0.20281599462032318 -2.5545237064361572 
v 0.5219417810440063 -0.20281599462032318 -3.212123394012451 
v 1.0647637844085693 -0.20281599462032318 3.2121176719665527 
v 1.0647637844085693 -0.20281599462032318 2.554517984390259 
v 1.0647637844085693 -0.20281599462032318 1.9475033283233643 
v 1.0647637844085693 -0.20281599462032318 1.2899037599563599 
v 1.0647637844085693 -0.20281599462032318 0.632304310798645 
v 1.0647637844085693 -0.20281599462032318 0.025289440527558327 
v 1.0647637844085693 -0.20281599462032318 -0.6323100328445435 
v 1.0647637844085693 -0.20281599462032318 -1.2899094820022583 
v 1.0647637844085693 -0.20281599462032318 -1.9475088119506836 
v 1.0647637844085693 -0.20281599462032318 -2.5545237064361572 
v 1.0647637844085693 -0.20281599462032318 -3.212123394012451 
v 1.6075856685638428 -0.20281599462032318 3.2121176719665527 
v 1.6075856685638428 -0.20281599462032318 2.554517984390259 
v 1.6075856685638428 -0.20281599462032318 1.9475033283233643 
v 1.6075856685638428 -0.20281599462032318 1.2899037599563599 
v 1.6075856685638428 -0.20281599462032318 0.632304310798645 
v 1.6075856685638428 -0.20281599462032318 0.025289440527558327 
v 1.6075856685638428 -0.20281599462032318 -0.6323100328445435 
v 1.6075856685638428 -0.20281599462032318 -1.2899094820022583 
v 1.6075856685638428 -0.20281599462032318 -1.9475088119506836 
v 1.6075856685638428 -0.20281599462032318 -2.5545237064361572 
v 1.6075856685638428 -0.20281599462032318 -3.212123394012451 
v 2.108652114868164 -0.20281599462032318 3.2121176719665527 
v 2.108652114868164 -0.20281599462032318 2.554517984390259 
v 2.108652114868164 -0.20281599462032318 1.9475033283233643 
v 2.108652114868164 -0.20281599462032318 1.2899037599563599 
v 2.108652114868164 -0.20281599462032318 0.632304310798645 
v 2.108652114868164 -0.20281599462032318 0.025289440527558327 
v 2.108652114868164 -0.20281599462032318 -0.6323100328445435 
v 2.108652114868164 -0.20281599462032318 -1.2899094820022583 
v 2.108652114868164 -0.20281599462032318 -1.9475088119506836 
v 2.108652114868164 -0.20281599462032318 -2.5545237064361572 
v 2.108652114868164 -0.20281599462032318 -3.212123394012451 
v 2.6514739990234375 -0.20281599462032318 3.2121176719665527 
v 2.6514739990234375 -0.20281599462032318 2.554517984390259 
v 2.6514739990234375 -0.20281599462032318 1.9475033283233643 
v 2.6514739990234375 -0.20281599462032318 1.2899037599563599 
v 2.6514739990234375 -0.20281599462032318 0.632304310798645 
v 2.6514739990234375 -0.20281599462032318 0.025289440527558327 
v 2.6514739990234375 -0.20281599462032318 -0.6323100328445435 
v 2.6514739990234375 -0.20281599462032318 -1.2899094820022583 
v 2.6514739990234375 -0.20281599462032318 -1.9475088119506836 
v 2.6514739990234375 -0.20281599462032318 -2.5545237064361572 
v 2.6514739990234375 -0.20281599462032318 -3.212123394012451 
vn -1.870431706654102e-13 0.999997615814209 0.003261823207139969 
vn -1.870431706654102e-13 0.999997615814209 0.003261823207139969 
vn -1.870431706654102e-13 0.999997615814209 0.003261823207139969 
vn -1.870431706654102e-13 0.999997615814209 0.003261823207139969 
vn -1.870431706654102e-13 0.999997615814209 0.003261823207139969 
vn -1.870431706654102e-13 0.999997615814209 0.003261823207139969 
vn -1.870431706654102e-13 0.999997615814209 0.003261823207139969 
vn -1.870431706654102e-13 0.999997615814209 0.003261823207139969 
vn -1.870431706654102e-13 0.999997615814209 0.003261823207139969 
vn -1.870431706654102e-13 0.999997615814209 0.003261823207139969 
vn -1.870431706654102e-13 0.999997615814209 0.003261823207139969 
vn -1.870431706654102e-13 0.999997615814209 0.003261823207139969 
vn -1.870431706654102e-13 0.999997615814209 0.003261823207139969 
vn -1.870431706654102e-13 0.999997615814209 0.003261823207139969 
vn -1.870431706654102e-13 0.999997615814209 0.003261823207139969 
vn -1.870431706654102e-13 0.999997615814209 0.003261823207139969 
vn -1.870431706654102e-13 0.999997615814209 0.003261823207139969 
vn -1.870431706654102e-13 0.999997615814209 0.003261823207139969 
vn -1.870431706654102e-13 0.999997615814209 0.003261823207139969 
vn -1.870431706654102e-13 0.999997615814209 0.003261823207139969 
vn -1.870431706654102e-13 0.999997615814209 0.003261823207139969 
vn -1.870431706654102e-13 0.999997615814209 0.003261823207139969 
vn -1.870431706654102e-13 0.999997615814209 0.003261823207139969 
vn -1.870431706654102e-13 0.999997615814209 0.003261823207139969 
vn -1.870431706654102e-13 0.999997615814209 0.003261823207139969 
vn -1.870431706654102e-13 0.999997615814209 0.003261823207139969 
vn -1.870431706654102e-13 0.999997615814209 0.003261823207139969 
vn -1.870431706654102e-13 0.999997615814209 0.003261823207139969 
vn -1.870431706654102e-13 0.999997615814209 0.003261823207139969 
vn -1.870431706654102e-13 0.999997615814209 0.003261823207139969 
vn -1.870431706654102e-13 0.999997615814209 0.003261823207139969 
vn -1.870431706654102e-13 0.999997615814209 0.003261823207139969 
vn -1.870431706654102e-13 0.999997615814209 0.003261823207139969 
vn -1.870431706654102e-13 0.999997615814209 0.003261823207139969 
vn -1.870431706654102e-13 0.999997615814209 0.003261823207139969 
vn -1.870431706654102e-13 0.999997615814209 0.003261823207139969 
vn -1.870431706654102e-13 0.999997615814209 0.003261823207139969 
vn -1.870431706654102e-13 0.999997615814209 0.003261823207139969 
vn -1.870431706654102e-13 0.999997615814209 0.003261823207139969 
vn -1.870431706654102e-13 0.999997615814209 0.003261823207139969 
vn -1.870431706654102e-13 0.999997615814209 0.003261823207139969 
vn -1.870431706654102e-13 0.999997615814209 0.003261823207139969 
vn -1.870431706654102e-13 0.999997615814209 0.003261823207139969 
vn -1.870431706654102e-13 0.999997615814209 0.003261823207139969 
vn -1.870431706654102e-13 0.999997615814209 0.003261823207139969 
vn -1.870431706654102e-13 0.999997615814209 0.003261823207139969 
vn -1.870431706654102e-13 0.999997615814209 0.003261823207139969 
vn -1.870431706654102e-13 0.999997615814209 0.003261823207139969 
vn -1.870431706654102e-13 0.999997615814209 0.003261823207139969 
vn -1.870431706654102e-13 0.999997615814209 0.003261823207139969 
vn -1.870431706654102e-13 0.999997615814209 0.003261823207139969 
vn -1.870431706654102e-13 0.999997615814209 0.003261823207139969 
vn -1.870431706654102e-13 0.999997615814209 0.003261823207139969 
vn -1.870431706654102e-13 0.999997615814209 0.003261823207139969 
vn -1.870431706654102e-13 0.999997615814209 0.003261823207139969 
vn -1.870431706654102e-13 0.999997615814209 0.003261823207139969 
vn -1.870431706654102e-13 0.999997615814209 0.003261823207139969 
vn -1.870431706654102e-13 0.999997615814209 0.003261823207139969 
vn -1.870431706654102e-13 0.999997615814209 0.003261823207139969 
vn -1.870431706654102e-13 0.999997615814209 0.003261823207139969 
vn -1.870431706654102e-13 0.999997615814209 0.003261823207139969 
vn -1.870431706654102e-13 0.999997615814209 0.003261823207139969 
vn -1.870431706654102e-13 0.999997615814209 0.003261823207139969 
vn -1.870431706654102e-13 0.999997615814209 0.003261823207139969 
vn -1.870431706654102e-13 0.999997615814209 0.003261823207139969 
vn -1.870431706654102e-13 0.999997615814209 0.003261823207139969 
vn -1.870431706654102e-13 0.999997615814209 0.003261823207139969 
vn -1.870431706654102e-13 0.999997615814209 0.003261823207139969 
vn -1.870431706654102e-13 0.999997615814209 0.003261823207139969 
vn -1.870431706654102e-13 0.999997615814209 0.003261823207139969 
vn -1.870431706654102e-13 0.999997615814209 0.003261823207139969 
vn -1.870431706654102e-13 0.999997615814209 0.003261823207139969 
vn -1.870431706654102e-13 0.999997615814209 0.003261823207139969 
vn -1.870431706654102e-13 0.999997615814209 0.003261823207139969 
vn -1.870431706654102e-13 0.999997615814209 0.003261823207139969 
vn -1.870431706654102e-13 0.999997615814209 0.003261823207139969 
vn -1.870431706654102e-13 0.999997615814209 0.003261823207139969 
vn -1.870431706654102e-13 0.999997615814209 0.003261823207139969 
vn -1.870431706654102e-13 0.999997615814209 0.003261823207139969 
vn -1.870431706654102e-13 0.999997615814209 0.003261823207139969 
vn -1.870431706654102e-13 0.999997615814209 0.003261823207139969 
vn -1.870431706654102e-13 0.999997615814209 0.003261823207139969 
vn -1.870431706654102e-13 0.999997615814209 0.003261823207139969 
vn -1.870431706654102e-13 0.999997615814209 0.003261823207139969 
vn -1.870431706654102e-13 0.999997615814209 0.003261823207139969 
vn -1.870431706654102e-13 0.999997615814209 0.003261823207139969 
vn -1.870431706654102e-13 0.999997615814209 0.003261823207139969 
vn -1.870431706654102e-13 0.999997615814209 0.003261823207139969 
vn -1.870431706654102e-13 0.999997615814209 0.003261823207139969 
vn -1.870431706654102e-13 0.999997615814209 0.003261823207139969 
vn -1.870431706654102e-13 0.999997615814209 0.003261823207139969 
vn -1.870431706654102e-13 0.999997615814209 0.003261823207139969 
vn -1.870431706654102e-13 0.999997615814209 0.003261823207139969 
vn -1.870431706654102e-13 0.999997615814209 0.003261823207139969 
vn -1.870431706654102e-13 0.999997615814209 0.003261823207139969 
vn -1.870431706654102e-13 0.999997615814209 0.003261823207139969 
vn -1.870431706654102e-13 0.999997615814209 0.003261823207139969 
vn -1.870431706654102e-13 0.999997615814209 0.003261823207139969 
vn -1.870431706654102e-13 0.999997615814209 0.003261823207139969 
vn -1.870431706654102e-13 0.999997615814209 0.003261823207139969 
vn -1.870431706654102e-13 0.999997615814209 0.003261823207139969 
vn -1.870431706654102e-13 0.999997615814209 0.003261823207139969 
vn -1.870431706654102e-13 0.999997615814209 0.003261823207139969 
vn -1.870431706654102e-13 0.999997615814209 0.003261823207139969 
vn -1.870431706654102e-13 0.999997615814209 0.003261823207139969 
vn -1.870431706654102e-13 0.999997615814209 0.003261823207139969 
vn -1.870431706654102e-13 0.999997615814209 0.003261823207139969 
vn -1.870431706654102e-13 0.999997615814209 0.003261823207139969 
vn -1.870431706654102e-13 0.999997615814209 0.003261823207139969 
vn -1.870431706654102e-13 0.999997615814209 0.003261823207139969 
vn -1.870431706654102e-13 0.999997615814209 0.003261823207139969 
vn -1.870431706654102e-13 0.999997615814209 0.003261823207139969 
vn -1.870431706654102e-13 0.999997615814209 0.003261823207139969 
vn -1.870431706654102e-13 0.999997615814209 0.003261823207139969 
vn -1.870431706654102e-13 0.999997615814209 0.003261823207139969 
vn -1.870431706654102e-13 0.999997615814209 0.003261823207139969 
vn -1.870431706654102e-13 0.999997615814209 0.003261823207139969 
vn -1.870431706654102e-13 0.999997615814209 0.003261823207139969 
vn -1.870431706654102e-13 0.999997615814209 0.003261823207139969 
vn -1.870431706654102e-13 0.999997615814209 0.003261823207139969 
vn -1.870431706654102e-13 0.999997615814209 0.003261823207139969 
s on 
f 1//1 2//2 3//3 
f 2//2 4//4 3//3 
f 3//3 4//4 5//5 
f 4//4 6//6 5//5 
f 5//5 6//6 7//7 
f 6//6 8//8 7//7 
f 7//7 8//8 9//9 
f 8//8 10//10 9//9 
f 9//9 10//10 11//11 
f 10//10 12//12 11//11 
f 11//11 12//12 13//13 
f 12//12 14//14 13//13 
f 13//13 14//14 15//15 
f 14//14 16//16 15//15 
f 15//15 16//16 17//17 
f 16//16 18//18 17//17 
f 17//17 18//18 19//19 
f 18//18 20//20 19//19 
f 19//19 20//20 21//21 
f 20//20 22//22 21//21 
f 21//21 22//22 22//22 
f 22//22 2//2 22//22 
f 22//22 2//2 2//2 
f 2//2 23//23 2//2 
f 2//2 23//23 4//4 
f 23//23 24//24 4//4 
f 4//4 24//24 6//6 
f 24//24 25//25 6//6 
f 6//6 25//25 8//8 
f 25//25 26//26 8//8 
f 8//8 26//26 10//10 
f 26//26 27//27 10//10 
f 10//10 27//27 12//12 
f 27//27 28//28 12//12 
f 12//12 28//28 14//14 
f 28//28 29//29 14//14 
f 14//14 29//29 16//16 
f 29//29 30//30 16//16 
f 16//16 30//30 18//18 
f 30//30 31//31 18//18 
f 18//18 31//31 20//20 
f 31//31 32//32 20//20 
f 20//20 32//32 22//22 
f 32//32 33//33 22//22 
f 22//22 33//33 33//33 
f 33//33 23//23 33//33 
f 33//33 23//23 23//23 
f 23//23 34//34 23//23 
f 23//23 34//34 24//24 
f 34//34 35//35 24//24 
f 24//24 35//35 25//25 
f 35//35 36//36 25//25 
f 25//25 36//36 26//26 
f 36//36 37//37 26//26 
f 26//26 37//37 27//27 
f 37//37 38//38 27//27 
f 27//27 38//38 28//28 
f 38//38 39//39 28//28 
f 28//28 39//39 29//29 
f 39//39 40//40 29//29 
f 29//29 40//40 30//30 
f 40//40 41//41 30//30 
f 30//30 41//41 31//31 
f 41//41 42//42 31//31 
f 31//31 42//42 32//32 
f 42//42 43//43 32//32 
f 32//32 43//43 33//33 
f 43//43 44//44 33//33 
f 33//33 44//44 44//44 
f 44//44 34//34 44//44 
f 44//44 34//34 34//34 
f 34//34 45//45 34//34 
f 34//34 45//45 35//35 
f 45//45 46//46 35//35 
f 35//35 46//46 36//36 
f 46//46 47//47 36//36 
f 36//36 47//47 37//37 
f 47//47 48//48 37//37 
f 37//37 48//48 38//38 
f 48//48 49//49 38//38 
f 38//38 49//49 39//39 
f 49//49 50//50 39//39 
f 39//39 50//50 40//40 
f 50//50 51//51 40//40 
f 40//40 51//51 41//41 
f 51//51 52//52 41//41 
f 41//41 52//52 42//42 
f 52//52 53//53 42//42 
f 42//42 53//53 43//43 
f 53//53 54//54 43//43 
f 43//43 54//54 44//44 
f 54//54 55//55 44//44 
f 44//44 55//55 55//55 
f 55//55 45//45 55//55 
f 55//55 45//45 45//45 
f 45//45 56//56 45//45 
f 45//45 56//56 46//46 
f 56//56 57//57 46//46 
f 46//46 57//57 47//47 
f 57//57 58//58 47//47 
f 47//47 58//58 48//48 
f 58//58 59//59 48//48 
f 48//48 59//59 49//49 
f 59//59 60//60 49//49 
f 49//49 60//60 50//50 
f 60//60 61//61 50//50 
f 50//50 61//61 51//51 
f 61//61 62//62 51//51 
f 51//51 62//62 52//52 
f 62//62 63//63 52//52 
f 52//52 63//63 53//53 
f 63//63 64//64 53//53 
f 53//53 64//64 54//54 
f 64//64 65//65 54//54 
f 54//54 65//65 55//55 
f 65//65 66//66 55//55 
f 55//55 66//66 66//66 
f 66//66 56//56 66//66 
f 66//66 56//56 56//56 
f 56//56 67//67 56//56 
f 56//56 67//67 57//57 
f 67//67 68//68 57//57 
f 57//57 68//68 58//58 
f 68//68 69//69 58//58 
f 58//58 69//69 59//59 
f 69//69 70//70 59//59 
f 59//59 70//70 60//60 
f 70//70 71//71 60//60 
f 60//60 71//71 61//61 
f 71//71 72//72 61//61 
f 61//61 72//72 62//62 
f 72//72 73//73 62//62 
f 62//62 73//73 63//63 
f 73//73 74//74 63//63 
f 63//63 74//74 64//64 
f 74//74 75//75 64//64 
f 64//64 75//75 65//65 
f 75//75 76//76 65//65 
f 65//65 76//76 66//66 
f 76//76 77//77 66//66 
f 66//66 77//77 77//77 
f 77//77 67//67 77//77 
f 77//77 67//67 67//67 
f 67//67 78//78 67//67 
f 67//67 78//78 68//68 
f 78//78 79//79 68//68 
f 68//68 79//79 69//69 
f 79//79 80//80 69//69 
f 69//69 80//80 70//70 
f 80//80 81//81 70//70 
f 70//70 81//81 71//71 
f 81//81 82//82 71//71 
f 71//71 82//82 72//72 
f 82//82 83//83 72//72 
f 72//72 83//83 73//73 
f 83//83 84//84 73//73 
f 73//73 84//84 74//74 
f 84//84 85//85 74//74 
f 74//74 85//85 75//75 
f 85//85 86//86 75//75 
f 75//75 86//86 76//76 
f 86//86 87//87 76//76 
f 76//76 87//87 77//77 
f 87//87 88//88 77//77 
f 77//77 88//88 88//88 
f 88//88 78//78 88//88 
f 88//88 78//78 78//78 
f 78//78 89//89 78//78 
f 78//78 89//89 79//79 
f 89//89 90//90 79//79 
f 79//79 90//90 80//80 
f 90//90 91//91 80//80 
f 80//80 91//91 81//81 
f 91//91 92//92 81//81 
f 81//81 92//92 82//82 
f 92//92 93//93 82//82 
f 82//82 93//93 83//83 
f 93//93 94//94 83//83 
f 83//83 94//94 84//84 
f 94//94 95//95 84//84 
f 84//84 95//95 85//85 
f 95//95 96//96 85//85 
f 85//85 96//96 86//86 
f 96//96 97//97 86//86 
f 86//86 97//97 87//87 
f 97//97 98//98 87//87 
f 87//87 98//98 88//88 
f 98//98 99//99 88//88 
f 88//88 99//99 99//99 
f 99//99 89//89 99//99 
f 99//99 89//89 89//89 
f 89//89 100//100 89//89 
f 89//89 100//100 90//90 
f 100//100 101//101 90//90 
f 90//90 101//101 91//91 
f 101//101 102//102 91//91 
f 91//91 102//102 92//92 
f 102//102 103//103 92//92 
f 92//92 103//103 93//93 
f 103//103 104//104 93//93 
f 93//93 104//104 94//94 
f 104//104 105//105 94//94 
f 94//94 105//105 95//95 
f 105//105 106//106 95//95 
f 95//95 106//106 96//96 
f 106//106 107//107 96//96 
f 96//96 107//107 97//97 
f 107//107 108//108 97//97 
f 97//97 108//108 98//98 
f 108//108 109//109 98//98 
f 98//98 109//109 99//99 
f 109//109 110//110 99//99 
f 99//99 110//110 110//110 
f 110//110 100//100 110//110 
f 110//110 100//100 100//100 
f 100//100 111//111 100//100 
f 100//100 111//111 101//101 
f 111//111 112//112 101//101 
f 101//101 112//112 102//102 
f 112//112 113//113 102//102 
f 102//102 113//113 103//103 
f 113//113 114//114 103//103 
f 103//103 114//114 104//104 
f 114//114 115//115 104//104 
f 104//104 115//115 105//105 
f 115//115 116//116 105//105 
f 105//105 116//116 106//106 
f 116//116 117//117 106//106 
f 106//106 117//117 107//107 
f 117//117 118//118 107//107 
f 107//107 118//118 108//108 
f 118//118 119//119 108//108 
f 108//108 119//119 109//109 
f 119//119 120//120 109//109 
f 109//109 120//120 110//110 
f 120//120 121//121 110//110 

