# Blender v2.82 (sub 7) OBJ File: 'Arrow_01.blend'
# www.blender.org
mtllib Arrow_01.mtl
o Arrow01_Cube.003
v -0.013566 -7.420468 -0.022764
v -0.013566 -5.157235 -0.022764
v -0.013566 -7.420468 0.022764
v -0.013566 -5.157235 0.022764
v -0.540077 -7.049247 -0.022764
v -0.030680 -5.157235 -0.022764
v -0.540077 -7.049247 0.022764
v -0.030680 -5.157235 0.022764
v 0.013566 -7.420468 -0.022764
v 0.013566 -5.157235 -0.022764
v 0.013566 -7.420468 0.022763
v 0.013566 -5.157235 0.022763
v 0.540077 -7.049247 -0.022764
v 0.030680 -5.157235 -0.022764
v 0.540077 -7.049247 0.022764
v 0.030680 -5.157235 0.022764
v -0.000000 -7.591389 -0.064735
v -0.000000 3.165809 -0.064735
v 0.024773 -7.591389 -0.059807
v 0.024773 3.165809 -0.059807
v 0.045774 -7.591389 -0.045774
v 0.045774 3.165809 -0.045774
v 0.059807 -7.591389 -0.024773
v 0.059807 3.165809 -0.024773
v 0.064735 -7.591389 0.000000
v 0.064735 3.165809 0.000000
v 0.059807 -7.591389 0.024773
v 0.059807 3.165809 0.024773
v 0.045774 -7.591389 0.045774
v 0.045774 3.165809 0.045774
v 0.024773 -7.591389 0.059807
v 0.024773 3.165809 0.059807
v 0.000000 -7.591389 0.064735
v 0.000000 3.165809 0.064735
v -0.024773 -7.591389 0.059807
v -0.024773 3.165809 0.059807
v -0.045774 -7.591389 0.045774
v -0.045774 3.165809 0.045774
v -0.059807 -7.591389 0.024773
v -0.059807 3.165809 0.024773
v -0.064735 -7.591389 0.000000
v -0.064735 3.165809 0.000000
v -0.059807 -7.591389 -0.024773
v -0.059807 3.165809 -0.024773
v -0.045774 -7.591389 -0.045774
v -0.045774 3.165809 -0.045774
v -0.024773 -7.591389 -0.059807
v -0.024773 3.165809 -0.059807
v -0.000000 3.888006 0.089472
v -0.000000 3.888006 -0.089472
v -0.000000 3.459593 0.113801
v -0.000000 3.459593 -0.113801
v -0.000000 4.316420 0.058638
v -0.000000 4.316420 -0.058638
v -0.368272 3.037335 0.052079
v -0.364481 3.031178 0.053402
v -0.363547 3.037426 0.059573
v -0.364481 3.031178 -0.053401
v -0.368273 3.037335 -0.052079
v -0.363547 3.037426 -0.059572
v 0.364481 3.031178 0.053402
v 0.368273 3.037335 0.052079
v 0.363547 3.037426 0.059573
v -0.000000 4.744834 0.000000
v 0.363547 3.037426 -0.059572
v 0.368272 3.037335 -0.052079
v 0.364481 3.031178 -0.053401
v -0.000000 3.037413 -0.154377
v -0.000000 3.031178 -0.148597
v -0.000000 3.037413 0.154377
v -0.000000 3.031178 0.148597
v -0.222807 3.888006 0.034849
v -0.227031 3.888006 0.027548
v -0.222807 3.888006 -0.034849
v -0.227031 3.888006 -0.027548
v 0.227031 3.888006 -0.027548
v 0.222807 3.888006 -0.034849
v 0.222807 3.888006 0.034849
v 0.227031 3.888006 0.027548
v -0.290310 3.459593 -0.036742
v -0.285873 3.459593 -0.044090
v 0.285873 3.459593 -0.044090
v 0.290310 3.459593 -0.036742
v 0.290310 3.459593 0.036742
v 0.285873 3.459593 0.044090
v -0.290310 3.459593 0.036742
v -0.285873 3.459593 0.044090
v -0.153090 4.316420 0.015895
v -0.148930 4.316420 0.023151
v -0.153090 4.316420 -0.015895
v -0.148930 4.316420 -0.023151
v 0.148930 4.316420 -0.023151
v 0.153090 4.316420 -0.015895
v 0.153090 4.316420 0.015895
v 0.148930 4.316420 0.023151
vt 0.625000 0.000000
vt 0.375000 0.250000
vt 0.375000 0.000000
vt 0.625000 0.250000
vt 0.375000 0.500000
vt 0.625000 0.500000
vt 0.375000 0.750000
vt 0.625000 1.000000
vt 0.375000 1.000000
vt 0.125000 0.750000
vt 0.125000 0.500000
vt 0.875000 0.500000
vt 0.625000 0.750000
vt 0.875000 0.750000
vt 0.375000 0.250000
vt 0.625000 0.000000
vt 0.375000 0.000000
vt 0.375000 0.500000
vt 0.625000 0.250000
vt 0.375000 0.750000
vt 0.625000 0.500000
vt 0.625000 1.000000
vt 0.625000 0.750000
vt 0.125000 0.750000
vt 0.125000 0.500000
vt 0.875000 0.500000
vt 0.375000 1.000000
vt 0.875000 0.750000
vt 1.000000 1.000000
vt 0.937500 0.500000
vt 1.000000 0.500000
vt 0.937500 1.000000
vt 0.875000 0.500000
vt 0.875000 1.000000
vt 0.812500 0.500000
vt 0.812500 1.000000
vt 0.750000 0.500000
vt 0.750000 1.000000
vt 0.687500 0.500000
vt 0.687500 1.000000
vt 0.625000 0.500000
vt 0.625000 1.000000
vt 0.562500 0.500000
vt 0.562500 1.000000
vt 0.500000 0.500000
vt 0.500000 1.000000
vt 0.437500 0.500000
vt 0.437500 1.000000
vt 0.375000 0.500000
vt 0.375000 1.000000
vt 0.312500 0.500000
vt 0.312500 1.000000
vt 0.250000 0.500000
vt 0.250000 1.000000
vt 0.187500 0.500000
vt 0.187500 1.000000
vt 0.125000 0.500000
vt 0.080294 0.080294
vt 0.419706 0.080294
vt 0.419706 0.419706
vt 0.125000 1.000000
vt 0.062500 0.500000
vt 0.062500 1.000000
vt 0.000000 0.500000
vt 0.658156 0.471731
vt 0.971731 0.341844
vt 0.841844 0.028269
vt 0.341844 0.471731
vt 0.250000 0.490000
vt 0.158156 0.471731
vt 0.080294 0.419706
vt 0.028269 0.341844
vt 0.010000 0.250000
vt 0.028269 0.158156
vt 0.158156 0.028269
vt 0.250000 0.010000
vt 0.341844 0.028269
vt 0.471731 0.158156
vt 0.490000 0.250000
vt 0.471731 0.341844
vt 0.000000 1.000000
vt 0.750000 0.490000
vt 0.841844 0.471731
vt 0.919706 0.419706
vt 0.990000 0.250000
vt 0.971731 0.158156
vt 0.919706 0.080294
vt 0.750000 0.010000
vt 0.528269 0.158156
vt 0.658156 0.028269
vt 0.580294 0.080294
vt 0.510000 0.250000
vt 0.528269 0.341844
vt 0.580294 0.419706
vt 0.500000 0.023162
vt 0.437500 0.231789
vt 0.437500 0.018211
vt 0.375910 0.375000
vt 0.437500 0.498089
vt 0.375911 0.498362
vt 0.562500 0.035341
vt 0.750000 0.537712
vt 0.562500 0.214659
vt 0.437500 0.251911
vt 0.375911 0.251638
vt 0.562500 0.753396
vt 0.562500 0.875000
vt 0.375910 0.875000
vt 0.437500 0.998089
vt 0.375911 0.998362
vt 0.562500 0.535341
vt 0.562500 0.714659
vt 0.437500 0.518211
vt 0.375898 0.736371
vt 0.375898 0.513629
vt 0.500000 0.375000
vt 0.562500 0.496604
vt 0.500000 0.497674
vt 0.500000 0.875000
vt 0.562500 0.996604
vt 0.500000 0.997674
vt 0.500000 0.752325
vt 0.500000 0.726838
vt 0.500000 0.523162
vt 0.500000 0.226838
vt 0.250000 0.505145
vt 0.126572 0.737858
vt 0.126572 0.512142
vt 0.562500 0.375000
vt 0.437500 0.751911
vt 0.375911 0.751638
vt 0.373428 0.512142
vt 0.250000 0.744855
vt 0.562500 0.253396
vt 0.500000 0.252326
vt 0.437500 0.375000
vt 0.437500 0.875000
vt 0.437500 0.731789
vt 0.375898 0.013629
vt 0.375000 0.011028
vt 0.376072 0.000000
vt 0.125000 0.513850
vt 0.126867 0.500000
vt 0.373428 0.737858
vt 0.375000 0.736150
vt 0.373133 0.750000
vt 0.375930 0.500000
vt 0.375000 0.498727
vt 0.562520 1.000000
vt 0.249972 0.500000
vt 0.250028 0.750000
vt 0.373133 0.500000
vt 0.126867 0.750000
vt 0.500000 1.000000
vt 0.437519 1.000000
vt 0.375930 1.000000
vt 0.375898 0.236371
vt 0.125000 0.736150
vn 1.0000 0.0000 0.0000
vn 0.0000 -0.0000 1.0000
vn -0.9656 0.2600 0.0000
vn -0.0000 0.0000 -1.0000
vn -0.5762 -0.8173 0.0000
vn 0.0000 1.0000 0.0000
vn -1.0000 0.0000 0.0000
vn 0.9656 0.2600 0.0000
vn 0.5762 -0.8173 0.0000
vn 0.3827 0.0000 -0.9239
vn 0.7071 0.0000 -0.7071
vn 0.9239 0.0000 -0.3827
vn 0.9239 0.0000 0.3827
vn 0.7071 0.0000 0.7071
vn 0.3827 0.0000 0.9239
vn -0.3827 0.0000 0.9239
vn -0.7071 0.0000 0.7071
vn -0.9239 0.0000 0.3827
vn -0.9239 0.0000 -0.3827
vn -0.7071 0.0000 -0.7071
vn -0.3827 0.0000 -0.9239
vn 0.0000 -1.0000 0.0000
vn 0.0000 1.0000 -0.0001
vn 0.0000 1.0000 0.0001
vn 0.0000 -1.0000 0.0001
vn 0.0000 -1.0000 -0.0001
vn -0.9536 0.1585 0.2561
vn -0.9500 0.1659 -0.2645
vn -0.9500 0.1659 0.2645
vn 0.0000 -0.3050 -0.9524
vn 0.5855 0.1229 -0.8013
vn 0.5527 -0.2367 -0.7990
vn -0.9360 0.2505 0.2471
vn -0.9360 0.2505 -0.2471
vn -0.5855 0.1229 -0.8013
vn -0.5527 -0.2367 -0.7990
vn 0.5956 0.1862 0.7814
vn 0.0000 0.1033 0.9947
vn -0.0000 -0.3050 0.9524
vn -0.5855 0.1229 0.8013
vn -0.5527 -0.2367 0.7990
vn 0.9360 0.2505 -0.2471
vn 0.9360 0.2505 0.2471
vn 0.9500 0.1659 -0.2645
vn 0.9562 -0.1504 0.2512
vn 0.9562 -0.1504 -0.2512
vn 0.0000 0.0633 -0.9980
vn 0.5956 0.1862 -0.7814
vn 0.5959 0.1145 -0.7949
vn 0.0000 0.0633 0.9980
vn -0.5956 0.1862 0.7814
vn -0.5959 0.1145 0.7949
vn 0.5959 0.1145 0.7949
vn 0.9536 0.1585 0.2561
vn 0.9536 0.1585 -0.2561
vn -0.9536 0.1585 -0.2561
vn 0.0000 -0.8921 -0.4517
vn -0.4894 -0.8135 0.3141
vn -0.4894 -0.8135 -0.3141
vn -0.0000 0.1033 -0.9947
vn 0.5855 0.1229 0.8013
vn 0.5527 -0.2367 0.7990
vn 0.4894 -0.8135 -0.3141
vn -0.0000 -0.8921 0.4517
vn -0.5956 0.1862 -0.7814
vn -0.5959 0.1145 -0.7949
vn 0.0000 0.0767 -0.9971
vn -0.0000 0.0767 0.9971
vn 0.9500 0.1659 0.2645
vn -0.9562 -0.1504 0.2512
vn -0.9562 -0.1504 -0.2512
vn 0.4894 -0.8135 0.3141
usemtl DarkRed_Arrow01
s 1
f 2/1/1 3/2/1 1/3/1
f 4/4/2 7/5/2 3/2/2
f 8/6/3 5/7/3 7/5/3
f 5/7/4 2/8/4 1/9/4
f 7/5/5 1/10/5 3/11/5
f 4/12/6 6/13/6 8/6/6
f 2/1/1 4/4/1 3/2/1
f 4/4/2 8/6/2 7/5/2
f 8/6/3 6/13/3 5/7/3
f 5/7/4 6/13/4 2/8/4
f 7/5/5 5/7/5 1/10/5
f 4/12/6 2/14/6 6/13/6
s 2
f 11/15/7 10/16/7 9/17/7
f 15/18/2 12/19/2 11/15/2
f 13/20/8 16/21/8 15/18/8
f 13/20/4 10/22/4 14/23/4
f 9/24/9 15/18/9 11/25/9
f 14/23/6 12/26/6 16/21/6
f 11/15/7 12/19/7 10/16/7
f 15/18/2 16/21/2 12/19/2
f 13/20/8 14/23/8 16/21/8
f 13/20/4 9/27/4 10/22/4
f 9/24/9 13/20/9 15/18/9
f 14/23/6 10/28/6 12/26/6
usemtl DarkBrown_Arrow01
s 3
f 18/29/4 19/30/10 17/31/4
f 20/32/10 21/33/11 19/30/10
f 22/34/11 23/35/12 21/33/11
f 24/36/12 25/37/1 23/35/12
f 26/38/1 27/39/13 25/37/1
f 28/40/13 29/41/14 27/39/13
f 30/42/14 31/43/15 29/41/14
f 32/44/15 33/45/2 31/43/15
f 34/46/2 35/47/16 33/45/2
f 36/48/16 37/49/17 35/47/16
f 38/50/17 39/51/18 37/49/17
f 40/52/18 41/53/7 39/51/18
f 42/54/7 43/55/19 41/53/7
f 44/56/19 45/57/20 43/55/19
f 38/58/6 30/59/6 22/60/6
f 46/61/20 47/62/21 45/57/20
f 48/63/21 17/64/4 47/62/21
f 47/65/22 23/66/22 31/67/22
f 18/29/4 20/32/10 19/30/10
f 20/32/10 22/34/11 21/33/11
f 22/34/11 24/36/12 23/35/12
f 24/36/12 26/38/1 25/37/1
f 26/38/1 28/40/13 27/39/13
f 28/40/13 30/42/14 29/41/14
f 30/42/14 32/44/15 31/43/15
f 32/44/15 34/46/2 33/45/2
f 34/46/2 36/48/16 35/47/16
f 36/48/16 38/50/17 37/49/17
f 38/50/17 40/52/18 39/51/18
f 40/52/18 42/54/7 41/53/7
f 42/54/7 44/56/19 43/55/19
f 44/56/19 46/61/20 45/57/20
f 22/60/6 20/68/23 18/69/6
f 18/69/6 48/70/6 46/71/6
f 46/71/6 44/72/6 38/58/6
f 44/72/6 42/73/6 38/58/6
f 42/73/6 40/74/6 38/58/6
f 38/58/6 36/75/6 30/59/6
f 36/75/6 34/76/6 30/59/6
f 34/76/6 32/77/24 30/59/6
f 30/59/6 28/78/6 26/79/6
f 26/79/6 24/80/6 30/59/6
f 24/80/6 22/60/6 30/59/6
f 22/60/6 18/69/6 46/71/6
f 22/60/6 46/71/6 38/58/6
f 46/61/20 48/63/21 47/62/21
f 48/63/21 18/81/4 17/64/4
f 47/65/22 17/82/25 19/83/22
f 19/83/22 21/84/26 23/66/22
f 23/66/22 25/85/22 27/86/22
f 27/86/22 29/87/25 31/67/22
f 31/67/22 33/88/22 39/89/22
f 33/88/22 35/90/22 39/89/22
f 35/90/22 37/91/26 39/89/22
f 39/89/22 41/92/22 43/93/22
f 43/93/22 45/94/25 47/65/22
f 47/65/22 19/83/22 23/66/22
f 23/66/22 27/86/22 31/67/22
f 39/89/22 43/93/22 31/67/22
f 43/93/22 47/65/22 31/67/22
usemtl Gray_Arrow01
s 4
f 73/95/27 80/96/28 86/97/29
f 68/98/30 82/99/31 65/100/32
f 88/101/33 64/102/6 90/103/34
f 81/104/35 68/98/30 60/105/36
f 95/106/37 64/102/6 53/107/38
f 70/108/39 87/109/40 57/110/41
f 93/111/42 64/102/6 94/112/43
f 83/113/44 62/114/45 66/115/46
f 50/116/47 92/117/48 77/118/49
f 49/119/50 89/120/51 72/121/52
f 95/106/37 49/119/50 78/122/53
f 93/111/42 79/123/54 76/124/55
f 88/101/33 75/125/56 73/95/27
f 69/126/57 56/127/58 58/128/59
f 54/129/60 64/102/6 92/117/48
f 85/130/61 70/108/39 63/131/62
f 53/107/38 64/102/6 89/120/51
f 67/132/63 71/133/64 69/126/57
f 91/134/65 64/102/6 54/129/60
f 74/135/66 52/136/67 81/104/35
f 78/122/53 51/137/68 85/130/61
f 91/134/65 50/116/47 74/135/66
f 83/113/44 79/123/54 84/138/69
f 52/136/67 77/118/49 82/99/31
f 51/137/68 72/121/52 87/109/40
f 55/139/70 56/140/58 57/141/41
f 58/128/59 59/142/71 60/143/36
f 61/144/72 62/145/45 63/146/62
f 65/100/32 66/147/46 67/148/63
f 56/127/58 59/142/71 58/128/59
f 89/120/51 64/102/6 88/149/33
f 60/105/36 80/96/28 81/104/35
f 69/126/57 60/143/36 68/150/30
f 83/113/44 65/100/32 82/99/31
f 61/144/72 66/115/46 62/114/45
f 63/131/62 84/138/69 85/130/61
f 71/133/64 63/146/62 70/151/39
f 69/126/57 65/152/32 67/132/63
f 71/133/64 57/153/41 56/127/58
f 87/109/40 73/154/27 86/155/29
f 74/135/66 90/103/34 91/134/65
f 93/111/42 77/118/49 92/117/48
f 78/122/53 94/112/43 95/106/37
f 81/104/35 75/125/56 74/135/66
f 76/124/55 82/99/31 77/118/49
f 85/130/61 79/123/54 78/122/53
f 57/110/41 86/155/29 55/156/70
f 72/121/52 88/149/33 73/154/27
f 64/102/6 91/134/65 90/103/34
f 64/102/6 93/111/42 92/117/48
f 64/102/6 95/106/37 94/112/43
f 86/97/29 59/157/71 55/139/70
f 73/95/27 75/125/56 80/96/28
f 68/98/30 52/136/67 82/99/31
f 81/104/35 52/136/67 68/98/30
f 70/108/39 51/137/68 87/109/40
f 83/113/44 84/138/69 62/114/45
f 50/116/47 54/129/60 92/117/48
f 49/119/50 53/107/38 89/120/51
f 95/106/37 53/107/38 49/119/50
f 93/111/42 94/112/43 79/123/54
f 88/101/33 90/103/34 75/125/56
f 69/126/57 71/133/64 56/127/58
f 85/130/61 51/137/68 70/108/39
f 67/132/63 61/144/72 71/133/64
f 74/135/66 50/116/47 52/136/67
f 78/122/53 49/119/50 51/137/68
f 91/134/65 54/129/60 50/116/47
f 83/113/44 76/124/55 79/123/54
f 52/136/67 50/116/47 77/118/49
f 51/137/68 49/119/50 72/121/52
f 56/127/58 55/158/70 59/142/71
f 60/105/36 59/157/71 80/96/28
f 69/126/57 58/128/59 60/143/36
f 83/113/44 66/115/46 65/100/32
f 61/144/72 67/132/63 66/115/46
f 63/131/62 62/114/45 84/138/69
f 71/133/64 61/144/72 63/146/62
f 69/126/57 68/150/30 65/152/32
f 71/133/64 70/151/39 57/153/41
f 87/109/40 72/121/52 73/154/27
f 74/135/66 75/125/56 90/103/34
f 93/111/42 76/124/55 77/118/49
f 78/122/53 79/123/54 94/112/43
f 81/104/35 80/96/28 75/125/56
f 76/124/55 83/113/44 82/99/31
f 85/130/61 84/138/69 79/123/54
f 57/110/41 87/109/40 86/155/29
f 72/121/52 89/120/51 88/149/33
f 86/97/29 80/96/28 59/157/71
