# Blender v2.82 (sub 7) OBJ File: 'Bolt01.blend'
# www.blender.org
mtllib Bolt01.mtl
o Bolt01_Cube.001
v -3.042717 0.012581 0.074356
v -1.833714 0.012581 0.074356
v -3.042717 -0.012583 0.074356
v -1.833714 -0.012583 0.074356
v -2.837541 0.012581 0.365362
v -1.833714 0.012581 0.083814
v -2.837541 -0.012583 0.365362
v -1.833714 -0.012583 0.083814
v -3.042717 0.012581 -0.074357
v -1.833714 0.012581 -0.074357
v -3.042717 -0.012583 -0.074357
v -1.833714 -0.012583 -0.074357
v -2.837541 0.012581 -0.365363
v -1.833714 0.012581 -0.083815
v -2.837541 -0.012583 -0.365363
v -1.833714 -0.012583 -0.083815
v -3.067945 0.064733 -0.000001
v 1.251039 0.064735 0.000000
v -3.067945 0.059805 -0.024773
v 1.251039 0.059808 -0.024773
v -3.067945 0.045773 -0.045775
v 1.251039 0.045775 -0.045774
v -3.067945 0.024771 -0.059807
v 1.251039 0.024773 -0.059807
v -3.067945 -0.000001 -0.064735
v 1.251039 0.000001 -0.064734
v -3.067945 -0.024774 -0.059807
v 1.251039 -0.024772 -0.059807
v -3.067945 -0.045776 -0.045775
v 1.251039 -0.045774 -0.045774
v -3.067945 -0.059808 -0.024773
v 1.251039 -0.059806 -0.024773
v -3.067945 -0.064736 -0.000001
v 1.251039 -0.064734 0.000000
v -3.067945 -0.059808 0.024772
v 1.251039 -0.059806 0.024773
v -3.067945 -0.045776 0.045774
v 1.251039 -0.045774 0.045775
v -3.067945 -0.024774 0.059806
v 1.251039 -0.024772 0.059807
v -3.067945 -0.000001 0.064734
v 1.251039 0.000001 0.064735
v -3.067945 0.024771 0.059806
v 1.251039 0.024773 0.059807
v -3.067945 0.045773 0.045774
v 1.251039 0.045775 0.045775
v -3.067945 0.059805 0.024772
v 1.251039 0.059808 0.024773
v 1.173793 0.004742 -0.073291
v 1.173793 -0.004741 -0.073291
v 1.408624 -0.005019 -0.123426
v 1.398341 -0.004950 -0.124732
v 1.398341 0.004951 -0.124732
v 1.408624 0.005021 -0.123426
v 1.173793 -0.061032 -0.040791
v 1.173793 -0.065842 -0.032541
v 1.408611 -0.129182 -0.065337
v 1.408432 -0.134516 -0.057364
v 1.398473 -0.135535 -0.058065
v 1.398373 -0.130450 -0.065890
v 1.173793 -0.065842 0.032541
v 1.173793 -0.061032 0.040792
v 1.408432 -0.134516 0.057364
v 1.408611 -0.129182 0.065338
v 1.398373 -0.130450 0.065890
v 1.398473 -0.135535 0.058066
v 1.173793 -0.004741 0.073291
v 1.173793 0.004742 0.073291
v 1.408624 -0.005019 0.123426
v 1.408624 0.005021 0.123426
v 1.398341 0.004951 0.124732
v 1.398341 -0.004950 0.124732
v 1.173793 0.061033 0.040792
v 1.173793 0.065843 0.032541
v 1.408611 0.129184 0.065338
v 1.408432 0.134517 0.057364
v 1.398474 0.135537 0.058066
v 1.398373 0.130452 0.065890
v 1.173793 0.065843 -0.032541
v 1.173793 0.061033 -0.040791
v 1.408432 0.134517 -0.057364
v 1.408611 0.129184 -0.065337
v 1.398373 0.130452 -0.065890
v 1.398473 0.135537 -0.058065
v 1.624356 -0.015216 -0.003215
v 1.624356 -0.010273 -0.011639
v 1.624356 -0.004834 -0.014779
v 1.624356 0.004836 -0.014779
v 1.624356 -0.010273 0.011639
v 1.624356 -0.015216 0.003215
v 1.624356 0.004836 0.014779
v 1.624356 -0.004834 0.014779
v 1.624356 0.015217 0.003215
v 1.624356 0.010275 0.011639
v 1.624356 0.010275 -0.011639
v 1.624356 0.015217 -0.003215
vt 0.625000 0.000000
vt 0.375000 0.250000
vt 0.375000 0.000000
vt 0.625000 0.250000
vt 0.375000 0.500000
vt 0.625000 0.500000
vt 0.375000 0.750000
vt 0.625000 0.750000
vt 0.625000 1.000000
vt 0.375000 1.000000
vt 0.125000 0.500000
vt 0.125000 0.750000
vt 0.875000 0.500000
vt 0.875000 0.750000
vt 0.375000 0.250000
vt 0.625000 0.000000
vt 0.375000 0.000000
vt 0.625000 0.250000
vt 0.375000 0.500000
vt 0.625000 0.500000
vt 0.375000 0.750000
vt 0.625000 0.750000
vt 0.625000 1.000000
vt 0.375000 1.000000
vt 0.125000 0.750000
vt 0.125000 0.500000
vt 0.875000 0.500000
vt 0.875000 0.750000
vt 1.000000 1.000000
vt 0.937500 0.500000
vt 1.000000 0.500000
vt 0.937500 1.000000
vt 0.875000 0.500000
vt 0.875000 1.000000
vt 0.812500 0.500000
vt 0.812500 1.000000
vt 0.750000 0.500000
vt 0.750000 1.000000
vt 0.687500 0.500000
vt 0.687500 1.000000
vt 0.625000 0.500000
vt 0.625000 1.000000
vt 0.562500 0.500000
vt 0.562500 1.000000
vt 0.500000 0.500000
vt 0.500000 1.000000
vt 0.437500 0.500000
vt 0.437500 1.000000
vt 0.375000 0.500000
vt 0.375000 1.000000
vt 0.312500 0.500000
vt 0.312500 1.000000
vt 0.250000 0.500000
vt 0.250000 1.000000
vt 0.187500 0.500000
vt 0.187500 1.000000
vt 0.125000 0.500000
vt 0.125000 1.000000
vt 0.062500 0.500000
vt 0.062500 1.000000
vt 0.000000 0.500000
vt 0.000000 1.000000
vt 0.419706 0.419706
vt 0.080294 0.419706
vt 0.080294 0.080294
vt 0.341844 0.471731
vt 0.250000 0.490000
vt 0.158156 0.471731
vt 0.028269 0.341844
vt 0.010000 0.250000
vt 0.028269 0.158156
vt 0.158156 0.028269
vt 0.250000 0.010000
vt 0.341844 0.028269
vt 0.419706 0.080294
vt 0.471731 0.158156
vt 0.490000 0.250000
vt 0.471731 0.341844
vt 0.658156 0.471731
vt 0.971731 0.341844
vt 0.841844 0.028269
vt 0.750000 0.490000
vt 0.841844 0.471731
vt 0.919706 0.419706
vt 0.990000 0.250000
vt 0.971731 0.158156
vt 0.919706 0.080294
vt 0.750000 0.010000
vt 0.658156 0.028269
vt 0.580294 0.080294
vt 0.528269 0.158156
vt 0.510000 0.250000
vt 0.528269 0.341844
vt 0.580294 0.419706
vt 0.154490 0.500000
vt 0.006461 0.856384
vt 0.012001 0.500000
vt 0.825384 0.867747
vt 0.719506 1.000000
vt 0.674615 0.867747
vt 0.506879 0.867863
vt 0.612531 1.000000
vt 0.552958 1.000000
vt 0.493121 0.867863
vt 0.387469 1.000000
vt 0.340318 0.867858
vt 0.321336 0.500000
vt 0.174130 0.856583
vt 0.178664 0.500000
vt 0.325384 0.867747
vt 0.219506 1.000000
vt 0.174615 0.867747
vt 0.993121 0.867863
vt 0.887469 1.000000
vt 0.840318 0.867858
vt 0.993538 0.856385
vt 0.845510 0.500000
vt 0.987999 0.500000
vt 0.654490 0.500000
vt 0.506462 0.856384
vt 0.512001 0.500000
vt 0.109665 0.091022
vt 0.390334 0.408978
vt 0.109666 0.408978
vt 0.006879 0.867863
vt 0.112531 1.000000
vt 0.052958 1.000000
vt 0.493538 0.856385
vt 0.345510 0.500000
vt 0.487999 0.500000
vt 0.825870 0.856583
vt 0.678664 0.500000
vt 0.821336 0.500000
vt 0.993419 0.864830
vt 1.000000 0.868441
vt 0.839846 0.856413
vt 0.660154 0.856413
vt 0.674130 0.856583
vt 0.339846 0.856413
vt 0.160154 0.856413
vt -0.000000 0.500000
vt 0.659682 0.867858
vt 0.325870 0.856583
vt 0.159682 0.867858
vt 0.280494 1.000000
vt 0.780494 1.000000
vt -0.000000 0.868441
vt 0.557339 0.378767
vt 0.942661 0.121233
vt 0.557339 0.121233
vt 0.447042 1.000000
vt 0.947042 1.000000
vt 0.457846 0.206088
vt 0.457846 0.293912
vt 0.316043 0.451870
vt 0.183957 0.451870
vt 0.042154 0.293912
vt 0.042154 0.206088
vt 0.183957 0.048130
vt 0.316043 0.048130
vt 0.390334 0.091022
vt 1.000000 0.864830
vt -0.000000 0.855579
vt -0.000000 1.000000
vt 0.735033 0.481359
vt 0.764966 0.481359
vt 0.942661 0.378767
vt 0.957846 0.352724
vt 0.957846 0.147276
vt 0.764966 0.018641
vt 0.735033 0.018641
vt 0.542154 0.147276
vt 0.542154 0.352724
vn 0.0000 0.0000 -1.0000
vn -0.0000 -1.0000 -0.0000
vn 0.2701 0.0000 0.9628
vn -0.0000 1.0000 0.0000
vn -0.8173 0.0000 0.5762
vn 1.0000 0.0000 0.0000
vn -0.0000 0.0000 1.0000
vn 0.2701 0.0000 -0.9628
vn -0.8173 0.0000 -0.5762
vn -0.0000 0.9239 -0.3827
vn -0.0000 0.7071 -0.7071
vn -0.0000 0.3827 -0.9239
vn 0.0000 -0.3827 -0.9239
vn 0.0000 -0.7071 -0.7071
vn 0.0000 -0.9239 -0.3827
vn 0.0000 -0.9239 0.3827
vn 0.0000 -0.7071 0.7071
vn 0.0000 -0.3827 0.9239
vn -0.0000 0.3827 0.9239
vn -0.0000 0.7071 0.7071
vn -0.0000 0.9239 0.3827
vn -1.0000 -0.0000 0.0000
vn -1.0000 0.0001 0.0000
vn -1.0000 -0.0001 0.0000
vn -0.7484 0.4489 -0.4883
vn -0.0526 0.2150 -0.9752
vn -0.7315 0.1830 -0.6568
vn 0.3124 -0.9099 -0.2728
vn 0.8340 -0.5346 0.1365
vn 0.3124 -0.9099 0.2728
vn 0.2802 -0.2058 0.9376
vn 0.8201 -0.3819 0.4261
vn 0.8081 -0.1646 0.5655
vn 0.2802 0.2058 0.9376
vn 0.8201 0.3819 0.4261
vn 0.3019 0.6303 0.7153
vn -0.7649 0.6225 0.1654
vn -0.0957 0.9531 -0.2873
vn -0.7649 0.6226 -0.1654
vn 0.3124 0.9099 0.2728
vn 0.8340 0.5346 -0.1365
vn 0.3124 0.9099 -0.2728
vn 0.2802 -0.2058 -0.9376
vn 0.8201 -0.3819 -0.4261
vn 0.3019 -0.6303 -0.7153
vn -0.0526 -0.2150 -0.9752
vn -0.7484 -0.4489 -0.4883
vn -0.7315 -0.1830 -0.6568
vn -0.7484 -0.4489 0.4883
vn -0.0526 -0.2150 0.9752
vn -0.7315 -0.1830 0.6568
vn 0.8201 0.3819 -0.4261
vn 0.2802 0.2058 -0.9376
vn 0.8081 0.1646 -0.5655
vn -0.0526 0.2150 0.9752
vn -0.7484 0.4489 0.4883
vn -0.7315 0.1830 0.6568
vn -0.0957 -0.9531 -0.2873
vn -0.7649 -0.6225 0.1654
vn -0.7649 -0.6226 -0.1654
vn -0.0805 -0.6670 -0.7407
vn -0.0805 -0.6670 0.7407
vn -0.0957 -0.9531 0.2873
vn -0.0805 0.6670 0.7407
vn -0.0805 0.6670 -0.7407
vn 0.3019 -0.6303 0.7153
vn -0.0957 0.9531 0.2873
vn 0.3019 0.6303 -0.7153
vn 0.8340 0.5346 0.1365
vn 0.8340 -0.5346 -0.1365
vn 0.8081 0.1646 0.5655
vn 0.8081 -0.1646 -0.5655
usemtl DarkRed_Bolt01
s 1
f 2/1/1 3/2/1 1/3/1
f 2/1/1 4/4/1 3/2/1
s 2
f 4/4/2 7/5/2 3/2/2
f 4/4/2 8/6/2 7/5/2
s 3
f 8/6/3 5/7/3 7/5/3
f 8/6/3 6/8/3 5/7/3
s 4
f 5/7/4 2/9/4 1/10/4
f 5/7/4 6/8/4 2/9/4
s 5
f 3/11/5 5/7/5 1/12/5
f 3/11/5 7/5/5 5/7/5
s 6
f 4/13/6 6/8/6 8/6/6
f 4/13/6 2/14/6 6/8/6
s 7
f 11/15/7 10/16/7 9/17/7
f 11/15/7 12/18/7 10/16/7
s 8
f 15/19/2 12/18/2 11/15/2
f 15/19/2 16/20/2 12/18/2
s 9
f 13/21/8 16/20/8 15/19/8
f 13/21/8 14/22/8 16/20/8
s 10
f 13/21/4 10/23/4 14/22/4
f 13/21/4 9/24/4 10/23/4
s 11
f 9/25/9 15/19/9 11/26/9
f 9/25/9 13/21/9 15/19/9
s 12
f 14/22/6 12/27/6 16/20/6
f 14/22/6 10/28/6 12/27/6
usemtl DarkBrown_Bolt01
s 13
f 18/29/4 19/30/10 17/31/4
f 20/32/10 21/33/11 19/30/10
f 22/34/11 23/35/12 21/33/11
f 24/36/12 25/37/1 23/35/12
f 26/38/1 27/39/13 25/37/1
f 28/40/13 29/41/14 27/39/13
f 30/42/14 31/43/15 29/41/14
f 32/44/15 33/45/2 31/43/15
f 34/46/2 35/47/16 33/45/2
f 36/48/16 37/49/17 35/47/16
f 38/50/17 39/51/18 37/49/17
f 40/52/18 41/53/7 39/51/18
f 42/54/7 43/55/19 41/53/7
f 44/56/19 45/57/20 43/55/19
f 46/58/20 47/59/21 45/57/20
f 48/60/21 17/61/4 47/59/21
f 18/29/4 20/32/10 19/30/10
f 20/32/10 22/34/11 21/33/11
f 22/34/11 24/36/12 23/35/12
f 24/36/12 26/38/1 25/37/1
f 26/38/1 28/40/13 27/39/13
f 28/40/13 30/42/14 29/41/14
f 30/42/14 32/44/15 31/43/15
f 32/44/15 34/46/2 33/45/2
f 34/46/2 36/48/16 35/47/16
f 36/48/16 38/50/17 37/49/17
f 38/50/17 40/52/18 39/51/18
f 40/52/18 42/54/7 41/53/7
f 42/54/7 44/56/19 43/55/19
f 44/56/19 46/58/20 45/57/20
f 46/58/20 48/60/21 47/59/21
f 48/60/21 18/62/4 17/61/4
s 14
f 22/63/6 46/64/6 38/65/6
f 22/63/6 20/66/6 46/64/6
f 20/66/6 18/67/6 46/64/6
f 18/67/6 48/68/6 46/64/6
f 46/64/6 44/69/6 38/65/6
f 44/69/6 42/70/6 38/65/6
f 42/70/6 40/71/6 38/65/6
f 38/65/6 36/72/6 34/73/6
f 34/73/6 32/74/6 30/75/6
f 30/75/6 28/76/6 26/77/6
f 26/77/6 24/78/6 22/63/6
f 38/65/6 34/73/6 30/75/6
f 30/75/6 26/77/6 38/65/6
f 26/77/6 22/63/6 38/65/6
s 15
f 47/79/22 23/80/22 31/81/22
f 47/79/22 17/82/22 19/83/22
f 19/83/22 21/84/22 23/80/22
f 23/80/22 25/85/22 27/86/22
f 27/86/22 29/87/23 31/81/22
f 31/81/22 33/88/22 35/89/22
f 35/89/22 37/90/24 39/91/22
f 39/91/22 41/92/22 43/93/22
f 43/93/22 45/94/22 47/79/22
f 47/79/22 19/83/22 23/80/22
f 23/80/22 27/86/22 31/81/22
f 31/81/22 35/89/22 39/91/22
f 39/91/22 43/93/22 31/81/22
f 43/93/22 47/79/22 31/81/22
usemtl Gray_Bolt01
s 16
f 80/95/25 53/96/26 49/97/27
f 58/98/28 90/99/29 63/100/30
f 69/101/31 89/102/32 92/103/33
f 70/104/34 94/105/35 75/106/36
f 74/107/37 84/108/38 79/109/39
f 76/110/40 96/111/41 81/112/42
f 51/113/43 86/114/44 57/115/45
f 52/116/46 55/117/47 50/118/48
f 62/119/49 72/120/50 67/121/51
f 94/122/35 86/123/44 95/124/52
f 54/125/53 95/126/52 88/127/54
f 71/128/55 73/129/56 68/130/57
f 59/131/58 61/132/59 56/133/60
f 52/134/46 54/135/53 51/113/43
f 58/98/28 60/136/61 57/115/45
f 63/100/30 65/137/62 66/138/63
f 70/104/34 72/120/50 69/101/31
f 76/110/40 78/139/64 75/106/36
f 81/112/42 83/140/65 84/108/38
f 52/116/46 57/115/45 60/136/61
f 53/96/26 50/141/48 49/97/27
f 56/133/60 60/136/61 59/131/58
f 66/138/63 58/98/28 63/100/30
f 65/137/62 61/132/59 66/138/63
f 72/120/50 64/142/66 69/101/31
f 68/130/57 72/120/50 71/128/55
f 71/128/55 75/106/36 78/139/64
f 74/107/37 78/139/64 77/143/67
f 77/143/67 81/112/42 84/108/38
f 83/140/65 79/109/39 84/108/38
f 53/96/26 82/144/68 54/125/53
f 92/103/33 70/104/34 69/101/31
f 93/145/69 75/106/36 94/105/35
f 57/115/45 85/146/70 58/98/28
f 64/142/66 90/99/29 89/102/32
f 82/144/68 96/111/41 95/126/52
f 88/127/54 51/147/43 54/125/53
f 80/148/25 62/149/49 73/150/56
f 80/95/25 83/140/65 53/96/26
f 58/98/28 85/146/70 90/99/29
f 69/101/31 64/142/66 89/102/32
f 70/104/34 91/151/71 94/105/35
f 74/107/37 77/143/67 84/108/38
f 76/110/40 93/145/69 96/111/41
f 51/113/43 87/152/72 86/114/44
f 52/116/46 60/136/61 55/117/47
f 62/119/49 65/137/62 72/120/50
f 90/153/29 85/154/70 86/123/44
f 86/123/44 87/155/72 88/156/54
f 88/156/54 95/124/52 86/123/44
f 95/124/52 96/157/41 94/122/35
f 96/157/41 93/158/69 94/122/35
f 94/122/35 91/159/71 92/160/33
f 92/160/33 89/161/32 94/122/35
f 89/161/32 90/153/29 86/123/44
f 94/122/35 89/161/32 86/123/44
f 54/125/53 82/144/68 95/126/52
f 71/128/55 78/139/64 73/129/56
f 59/131/58 66/138/63 61/132/59
f 52/134/46 53/162/26 54/135/53
f 58/98/28 59/131/58 60/136/61
f 63/100/30 64/142/66 65/137/62
f 70/104/34 71/128/55 72/120/50
f 76/110/40 77/143/67 78/139/64
f 81/112/42 82/144/68 83/140/65
f 52/116/46 51/113/43 57/115/45
f 53/96/26 52/163/46 50/141/48
f 56/133/60 55/117/47 60/136/61
f 66/138/63 59/131/58 58/98/28
f 65/137/62 62/119/49 61/132/59
f 72/120/50 65/137/62 64/142/66
f 68/130/57 67/121/51 72/120/50
f 71/128/55 70/104/34 75/106/36
f 74/107/37 73/129/56 78/139/64
f 77/143/67 76/110/40 81/112/42
f 83/140/65 80/95/25 79/109/39
f 53/96/26 83/140/65 82/144/68
f 92/103/33 91/151/71 70/104/34
f 93/145/69 76/110/40 75/106/36
f 57/115/45 86/114/44 85/146/70
f 64/142/66 63/100/30 90/99/29
f 82/144/68 81/112/42 96/111/41
f 88/127/54 87/164/72 51/147/43
f 80/148/25 49/165/27 50/166/48
f 50/166/48 55/167/47 80/148/25
f 55/167/47 56/168/60 62/149/49
f 80/148/25 55/167/47 62/149/49
f 56/168/60 61/169/59 62/149/49
f 62/149/49 67/170/51 68/171/57
f 68/171/57 73/150/56 62/149/49
f 73/150/56 74/172/37 80/148/25
f 74/172/37 79/173/39 80/148/25
