# Blender v2.90.0 OBJ File: 'Cone_01.blend'
# www.blender.org
mtllib Cone_01.mtl
o Cone_01_Cylinder
v 0.000000 -0.703341 -0.616529
v 0.000000 1.296659 -0.200000
v 0.435952 -0.703341 -0.435952
v 0.141421 1.296659 -0.141421
v 0.616529 -0.703341 0.000000
v 0.200000 1.296659 0.000000
v 0.435952 -0.703341 0.435952
v 0.141421 1.296659 0.141421
v -0.000000 -0.703341 0.616529
v -0.000000 1.296659 0.200000
v -0.435952 -0.703341 0.435952
v -0.141421 1.296659 0.141421
v -0.616529 -0.703341 -0.000000
v -0.200000 1.296659 -0.000000
v -0.435952 -0.703341 -0.435952
v -0.141421 1.296659 -0.141421
v 0.000000 -0.710812 -1.298121
v 0.917910 -0.710812 -0.917910
v 1.298121 -0.710812 0.000000
v 0.917910 -0.710812 0.917910
v -0.000000 -0.710812 1.298121
v -0.917910 -0.710812 0.917910
v -1.298121 -0.710812 -0.000000
v -0.917910 -0.710812 -0.917910
v 0.000000 -0.772482 -1.298121
v 0.917910 -0.772482 -0.917910
v 1.298121 -0.772482 0.000000
v 0.917910 -0.772482 0.917910
v -0.000000 -0.772482 1.298121
v -0.917910 -0.772482 0.917910
v -1.298121 -0.772482 -0.000000
v -0.917910 -0.772482 -0.917910
v 0.000000 -0.203341 -0.512396
v 0.000000 0.296659 -0.408264
v 0.000000 0.796659 -0.304132
v 0.215054 0.796659 -0.215054
v 0.288686 0.296659 -0.288686
v 0.362319 -0.203341 -0.362319
v 0.304132 0.796659 0.000000
v 0.408264 0.296659 0.000000
v 0.512396 -0.203341 0.000000
v 0.215054 0.796659 0.215054
v 0.288686 0.296659 0.288686
v 0.362319 -0.203341 0.362319
v -0.000000 0.796659 0.304132
v -0.000000 0.296659 0.408264
v -0.000000 -0.203341 0.512396
v -0.215054 0.796659 0.215054
v -0.288686 0.296659 0.288686
v -0.362319 -0.203341 0.362319
v -0.304132 0.796659 -0.000000
v -0.408264 0.296659 -0.000000
v -0.512396 -0.203341 -0.000000
v -0.215054 0.796659 -0.215054
v -0.288686 0.296659 -0.288686
v -0.362319 -0.203341 -0.362319
vt 0.625000 0.500000
vt 0.750000 0.500000
vt 0.750000 0.500000
vt 0.250000 0.500000
vt 0.375000 0.500000
vt 0.375000 0.500000
vt 0.250000 0.500000
vt 0.375000 0.500000
vt 0.500000 0.500000
vt 0.625000 0.500000
vt 0.125000 0.500000
vt 0.875000 0.500000
vt 0.875000 0.500000
vt 0.500000 0.500000
vt 0.000000 0.500000
vt 0.125000 0.500000
vt 1.000000 0.500000
vt 1.000000 0.500000
vt 0.580294 0.419706
vt 0.919706 0.419706
vt 0.919706 0.080294
vt 0.625000 0.500000
vt 0.875000 0.500000
vt 0.250000 0.500000
vt 0.500000 0.500000
vt 0.750000 0.500000
vt 1.000000 0.500000
vt 0.000000 0.500000
vt 0.125000 0.500000
vt 0.125000 0.625000
vt 0.125000 0.750000
vt 0.000000 0.875000
vt 0.000000 0.750000
vt 0.250000 0.625000
vt 0.250000 0.875000
vt 0.250000 0.750000
vt 0.375000 0.625000
vt 0.375000 0.875000
vt 0.375000 0.750000
vt 0.500000 0.625000
vt 0.500000 0.875000
vt 0.500000 0.750000
vt 0.625000 0.625000
vt 0.625000 0.875000
vt 0.625000 0.750000
vt 0.750000 0.625000
vt 0.750000 0.750000
vt 0.875000 0.625000
vt 0.875000 0.875000
vt 0.875000 0.750000
vt 1.000000 0.625000
vt 1.000000 0.875000
vt 1.000000 0.750000
vt 0.750000 0.490000
vt 0.990000 0.250000
vt 0.750000 0.010000
vt 0.580294 0.080294
vt 0.510000 0.250000
vt 0.000000 0.500000
vt 0.000000 0.625000
vt 0.125000 0.875000
vt 0.750000 0.875000
vt 1.000000 1.000000
vt 0.875000 1.000000
vt 0.625000 1.000000
vt 0.500000 1.000000
vt 0.375000 1.000000
vt 0.250000 0.010000
vt 0.419706 0.080294
vt 0.490000 0.250000
vt 0.250000 1.000000
vt 0.125000 1.000000
vt 0.750000 1.000000
vt 0.419706 0.419706
vt 0.250000 0.490000
vt 0.080294 0.419706
vt 0.010000 0.250000
vt 0.080294 0.080294
vt 0.000000 1.000000
vn 0.0110 0.9999 0.0045
vn -0.9239 0.0000 0.3827
vn -0.0110 0.9999 0.0045
vn 0.0045 0.9999 0.0110
vn -0.0110 0.9999 -0.0045
vn 0.0110 0.9999 -0.0045
vn -0.0045 0.9999 0.0110
vn -0.0045 0.9999 -0.0110
vn 0.0045 0.9999 -0.0110
vn 0.0000 -1.0000 0.0000
vn 0.3827 0.0000 0.9239
vn 0.9239 0.0000 -0.3827
vn -0.9239 0.0000 -0.3827
vn -0.3827 0.0000 0.9239
vn 0.9239 0.0000 0.3827
vn 0.3827 0.0000 -0.9239
vn -0.3827 0.0000 -0.9239
vn -0.3758 0.1889 -0.9072
vn -0.9072 0.1889 -0.3758
vn -0.9072 0.1889 0.3758
vn -0.3758 0.1889 0.9072
vn 0.3758 0.1889 0.9072
vn 0.9072 0.1889 0.3758
vn 0.9072 0.1889 -0.3758
vn 0.3758 0.1889 -0.9072
vn 0.0000 1.0000 -0.0000
usemtl RedCone
s off
f 7/1/1 19/2/1 5/3/1
f 23/4/2 30/5/2 22/6/2
f 13/7/3 22/6/3 11/8/3
f 9/9/4 20/10/4 7/1/4
f 15/11/5 23/4/5 13/7/5
f 5/3/6 18/12/6 3/13/6
f 11/8/7 21/14/7 9/9/7
f 1/15/8 24/16/8 15/11/8
f 1/17/9 18/12/9 17/18/9
f 32/19/10 26/20/10 28/21/10
f 21/14/11 28/22/11 20/10/11
f 19/2/12 26/23/12 18/12/12
f 24/16/13 31/24/13 23/4/13
f 22/6/14 29/25/14 21/14/14
f 20/10/15 27/26/15 19/2/15
f 18/12/16 25/27/16 17/18/16
f 17/28/17 32/29/17 24/16/17
f 56/30/18 1/15/18 15/11/18
f 55/31/18 35/32/18 34/33/18
f 53/34/19 15/11/19 13/7/19
f 51/35/19 55/31/19 52/36/19
f 50/37/20 13/7/20 11/8/20
f 48/38/20 52/36/20 49/39/20
f 47/40/21 11/8/21 9/9/21
f 45/41/21 49/39/21 46/42/21
f 44/43/22 9/9/22 7/1/22
f 42/44/22 46/42/22 43/45/22
f 41/46/23 7/1/23 5/3/23
f 40/47/23 42/44/23 43/45/23
f 38/48/24 5/3/24 3/13/24
f 36/49/24 40/47/24 37/50/24
f 33/51/25 3/13/25 1/17/25
f 35/52/25 37/50/25 34/53/25
f 7/1/1 20/10/1 19/2/1
f 23/4/2 31/24/2 30/5/2
f 13/7/3 23/4/3 22/6/3
f 9/9/4 21/14/4 20/10/4
f 15/11/5 24/16/5 23/4/5
f 5/3/6 19/2/6 18/12/6
f 11/8/7 22/6/7 21/14/7
f 1/15/8 17/28/8 24/16/8
f 1/17/9 3/13/9 18/12/9
f 32/19/10 25/54/10 26/20/10
f 26/20/10 27/55/10 28/21/10
f 28/21/10 29/56/10 30/57/10
f 30/57/10 31/58/10 28/21/10
f 31/58/10 32/19/10 28/21/10
f 21/14/11 29/25/11 28/22/11
f 19/2/12 27/26/12 26/23/12
f 24/16/13 32/29/13 31/24/13
f 22/6/14 30/5/14 29/25/14
f 20/10/15 28/22/15 27/26/15
f 18/12/16 26/23/16 25/27/16
f 17/28/17 25/59/17 32/29/17
f 56/30/18 33/60/18 1/15/18
f 55/31/18 54/61/18 35/32/18
f 53/34/19 56/30/19 15/11/19
f 51/35/19 54/61/19 55/31/19
f 50/37/20 53/34/20 13/7/20
f 48/38/20 51/35/20 52/36/20
f 47/40/21 50/37/21 11/8/21
f 45/41/21 48/38/21 49/39/21
f 44/43/22 47/40/22 9/9/22
f 42/44/22 45/41/22 46/42/22
f 41/46/23 44/43/23 7/1/23
f 40/47/23 39/62/23 42/44/23
f 38/48/24 41/46/24 5/3/24
f 36/49/24 39/62/24 40/47/24
f 33/51/25 38/48/25 3/13/25
f 35/52/25 36/49/25 37/50/25
usemtl WhiteCone
f 2/63/25 36/49/25 35/52/25
f 4/64/24 39/62/24 36/49/24
f 39/62/23 8/65/23 42/44/23
f 8/65/22 45/41/22 42/44/22
f 10/66/21 48/38/21 45/41/21
f 12/67/20 51/35/20 48/38/20
f 10/68/26 8/69/26 6/70/26
f 14/71/19 54/61/19 51/35/19
f 16/72/18 35/32/18 54/61/18
f 55/31/18 33/60/18 56/30/18
f 52/36/19 56/30/19 53/34/19
f 49/39/20 53/34/20 50/37/20
f 46/42/21 50/37/21 47/40/21
f 43/45/22 47/40/22 44/43/22
f 40/47/23 44/43/23 41/46/23
f 38/48/24 40/47/24 41/46/24
f 34/53/25 38/48/25 33/51/25
f 2/63/25 4/64/25 36/49/25
f 4/64/24 6/73/24 39/62/24
f 39/62/23 6/73/23 8/65/23
f 8/65/22 10/66/22 45/41/22
f 10/66/21 12/67/21 48/38/21
f 12/67/20 14/71/20 51/35/20
f 6/70/26 4/74/26 2/75/26
f 2/75/26 16/76/26 6/70/26
f 16/76/26 14/77/26 6/70/26
f 14/77/26 12/78/26 6/70/26
f 12/78/26 10/68/26 6/70/26
f 14/71/19 16/72/19 54/61/19
f 16/72/18 2/79/18 35/32/18
f 55/31/18 34/33/18 33/60/18
f 52/36/19 55/31/19 56/30/19
f 49/39/20 52/36/20 53/34/20
f 46/42/21 49/39/21 50/37/21
f 43/45/22 46/42/22 47/40/22
f 40/47/23 43/45/23 44/43/23
f 38/48/24 37/50/24 40/47/24
f 34/53/25 37/50/25 38/48/25
