# Blender v2.90.0 OBJ File: 'MailBox.blend'
# www.blender.org
mtllib MailBox.mtl
o MailBox_Cylinder.017
v -2.453411 4.017747 -0.068290
v -2.453412 3.621250 -1.288585
v -2.453412 2.283059 -2.042768
v -2.453412 0.883366 -2.042768
v -2.453412 -3.111246 2.265043
v -2.453412 -3.111245 -2.401624
v -2.453411 0.883366 1.906188
v -2.453411 2.283060 1.906188
v -2.453411 3.621250 1.152003
v -1.933044 3.926511 -1.510370
v -1.933044 2.399658 -2.401624
v -1.933044 0.883366 -2.401624
v -1.933044 -3.111246 2.265043
v -1.933044 -3.111245 -2.401624
v -1.933043 0.883366 2.265043
v -1.933043 2.399659 2.265043
v -1.933043 3.926511 1.373788
v -1.933043 4.395071 -0.068290
v -1.933043 1.816259 1.675847
v -1.933043 3.343111 0.784592
v -2.453411 4.395071 -0.068290
v -2.453412 3.926511 -1.510370
v -2.453412 2.399658 -2.401624
v -2.453412 0.883366 -2.401624
v -2.453411 0.883366 2.265043
v -2.453412 -2.752390 -2.042768
v -2.453411 2.399659 2.265043
v -2.453412 -2.752390 1.906188
v -2.453411 3.926511 1.373788
v -2.142276 0.883366 -2.042768
v -2.142276 0.883366 1.906188
v -2.142276 -2.752390 1.906188
v -2.142277 -2.752390 -2.042768
v -2.142276 4.017747 -0.068290
v -2.142277 3.621250 -1.288585
v -2.142276 2.283059 -2.042768
v -2.142276 2.283060 1.906188
v -2.142276 3.621250 1.152003
v -1.933044 0.883366 -2.019527
v -1.933044 -3.111245 1.882947
v -1.933044 -3.111245 -2.019527
v -1.933043 0.883366 1.882947
v -2.453412 -2.752390 1.708740
v -2.453412 -3.111246 1.885813
v -2.142276 0.883366 1.708740
v -2.142276 -2.752390 1.708740
v -2.453412 -2.752390 -1.667617
v -2.453412 -3.111246 -2.000201
v -2.142277 -2.752390 -1.667617
v -2.142276 0.883366 -1.667617
v -1.933043 -5.155732 2.265043
v -2.453411 -5.155732 2.265043
v -1.933044 -5.155732 -2.401624
v -2.453411 -5.155732 -2.401624
v -1.933044 -5.155732 -2.019527
v -1.933043 -5.155732 1.882947
v -2.453411 -5.155732 -2.000201
v -2.453411 -5.155733 1.885813
v 2.453413 4.017747 -0.068290
v 2.453413 3.621250 -1.288585
v 2.453412 2.283059 -2.042768
v 2.453412 0.883366 -2.042768
v 2.453412 -3.111246 2.265043
v 2.453412 -3.111245 -2.401624
v 2.453413 0.883366 1.906187
v 2.453413 2.283060 1.906187
v 2.453413 3.621250 1.152003
v 0.000001 4.395071 -0.068290
v 0.000001 3.926511 -1.510370
v 0.000000 2.399658 -2.401624
v 0.000000 0.883366 -2.401624
v 0.000000 -3.111245 -2.401624
v 0.000001 0.883366 2.265043
v 0.000001 2.399659 2.265043
v 0.000001 3.926511 1.373788
v 1.933045 3.926511 -1.510370
v 1.933044 2.399658 -2.401624
v 1.933044 0.883366 -2.401624
v 1.933044 -3.111245 -2.401624
v 1.933045 0.883366 2.265043
v 1.933045 2.399659 2.265043
v 1.933045 3.926511 1.373788
v 1.933045 4.395071 -0.068291
v 0.000001 1.816258 1.675847
v 0.000001 3.343111 0.784592
v 1.933045 1.816258 1.675847
v 1.933045 3.343111 0.784592
v 2.453413 4.395071 -0.068291
v 2.453413 3.926511 -1.510370
v 2.453412 2.399658 -2.401624
v 2.453412 0.883366 -2.401624
v 2.453413 0.883366 2.265043
v 2.453412 -2.752390 -2.042768
v 2.453413 2.399659 2.265043
v 2.453412 -2.752390 1.906187
v 2.453413 3.926511 1.373788
v 2.142277 0.883366 -2.042768
v 2.142277 0.883366 1.906187
v 2.142277 -2.752390 1.906187
v 2.142277 -2.752390 -2.042768
v 2.142277 4.017747 -0.068290
v 2.142277 3.621250 -1.288585
v 2.142277 2.283059 -2.042768
v 2.142277 2.283060 1.906187
v 2.142277 3.621250 1.152003
v 0.000001 0.883366 1.882946
v 0.000000 0.883366 -2.019527
v 0.000000 -3.111245 -2.019527
v 1.933044 0.883366 -2.019527
v 1.933044 -3.111245 1.882946
v 1.933044 -3.111245 -2.019527
v 1.933045 0.883366 1.882946
v 2.453412 -2.752390 1.708740
v 2.453412 -3.111246 1.885813
v 2.142277 0.883366 1.708740
v 2.142277 -2.752390 1.708740
v 2.453412 -2.752390 -1.667618
v 2.453412 -3.111246 -2.000201
v 2.142277 -2.752390 -1.667618
v 2.142277 0.883366 -1.667617
v 1.933044 -5.155732 2.265043
v 2.453412 -5.155732 2.265043
v 1.933044 -5.155732 -2.401624
v 2.453412 -5.155732 -2.401624
v 1.933044 -5.155732 -2.019527
v 1.933044 -5.155732 1.882946
v 2.453412 -5.155732 -2.000201
v 2.453412 -5.155733 1.885813
v 1.933044 -3.111246 2.265043
v 0.000000 -3.111246 2.265043
v 0.000000 -3.111245 1.882946
vt 0.300000 0.500000
vt 0.300000 0.553025
vt 0.300000 0.553025
vt 0.669241 0.500000
vt 0.669241 0.500000
vt 0.669241 0.500000
vt 0.149750 0.500000
vt 0.230333 0.500000
vt 0.230333 0.500000
vt 0.100000 0.750000
vt -0.000000 0.553025
vt 0.100000 0.553025
vt 0.200000 0.750000
vt 0.200000 0.553025
vt 0.200000 0.553025
vt 0.300000 0.750000
vt 0.700000 0.750000
vt 0.700000 0.553025
vt 0.700000 0.553025
vt 0.800000 0.750000
vt 0.800000 0.553025
vt 0.900000 0.750000
vt 0.900000 0.553025
vt 1.000000 0.750000
vt 1.000000 0.553025
vt 0.900000 0.500000
vt 1.000000 0.500000
vt 0.800000 0.500000
vt 0.700000 0.500000
vt 0.700000 0.500000
vt 0.200000 0.500000
vt 0.100000 0.500000
vt -0.000000 0.500000
vt 0.000000 0.000000
vt 0.000000 0.000000
vt 0.000000 0.000000
vt 0.200000 0.750000
vt 0.100000 0.553025
vt 0.100000 0.750000
vt 0.159783 0.500000
vt 0.742649 0.500000
vt 0.751448 0.500000
vt 0.330759 0.500000
vt 0.330759 0.500000
vt 0.665592 0.500000
vt 0.637085 0.500000
vt 0.751448 0.500000
vt 0.637085 0.500000
vt 0.159783 0.500000
vt 0.330759 0.500000
vt 0.347683 0.500000
vt 0.347683 0.500000
vt 0.742649 0.500000
vt 0.347683 0.500000
vt 0.149750 0.500000
vt 0.330759 0.500000
vt 0.700000 0.750000
vt 0.700000 0.553025
vt 0.300000 0.553025
vt 0.300000 0.750000
vt 0.300000 0.750000
vt 0.300000 0.553025
vt 0.700000 0.553025
vt 0.000000 0.000000
vt 0.637085 0.500000
vt 0.332505 0.500000
vt 0.300000 0.500000
vt 0.700000 0.553025
vt 0.669241 0.500000
vt 0.000000 0.000000
vt 0.332505 0.500000
vt 0.000000 0.000000
vt 0.000000 0.000000
vt 0.000000 0.000000
vt 0.000000 0.000000
vt 0.000000 0.000000
vt 0.000000 0.000000
vt 0.000000 0.000000
vt 0.700000 0.500000
vt 0.300000 0.500000
vt 0.000000 0.000000
vt 0.300000 0.553025
vt 0.665592 0.500000
vt 0.000000 0.000000
vt 0.300000 0.553025
vt 0.300000 0.500000
vt 0.300000 0.553025
vt 0.669241 0.500000
vt 0.669241 0.500000
vt 0.669241 0.500000
vt 0.230333 0.500000
vt 0.149750 0.500000
vt 0.230333 0.500000
vt -0.000000 0.553025
vt 0.100000 0.553025
vt 0.200000 0.553025
vt 0.200000 0.553025
vt 0.700000 0.553025
vt 0.700000 0.553025
vt 0.800000 0.553025
vt 0.900000 0.553025
vt 1.000000 0.553025
vt 0.900000 0.500000
vt 1.000000 0.500000
vt 0.800000 0.500000
vt 0.700000 0.500000
vt 0.700000 0.500000
vt 0.200000 0.500000
vt 0.100000 0.500000
vt 0.000000 0.000000
vt 0.100000 0.553025
vt 0.159783 0.500000
vt 0.742649 0.500000
vt 0.751448 0.500000
vt 0.330759 0.500000
vt 0.330759 0.500000
vt -0.000000 0.500000
vt 0.665592 0.500000
vt 0.637085 0.500000
vt 0.637085 0.500000
vt 0.159783 0.500000
vt 0.347683 0.500000
vt 0.330759 0.500000
vt 0.347683 0.500000
vt 0.347683 0.500000
vt 0.149750 0.500000
vt 0.742649 0.500000
vt 0.330759 0.500000
vt 0.751448 0.500000
vt 0.700000 0.553025
vt 0.300000 0.553025
vt 0.300000 0.553025
vt 0.700000 0.553025
vt 0.000000 0.000000
vt 0.637085 0.500000
vt 0.332505 0.500000
vt 0.700000 0.553025
vt 0.669241 0.500000
vt 0.000000 0.000000
vt 0.000000 0.000000
vt 0.000000 0.000000
vt 0.000000 0.000000
vt 0.000000 0.000000
vt 0.000000 0.000000
vt 0.000000 0.000000
vt 0.000000 0.000000
vt 0.700000 0.500000
vt 0.300000 0.500000
vt 0.300000 0.500000
vt 0.000000 0.000000
vt 0.300000 0.553025
vt -0.000000 0.750000
vt 0.700000 0.750000
vt 0.700000 0.553025
vt 0.000000 0.000000
vt 0.000000 0.000000
vt 0.000000 0.000000
vt 0.700000 0.553025
vt 0.332505 0.500000
vt 0.000000 0.000000
vt 0.000000 0.000000
vt 0.665592 0.500000
vn 0.0000 0.0000 1.0000
vn 0.0000 -0.4910 -0.8712
vn 0.0000 0.9511 0.3090
vn 0.0000 0.7106 -0.7036
vn -0.0000 -1.0000 -0.0000
vn 0.0000 -0.0000 -1.0000
vn 0.0000 0.5041 -0.8636
vn -0.0000 0.9511 -0.3090
vn 0.0000 0.5041 0.8636
vn 0.0000 1.0000 -0.0000
vn 0.0000 -0.7106 0.7036
vn 1.0000 -0.0000 -0.0000
vn -1.0000 -0.0000 0.0000
vn 0.0000 -0.9511 0.3090
vn 0.0000 -0.9511 -0.3090
vn 0.0000 -0.4910 0.8712
vn -0.0055 -0.0000 -1.0000
vn 0.0371 0.0000 0.9993
vn 0.0055 0.0000 -1.0000
vn -0.0371 0.0000 0.9993
usemtl MailBoxBlue
s off
f 25/1/1 13/2/1 15/3/1
f 26/4/1 30/5/1 4/6/1
f 9/7/2 37/8/2 8/9/2
f 75/10/3 18/11/3 17/12/3
f 74/13/4 19/14/4 16/15/4
f 73/16/1 16/15/1 15/3/1
f 71/17/5 39/18/5 12/19/5
f 70/20/6 12/19/6 11/21/6
f 69/22/7 11/21/7 10/23/7
f 68/24/8 10/23/8 18/25/8
f 18/25/8 22/26/8 21/27/8
f 10/23/7 23/28/7 22/26/7
f 11/21/6 24/29/6 23/28/6
f 12/19/6 6/30/6 24/29/6
f 25/1/1 16/15/1 27/31/1
f 16/15/9 29/32/9 27/31/9
f 29/32/3 18/11/3 21/33/3
f 14/34/10 108/35/10 72/36/10
f 84/37/9 20/38/9 19/14/9
f 17/12/11 85/39/11 75/10/11
f 16/15/12 20/38/12 17/12/12
f 1/40/13 22/26/13 2/41/13
f 2/41/13 23/28/13 3/42/13
f 3/42/13 24/29/13 4/6/13
f 26/4/13 24/29/13 6/30/13
f 28/43/13 25/1/13 7/44/13
f 8/9/13 25/1/13 27/31/13
f 9/7/13 27/31/13 29/32/13
f 9/7/13 21/33/13 1/40/13
f 26/4/13 48/45/13 47/46/13
f 36/47/13 50/48/13 34/49/13
f 32/50/13 45/51/13 46/52/13
f 1/40/14 35/53/14 34/49/14
f 28/43/10 46/52/10 43/54/10
f 1/40/15 38/55/15 9/7/15
f 7/44/6 32/50/6 28/43/6
f 3/42/16 35/53/16 2/41/16
f 8/9/6 31/56/6 7/44/6
f 4/6/1 36/47/1 3/42/1
f 107/57/6 41/58/6 39/18/6
f 42/59/1 131/60/1 106/61/1
f 15/3/12 40/62/12 42/59/12
f 15/3/5 106/61/5 73/16/5
f 14/63/12 39/18/12 41/58/12
f 131/60/5 41/64/5 108/35/5
f 43/54/10 49/65/10 47/46/10
f 49/65/13 45/51/13 50/48/13
f 28/43/13 44/66/13 5/67/13
f 41/58/12 53/68/12 14/63/12
f 49/65/13 30/5/13 33/69/13
f 47/46/10 33/69/10 26/4/10
f 47/46/13 44/66/13 43/54/13
f 44/66/17 56/70/17 58/71/17
f 40/72/5 48/73/5 41/64/5
f 51/74/5 58/75/5 56/70/5
f 55/76/5 54/77/5 53/78/5
f 14/63/6 54/79/6 6/30/6
f 44/66/13 52/80/13 5/67/13
f 13/81/12 56/70/12 40/72/12
f 48/73/18 55/76/18 41/64/18
f 13/2/1 52/80/1 51/82/1
f 48/45/13 54/79/13 57/83/13
f 130/84/10 40/72/10 13/81/10
f 129/85/1 92/86/1 80/87/1
f 97/88/1 93/89/1 62/90/1
f 104/91/2 67/92/2 66/93/2
f 83/94/3 75/10/3 82/95/3
f 86/96/4 74/13/4 81/97/4
f 80/87/1 74/13/1 73/16/1
f 109/98/5 71/17/5 78/99/5
f 78/99/6 70/20/6 77/100/6
f 77/100/7 69/22/7 76/101/7
f 76/101/8 68/24/8 83/102/8
f 89/103/8 83/102/8 88/104/8
f 90/105/7 76/101/7 89/103/7
f 91/106/6 77/100/6 90/105/6
f 64/107/6 78/99/6 91/106/6
f 94/108/1 80/87/1 92/86/1
f 96/109/9 81/97/9 94/108/9
f 96/109/3 83/94/3 82/95/3
f 108/35/10 79/110/10 72/36/10
f 87/111/9 84/37/9 86/96/9
f 85/39/11 82/95/11 75/10/11
f 87/111/13 81/97/13 82/95/13
f 89/103/12 59/112/12 60/113/12
f 90/105/12 60/113/12 61/114/12
f 91/106/12 61/114/12 62/90/12
f 93/89/12 91/106/12 62/90/12
f 92/86/12 95/115/12 65/116/12
f 66/93/12 92/86/12 65/116/12
f 67/92/12 94/108/12 66/93/12
f 88/117/12 67/92/12 59/112/12
f 118/118/12 93/89/12 117/119/12
f 120/120/12 101/121/12 104/91/12
f 115/122/12 99/123/12 116/124/12
f 101/121/14 60/113/14 59/112/14
f 116/124/10 95/115/10 113/125/10
f 105/126/15 59/112/15 67/92/15
f 99/123/6 65/116/6 95/115/6
f 102/127/16 61/114/16 60/113/16
f 98/128/6 66/93/6 65/116/6
f 103/129/1 62/90/1 61/114/1
f 111/130/6 107/57/6 109/98/6
f 131/60/1 112/131/1 106/61/1
f 80/87/13 110/132/13 129/85/13
f 106/61/5 80/87/5 73/16/5
f 79/133/13 109/98/13 78/99/13
f 111/134/5 131/60/5 108/35/5
f 119/135/10 113/125/10 117/119/10
f 119/135/12 115/122/12 116/124/12
f 95/115/12 114/136/12 113/125/12
f 123/137/13 111/130/13 79/133/13
f 97/88/12 119/135/12 100/138/12
f 100/138/10 117/119/10 93/89/10
f 114/136/12 117/119/12 113/125/12
f 114/136/19 126/139/19 110/140/19
f 118/141/5 110/140/5 111/134/5
f 128/142/5 121/143/5 126/139/5
f 124/144/5 125/145/5 123/146/5
f 124/147/6 79/133/6 64/107/6
f 122/148/12 114/136/12 63/149/12
f 126/139/13 129/150/13 110/140/13
f 125/145/20 118/141/20 111/134/20
f 121/151/1 63/149/1 129/85/1
f 118/118/12 124/147/12 64/107/12
f 110/140/10 130/84/10 129/150/10
f 25/1/1 5/67/1 13/2/1
f 26/4/1 33/69/1 30/5/1
f 9/7/2 38/55/2 37/8/2
f 75/10/3 68/152/3 18/11/3
f 74/13/4 84/37/4 19/14/4
f 73/16/1 74/13/1 16/15/1
f 71/17/5 107/57/5 39/18/5
f 70/20/6 71/17/6 12/19/6
f 69/22/7 70/20/7 11/21/7
f 68/24/8 69/22/8 10/23/8
f 18/25/8 10/23/8 22/26/8
f 10/23/7 11/21/7 23/28/7
f 11/21/6 12/19/6 24/29/6
f 12/19/6 14/63/6 6/30/6
f 25/1/1 15/3/1 16/15/1
f 16/15/9 17/12/9 29/32/9
f 29/32/3 17/12/3 18/11/3
f 14/34/10 41/64/10 108/35/10
f 84/37/9 85/39/9 20/38/9
f 17/12/11 20/38/11 85/39/11
f 16/15/12 19/14/12 20/38/12
f 1/40/13 21/33/13 22/26/13
f 2/41/13 22/26/13 23/28/13
f 3/42/13 23/28/13 24/29/13
f 26/4/13 4/6/13 24/29/13
f 28/43/13 5/67/13 25/1/13
f 8/9/13 7/44/13 25/1/13
f 9/7/13 8/9/13 27/31/13
f 9/7/13 29/32/13 21/33/13
f 26/4/13 6/30/13 48/45/13
f 38/55/13 34/49/13 37/8/13
f 34/49/13 35/53/13 36/47/13
f 37/8/13 34/49/13 50/48/13
f 36/47/13 30/5/13 50/48/13
f 50/48/13 45/51/13 37/8/13
f 45/51/13 31/56/13 37/8/13
f 32/50/13 31/56/13 45/51/13
f 1/40/14 2/41/14 35/53/14
f 28/43/10 32/50/10 46/52/10
f 1/40/15 34/49/15 38/55/15
f 7/44/6 31/56/6 32/50/6
f 3/42/16 36/47/16 35/53/16
f 8/9/6 37/8/6 31/56/6
f 4/6/1 30/5/1 36/47/1
f 107/57/6 108/153/6 41/58/6
f 42/59/1 40/62/1 131/60/1
f 15/3/12 13/2/12 40/62/12
f 15/3/5 42/59/5 106/61/5
f 14/63/12 12/19/12 39/18/12
f 131/60/5 40/62/5 41/64/5
f 43/54/10 46/52/10 49/65/10
f 49/65/13 46/52/13 45/51/13
f 28/43/13 43/54/13 44/66/13
f 41/58/12 55/154/12 53/68/12
f 49/65/13 50/48/13 30/5/13
f 47/46/10 49/65/10 33/69/10
f 47/46/13 48/45/13 44/66/13
f 44/66/17 40/72/17 56/70/17
f 40/72/5 44/66/5 48/73/5
f 51/74/5 52/155/5 58/75/5
f 55/76/5 57/156/5 54/77/5
f 14/63/6 53/68/6 54/79/6
f 44/66/13 58/71/13 52/80/13
f 13/81/12 51/74/12 56/70/12
f 48/73/18 57/156/18 55/76/18
f 13/2/1 5/67/1 52/80/1
f 48/45/13 6/30/13 54/79/13
f 130/84/10 131/157/10 40/72/10
f 129/85/1 63/149/1 92/86/1
f 97/88/1 100/138/1 93/89/1
f 104/91/2 105/126/2 67/92/2
f 83/94/3 68/152/3 75/10/3
f 86/96/4 84/37/4 74/13/4
f 80/87/1 81/97/1 74/13/1
f 109/98/5 107/57/5 71/17/5
f 78/99/6 71/17/6 70/20/6
f 77/100/7 70/20/7 69/22/7
f 76/101/8 69/22/8 68/24/8
f 89/103/8 76/101/8 83/102/8
f 90/105/7 77/100/7 76/101/7
f 91/106/6 78/99/6 77/100/6
f 64/107/6 79/133/6 78/99/6
f 94/108/1 81/97/1 80/87/1
f 96/109/9 82/95/9 81/97/9
f 96/109/3 88/117/3 83/94/3
f 108/35/10 111/134/10 79/110/10
f 87/111/9 85/39/9 84/37/9
f 85/39/11 87/111/11 82/95/11
f 87/111/13 86/96/13 81/97/13
f 89/103/12 88/117/12 59/112/12
f 90/105/12 89/103/12 60/113/12
f 91/106/12 90/105/12 61/114/12
f 93/89/12 64/107/12 91/106/12
f 92/86/12 63/149/12 95/115/12
f 66/93/12 94/108/12 92/86/12
f 67/92/12 96/109/12 94/108/12
f 88/117/12 96/109/12 67/92/12
f 118/118/12 64/107/12 93/89/12
f 102/127/12 101/121/12 103/129/12
f 101/121/12 105/126/12 104/91/12
f 103/129/12 101/121/12 120/120/12
f 104/91/12 98/128/12 115/122/12
f 120/120/12 104/91/12 115/122/12
f 120/120/12 97/88/12 103/129/12
f 115/122/12 98/128/12 99/123/12
f 101/121/14 102/127/14 60/113/14
f 116/124/10 99/123/10 95/115/10
f 105/126/15 101/121/15 59/112/15
f 99/123/6 98/128/6 65/116/6
f 102/127/16 103/129/16 61/114/16
f 98/128/6 104/91/6 66/93/6
f 103/129/1 97/88/1 62/90/1
f 111/130/6 108/153/6 107/57/6
f 131/60/1 110/132/1 112/131/1
f 80/87/13 112/131/13 110/132/13
f 106/61/5 112/131/5 80/87/5
f 79/133/13 111/130/13 109/98/13
f 111/134/5 110/132/5 131/60/5
f 119/135/10 116/124/10 113/125/10
f 119/135/12 120/120/12 115/122/12
f 95/115/12 63/149/12 114/136/12
f 123/137/13 125/158/13 111/130/13
f 97/88/12 120/120/12 119/135/12
f 100/138/10 119/135/10 117/119/10
f 114/136/12 118/118/12 117/119/12
f 114/136/19 128/159/19 126/139/19
f 118/141/5 114/136/5 110/140/5
f 128/142/5 122/160/5 121/143/5
f 124/144/5 127/161/5 125/145/5
f 124/147/6 123/137/6 79/133/6
f 122/148/12 128/159/12 114/136/12
f 126/139/13 121/143/13 129/150/13
f 125/145/20 127/161/20 118/141/20
f 121/151/1 122/148/1 63/149/1
f 118/118/12 127/162/12 124/147/12
f 110/140/10 131/157/10 130/84/10
