# Blender v2.90.0 OBJ File: 'ParkingMeter.blend'
# www.blender.org
mtllib ParkingMeter.mtl
o ParkingMeter_Cube.008
v -0.730366 -0.979365 0.410275
v -1.468858 1.424168 0.410275
v -0.730366 -0.979365 -0.475231
v -1.468858 1.424168 -0.475231
v 0.730366 -0.979365 0.410275
v 1.468858 1.424168 0.410275
v 0.730366 -0.979365 -0.475231
v 1.468858 1.424168 -0.475231
v -1.509730 2.611316 0.410275
v -1.509730 2.611316 -0.475231
v 1.509730 2.611316 -0.475231
v 1.509730 2.611316 0.410275
v 0.243455 -0.979365 -0.475231
v -0.243455 -0.979365 -0.475231
v -0.489619 1.424168 -0.475231
v 0.489619 1.424168 -0.475231
v -0.243455 -0.979365 0.410275
v 0.243455 -0.979365 0.410275
v 0.489619 1.424168 0.410275
v -0.489619 1.424168 0.410275
v -0.489619 4.105614 -0.475231
v 0.489619 4.105614 -0.475231
v 0.489619 4.105614 0.410275
v -0.489619 4.105614 0.410275
v -0.486910 -0.979365 -0.475231
v -0.979239 1.424168 0.410275
v -0.979239 3.572851 0.410275
v -0.979239 1.424168 -0.475231
v -0.486910 -0.979365 0.410275
v -0.979239 3.572851 -0.475231
v 0.979239 1.424168 -0.475231
v 0.486911 -0.979365 0.410275
v 0.979239 3.572851 -0.475231
v 0.486911 -0.979365 -0.475231
v 0.979239 1.424168 0.410275
v 0.979239 3.572851 0.410275
v -1.497468 2.255172 -0.475231
v 1.497468 2.255172 -0.475231
v 1.497468 2.255172 0.410275
v -1.497468 2.255172 0.410275
v -0.489619 3.301181 0.410275
v 0.489619 3.301181 0.410275
v 0.489619 3.301181 -0.475231
v -0.489619 3.301181 -0.475231
v -0.979239 2.928247 0.410275
v -0.979239 2.928247 -0.475231
v 0.979239 2.928247 -0.475231
v 0.979239 2.928247 0.410275
v 0.979239 1.424168 0.324782
v 0.489619 1.424168 0.324782
v -0.489619 1.424168 0.324782
v -0.979239 1.424168 0.324782
v -0.489619 3.301181 0.324782
v 0.489619 3.301181 0.324782
v -0.979239 2.928247 0.324782
v 0.979239 2.928247 0.324782
v -1.174796 0.467098 0.410275
v -1.174796 0.467098 -0.475231
v 1.174796 0.467098 -0.475231
v 1.174796 0.467098 0.410275
v 0.391598 0.467098 0.410275
v -0.391599 0.467098 0.410275
v -0.391599 0.467098 -0.475231
v 0.391598 0.467098 -0.475231
v -0.783197 0.467098 -0.475231
v -0.783197 0.467098 0.410275
v 0.783197 0.467098 0.410275
v 0.783197 0.467098 -0.475231
v -1.845057 -7.270913 1.812579
v -1.845057 -6.841227 1.812579
v -1.845057 -7.270913 -1.877535
v -1.845057 -6.841227 -1.877535
v 1.845057 -7.270913 1.812579
v 1.845057 -6.841227 1.812579
v 1.845057 -7.270913 -1.877535
v 1.845057 -6.841227 -1.877535
v 0.000000 -7.024190 -0.475020
v 0.000000 -0.933698 -0.475020
v 0.383253 -7.024190 -0.253749
v 0.383253 -0.933698 -0.253749
v 0.383253 -7.024190 0.188793
v 0.383253 -0.933698 0.188793
v 0.000000 -7.024190 0.410064
v 0.000000 -0.933698 0.410064
v -0.383253 -7.024190 0.188793
v -0.383253 -0.933698 0.188793
v -0.383253 -7.024190 -0.253749
v -0.383253 -0.933698 -0.253749
vt 0.625000 0.833333
vt 0.625000 0.791667
vt 0.625000 0.833333
vt 0.625000 0.916667
vt 0.625000 0.916667
vt 0.625000 0.958333
vt 0.625000 0.958333
vt 0.625000 0.791667
vt 0.625000 0.000000
vt 0.525452 0.250000
vt 0.525452 0.000000
vt 0.625000 0.458333
vt 0.525452 0.500000
vt 0.525452 0.458333
vt 0.625000 0.500000
vt 0.525452 0.750000
vt 0.625000 0.958333
vt 0.525452 1.000000
vt 0.525452 0.958333
vt 0.375000 0.500000
vt 0.333333 0.750000
vt 0.333333 0.500000
vt 0.625000 0.291667
vt 0.625000 0.250000
vt 0.625000 0.291667
vt 0.893179 0.500000
vt 0.833333 0.750000
vt 0.833333 0.500000
vt 0.625000 0.500000
vt 0.625000 0.750000
vt 0.625000 0.750000
vt 0.625000 0.000000
vt 0.625000 0.250000
vt 0.625000 0.791667
vt 0.625000 0.791667
vt 0.625000 0.916667
vt 0.625000 0.958333
vt 0.625000 0.958333
vt 0.625000 0.833333
vt 0.625000 0.916667
vt 0.708333 0.500000
vt 0.666667 0.750000
vt 0.666667 0.500000
vt 0.791667 0.500000
vt 0.708333 0.750000
vt 0.625000 0.416667
vt 0.625000 0.458333
vt 0.625000 0.458333
vt 0.625000 0.333333
vt 0.625000 0.416667
vt 0.208333 0.500000
vt 0.166667 0.750000
vt 0.166667 0.500000
vt 0.291667 0.500000
vt 0.208333 0.750000
vt 0.625000 0.833333
vt 0.525452 0.916667
vt 0.525452 0.833333
vt 0.525452 0.291667
vt 0.625000 0.333333
vt 0.525452 0.333333
vt 0.625000 0.416667
vt 0.525452 0.416667
vt 0.625000 0.291667
vt 0.125000 0.750000
vt 0.125000 0.500000
vt 0.625000 1.000000
vt 0.625000 1.000000
vt 0.791667 0.750000
vt 0.625000 0.333333
vt 0.625000 0.791667
vt 0.525452 0.791667
vt 0.625000 0.500000
vt 0.625000 0.833333
vt 0.291667 0.750000
vt 0.625000 1.000000
vt 0.625000 0.916667
vt 0.625000 0.250000
vt 0.625000 0.750000
vt 0.375000 0.458333
vt 0.375000 0.416667
vt 0.375000 0.750000
vt 0.375000 0.791667
vt 0.375000 0.958333
vt 0.375000 0.916667
vt 0.375000 0.250000
vt 0.375000 0.291667
vt 0.375000 0.333333
vt 0.375000 0.833333
vt 0.375000 1.000000
vt 0.375000 0.000000
vt 0.625000 0.000000
vt 0.375000 0.250000
vt 0.375000 0.000000
vt 0.625000 0.250000
vt 0.375000 0.500000
vt 0.625000 0.500000
vt 0.375000 0.750000
vt 0.625000 0.750000
vt 0.375000 1.000000
vt 0.125000 0.750000
vt 0.125000 0.500000
vt 0.875000 0.500000
vt 1.000000 1.000000
vt 0.833333 0.500000
vt 1.000000 0.500000
vt 0.833333 1.000000
vt 0.666667 0.500000
vt 0.666667 1.000000
vt 0.500000 0.500000
vt 0.500000 1.000000
vt 0.333333 0.500000
vt 0.042154 0.130000
vt 0.250000 0.010000
vt 0.457846 0.130000
vt 0.333333 1.000000
vt 0.166667 0.500000
vt 0.166667 1.000000
vt -0.000000 0.500000
vt 0.750000 0.010000
vt 0.542154 0.130000
vt 0.542154 0.370000
vt 0.893179 0.750000
vt 0.625000 0.000000
vt 0.625000 1.000000
vt 0.875000 0.750000
vt 0.457846 0.370000
vt 0.250000 0.490000
vt 0.042154 0.370000
vt -0.000000 1.000000
vt 0.750000 0.490000
vt 0.957846 0.370000
vt 0.957846 0.130000
vn 0.0000 0.0000 1.0000
vn -0.9559 -0.2937 0.0000
vn 0.0000 0.0000 -1.0000
vn 0.9559 -0.2937 0.0000
vn 0.0000 -1.0000 0.0000
vn -0.8756 0.4831 0.0000
vn 0.9994 -0.0344 0.0000
vn -0.9994 -0.0344 0.0000
vn 0.7363 0.6767 0.0000
vn 0.0000 1.0000 0.0000
vn -0.7363 0.6767 0.0000
vn 0.8756 0.4831 0.0000
vn -0.6059 -0.7955 0.0000
vn 0.6059 -0.7955 0.0000
vn 1.0000 0.0000 0.0000
vn -1.0000 0.0000 0.0000
vn 0.5000 0.0000 -0.8660
vn 0.5000 0.0000 0.8660
vn -0.5000 0.0000 0.8660
vn -0.5000 0.0000 -0.8660
usemtl ParkingMeter_white
s off
f 50/1/1 56/2/1 54/3/1
f 50/1/1 53/4/1 51/5/1
f 51/5/1 55/6/1 52/7/1
f 50/1/1 49/8/1 56/2/1
f 50/1/1 54/3/1 53/4/1
f 51/5/1 53/4/1 55/6/1
usemtl GrayParkingMeter
f 2/9/2 58/10/2 57/11/2
f 31/12/3 59/13/3 68/14/3
f 8/15/4 60/16/4 59/13/4
f 26/17/1 57/18/1 66/19/1
f 7/20/5 32/21/5 34/22/5
f 46/23/3 10/24/3 30/25/3
f 10/26/6 27/27/6 30/28/6
f 38/29/7 12/30/7 39/31/7
f 40/32/8 10/24/8 37/33/8
f 48/34/1 12/30/1 36/35/1
f 41/36/1 27/37/1 45/38/1
f 42/39/1 24/40/1 41/36/1
f 22/41/9 36/42/9 33/43/9
f 21/44/10 23/45/10 22/41/10
f 43/46/3 33/47/3 47/48/3
f 44/49/3 22/50/3 43/46/3
f 14/51/5 29/52/5 25/53/5
f 13/54/5 17/55/5 14/51/5
f 19/56/1 62/57/1 61/58/1
f 65/59/3 15/60/3 63/61/3
f 63/61/3 16/62/3 64/63/3
f 58/10/3 28/64/3 65/59/3
f 25/53/5 1/65/5 3/66/5
f 45/38/1 9/67/1 40/68/1
f 30/28/11 24/69/11 21/44/11
f 44/49/3 30/25/3 21/70/3
f 60/16/1 35/71/1 67/72/1
f 47/48/3 11/73/3 38/29/3
f 33/43/12 12/30/12 11/73/12
f 42/39/1 36/35/1 23/74/1
f 34/22/5 18/75/5 13/54/5
f 16/62/3 68/14/3 64/63/3
f 31/12/3 38/29/3 8/15/3
f 15/60/3 46/23/3 44/49/3
f 26/17/1 40/68/1 2/76/1
f 15/60/3 43/46/3 16/62/3
f 16/62/3 47/48/3 31/12/3
f 42/39/13 56/2/13 48/34/13
f 19/56/10 51/5/10 20/77/10
f 35/71/1 39/31/1 48/34/1
f 2/9/8 37/33/8 4/78/8
f 8/15/7 39/31/7 6/79/7
f 28/64/3 37/33/3 46/23/3
f 45/38/14 53/4/14 41/36/14
f 26/17/15 55/6/15 45/38/15
f 48/34/16 49/8/16 35/71/16
f 41/36/5 54/3/5 42/39/5
f 64/63/3 34/80/3 13/81/3
f 5/82/1 67/72/1 32/83/1
f 62/57/1 29/84/1 17/85/1
f 3/86/3 65/59/3 25/87/3
f 63/61/3 13/81/3 14/88/3
f 25/87/3 63/61/3 14/88/3
f 61/58/1 17/85/1 18/89/1
f 32/83/1 61/58/1 18/89/1
f 66/19/1 1/90/1 29/84/1
f 59/13/4 5/82/4 7/20/4
f 68/14/3 7/20/3 34/80/3
f 57/11/2 3/86/2 1/91/2
f 70/92/16 71/93/16 69/94/16
f 72/95/3 75/96/3 71/93/3
f 76/97/15 73/98/15 75/96/15
f 74/99/1 69/100/1 73/98/1
f 75/96/5 69/101/5 71/102/5
f 72/103/10 74/99/10 76/97/10
f 78/104/17 79/105/17 77/106/17
f 80/107/15 81/108/15 79/105/15
f 82/109/18 83/110/18 81/108/18
f 84/111/19 85/112/19 83/110/19
f 86/113/10 84/114/10 82/115/10
f 86/116/16 87/117/16 85/112/16
f 88/118/20 77/119/20 87/117/20
f 83/120/5 85/121/5 87/122/5
f 2/9/2 4/78/2 58/10/2
f 31/12/3 8/15/3 59/13/3
f 8/15/4 6/79/4 60/16/4
f 26/17/1 2/76/1 57/18/1
f 7/20/5 5/82/5 32/21/5
f 46/23/3 37/33/3 10/24/3
f 10/26/6 9/123/6 27/27/6
f 38/29/7 11/73/7 12/30/7
f 40/32/8 9/124/8 10/24/8
f 48/34/1 39/31/1 12/30/1
f 41/36/1 24/40/1 27/37/1
f 42/39/1 23/74/1 24/40/1
f 22/41/9 23/45/9 36/42/9
f 21/44/10 24/69/10 23/45/10
f 43/46/3 22/50/3 33/47/3
f 44/49/3 21/70/3 22/50/3
f 14/51/5 17/55/5 29/52/5
f 13/54/5 18/75/5 17/55/5
f 19/56/1 20/77/1 62/57/1
f 65/59/3 28/64/3 15/60/3
f 63/61/3 15/60/3 16/62/3
f 58/10/3 4/78/3 28/64/3
f 25/53/5 29/52/5 1/65/5
f 45/38/1 27/37/1 9/67/1
f 30/28/11 27/27/11 24/69/11
f 44/49/3 46/23/3 30/25/3
f 60/16/1 6/79/1 35/71/1
f 47/48/3 33/47/3 11/73/3
f 33/43/12 36/42/12 12/30/12
f 42/39/1 48/34/1 36/35/1
f 34/22/5 32/21/5 18/75/5
f 16/62/3 31/12/3 68/14/3
f 31/12/3 47/48/3 38/29/3
f 15/60/3 28/64/3 46/23/3
f 26/17/1 45/38/1 40/68/1
f 15/60/3 44/49/3 43/46/3
f 16/62/3 43/46/3 47/48/3
f 42/39/13 54/3/13 56/2/13
f 19/56/10 50/1/10 51/5/10
f 35/71/1 6/79/1 39/31/1
f 2/9/8 40/32/8 37/33/8
f 8/15/7 38/29/7 39/31/7
f 28/64/3 4/78/3 37/33/3
f 45/38/14 55/6/14 53/4/14
f 26/17/15 52/7/15 55/6/15
f 48/34/16 56/2/16 49/8/16
f 41/36/5 53/4/5 54/3/5
f 64/63/3 68/14/3 34/80/3
f 5/82/1 60/16/1 67/72/1
f 62/57/1 66/19/1 29/84/1
f 3/86/3 58/10/3 65/59/3
f 63/61/3 64/63/3 13/81/3
f 25/87/3 65/59/3 63/61/3
f 61/58/1 62/57/1 17/85/1
f 32/83/1 67/72/1 61/58/1
f 66/19/1 57/18/1 1/90/1
f 59/13/4 60/16/4 5/82/4
f 68/14/3 59/13/3 7/20/3
f 57/11/2 58/10/2 3/86/2
f 70/92/16 72/95/16 71/93/16
f 72/95/3 76/97/3 75/96/3
f 76/97/15 74/99/15 73/98/15
f 74/99/1 70/125/1 69/100/1
f 75/96/5 73/98/5 69/101/5
f 72/103/10 70/126/10 74/99/10
f 78/104/17 80/107/17 79/105/17
f 80/107/15 82/109/15 81/108/15
f 82/109/18 84/111/18 83/110/18
f 84/111/19 86/116/19 85/112/19
f 82/115/10 80/127/10 78/128/10
f 78/128/10 88/129/10 82/115/10
f 88/129/10 86/113/10 82/115/10
f 86/116/16 88/118/16 87/117/16
f 88/118/20 78/130/20 77/119/20
f 87/122/5 77/131/5 83/120/5
f 77/131/5 79/132/5 83/120/5
f 79/132/5 81/133/5 83/120/5
usemtl BlackParkingMeter
f 67/72/1 19/56/1 61/58/1
f 20/77/1 66/19/1 62/57/1
f 20/77/10 52/7/10 26/17/10
f 35/71/10 50/1/10 19/56/10
f 67/72/1 35/71/1 19/56/1
f 20/77/1 26/17/1 66/19/1
f 20/77/10 51/5/10 52/7/10
f 35/71/10 49/8/10 50/1/10
