# Blender v2.90.0 OBJ File: 'PhoneBooth_02.blend'
# www.blender.org
mtllib PhoneBooth_02.mtl
o PhoneBooth_02_Cube.006
v -2.239854 -1.727836 0.858028
v -2.239854 4.493733 0.858028
v -2.239854 -1.727836 -1.455738
v -2.239854 4.493733 -1.455738
v 2.270253 -1.727836 0.858028
v 2.270253 4.493733 0.858028
v 2.270253 -1.727836 -1.455738
v 2.270253 4.493733 -1.455738
v 2.003364 -1.178220 0.858028
v 2.003364 3.944117 0.858028
v -1.972965 3.944117 0.858028
v -1.972965 -1.178220 0.858028
v 2.003364 3.892402 -0.741701
v 2.003364 -1.126505 0.282461
v -1.972965 -1.126505 0.282461
v -1.972965 3.892402 -0.741701
v -2.239854 3.032396 0.858028
v -2.239854 3.032396 -1.455738
v 2.270253 3.032396 -1.455738
v 2.270253 3.032396 0.858028
v 2.003364 2.740970 0.858028
v -1.972965 2.740970 0.858028
v 2.003364 2.713549 -0.501144
v -1.972965 2.713549 -0.501144
v -1.337833 -1.727836 -1.455738
v -1.337833 4.493733 -1.455738
v -1.337833 -1.727836 0.858028
v -1.337833 4.493733 0.858028
v -1.177699 -1.178220 0.858028
v -1.177699 3.944117 0.858028
v -1.177699 -1.126505 0.282461
v -1.177699 3.892402 -0.741701
v -1.177699 2.713549 -0.501144
v -1.337833 3.032396 -1.455738
v 1.300245 4.493733 -1.455738
v 1.300245 -1.727836 0.858028
v 1.148158 -1.178220 0.858028
v 1.148158 -1.126505 0.282461
v 1.300245 3.032396 -1.455738
v 1.300245 -1.727836 -1.455738
v 1.300245 4.493733 0.858028
v 1.148158 3.944117 0.858028
v 1.148158 3.892402 -0.741701
v 1.148158 2.713549 -0.501144
v -2.028253 -8.472933 1.744598
v -2.028253 -8.206089 1.744598
v -2.028253 -8.472933 -2.342307
v -2.028253 -8.206089 -2.342307
v 2.058652 -8.472933 1.744598
v 2.058652 -8.206089 1.744598
v 2.058652 -8.472933 -2.342307
v 2.058652 -8.206089 -2.342307
v 0.015199 -8.351707 -1.163913
v 0.015199 -1.566309 -1.163913
v 0.764362 -8.351707 -0.731384
v 0.764362 -1.566309 -0.731384
v 0.764362 -8.351707 0.133674
v 0.764362 -1.566309 0.133674
v 0.015199 -8.351707 0.566203
v 0.015199 -1.566309 0.566203
v -0.733963 -8.351707 0.133674
v -0.733963 -1.566309 0.133674
v -0.733963 -8.351707 -0.731384
v -0.733963 -1.566309 -0.731384
v -0.007717 2.342333 0.401083
v 0.277903 2.223615 0.330957
v 0.277902 1.986179 0.190705
v -0.007717 1.867461 0.120579
v -0.293337 1.986179 0.190705
v -0.293337 2.223615 0.330957
v -0.005147 2.564564 -0.148306
v 0.280473 2.401058 -0.126886
v 0.280473 2.074047 -0.084048
v -0.005147 1.910542 -0.062628
v -0.290767 2.074047 -0.084048
v -0.290767 2.401058 -0.126886
v -0.005147 2.691697 -0.608974
v 0.450217 2.431020 -0.574825
v 0.450217 2.502613 -0.111233
v 0.450217 1.909665 -0.506527
v 0.450217 1.981259 -0.042935
v -0.005147 1.648988 -0.472379
v -0.005147 1.720582 -0.008786
v -0.460511 1.909665 -0.506528
v -0.460511 1.981259 -0.042935
v -0.460511 2.431020 -0.574825
v -0.460511 2.502613 -0.111233
v -0.005147 2.763290 -0.145382
v -0.007717 -0.416894 0.901911
v 0.277903 -0.330394 0.794536
v 0.277902 -0.157394 0.579786
v -0.007717 -0.070895 0.472411
v -0.293337 -0.157394 0.579786
v -0.293337 -0.330394 0.794536
v -0.005147 -0.818027 0.465670
v 0.280473 -0.657423 0.428260
v 0.280473 -0.336217 0.353440
v -0.005147 -0.175614 0.316031
v -0.290767 -0.336217 0.353440
v -0.290767 -0.657423 0.428260
v -0.005147 -1.098948 0.079068
v 0.450217 -0.842898 0.019425
v 0.450217 -0.746999 0.478606
v 0.450217 -0.330798 -0.099860
v 0.450217 -0.234899 0.359321
v -0.005147 -0.074748 -0.159502
v -0.005147 0.021151 0.299678
v -0.460511 -0.330798 -0.099860
v -0.460511 -0.234899 0.359321
v -0.460511 -0.842898 0.019425
v -0.460511 -0.746999 0.478606
v -0.005147 -1.003048 0.538248
v -0.237300 0.997561 0.843447
v -0.237300 0.943112 0.543469
v -0.009206 0.915887 0.393479
v 0.218889 0.943112 0.543469
v 0.218889 0.997561 0.843447
v -0.009206 1.024785 0.993436
vt 0.625000 0.000000
vt 0.566279 0.250000
vt 0.566279 0.000000
vt 0.625000 0.446231
vt 0.566279 0.500000
vt 0.566279 0.446231
vt 0.625000 0.500000
vt 0.566279 0.750000
vt 0.590759 0.972189
vt 0.590759 0.933313
vt 0.590759 0.933313
vt 0.375000 0.500000
vt 0.321231 0.750000
vt 0.321231 0.500000
vt 0.875000 0.500000
vt 0.825000 0.750000
vt 0.825000 0.500000
vt 0.590759 0.777811
vt 0.548123 0.777811
vt 0.625000 0.950000
vt 0.566279 1.000000
vt 0.409241 0.972189
vt 0.548123 0.972189
vt 0.375000 0.803769
vt 0.409241 0.777811
vt 0.409241 0.819617
vt 0.548124 0.777811
vt 0.409241 0.972189
vt 0.548123 0.972189
vt 0.409241 0.819617
vt 0.590759 0.972189
vt 0.409241 0.777811
vt 0.625000 1.000000
vt 0.375000 0.750000
vt 0.375000 0.446231
vt 0.375000 0.250000
vt 0.375000 0.000000
vt 0.375000 0.300000
vt 0.548123 0.819617
vt 0.409241 0.933313
vt 0.409241 0.933313
vt 0.375000 0.950000
vt 0.375000 1.000000
vt 0.625000 0.803768
vt 0.590759 0.819617
vt 0.678769 0.750000
vt 0.678769 0.500000
vt 0.175000 0.500000
vt 0.125000 0.750000
vt 0.125000 0.500000
vt 0.590759 0.819617
vt 0.625000 0.250000
vt 0.566279 0.300000
vt 0.590759 0.777811
vt 0.625000 0.750000
vt 0.175000 0.750000
vt 0.625000 0.300000
vt 1.000000 1.000000
vt 0.833333 0.500000
vt 1.000000 0.500000
vt 0.833333 1.000000
vt 0.666667 0.500000
vt 0.666667 1.000000
vt 0.500000 0.500000
vt 0.500000 1.000000
vt 0.333333 0.500000
vt 0.042154 0.130000
vt 0.250000 0.010000
vt 0.457846 0.130000
vt 0.333333 1.000000
vt 0.166667 0.500000
vt 0.166667 1.000000
vt -0.000000 0.500000
vt 0.957846 0.370000
vt 0.750000 0.010000
vt 0.542154 0.370000
vt 0.875000 0.750000
vt 0.548123 0.933313
vt 0.457846 0.370000
vt 0.250000 0.490000
vt 0.042154 0.370000
vt -0.000000 1.000000
vt 0.750000 0.490000
vt 0.957846 0.130000
vt 0.542154 0.130000
vt 0.625000 0.000000
vt 0.375000 0.250000
vt 0.375000 0.000000
vt 0.625000 0.250000
vt 0.375000 0.500000
vt 0.625000 0.500000
vt 0.375000 0.750000
vt 0.625000 0.750000
vt 0.375000 1.000000
vt 0.125000 0.750000
vt 0.125000 0.500000
vt 0.875000 0.500000
vt 0.625000 1.000000
vt 0.875000 0.750000
vt 1.000000 0.903934
vt 0.833333 0.738027
vt 1.000000 0.738027
vt 0.833333 0.903934
vt 0.666667 0.738027
vt 0.666667 0.903934
vt 0.500000 0.738027
vt 0.333333 0.903934
vt 0.333333 0.738027
vt 0.166667 0.903934
vt -0.000000 1.000000
vt -0.000000 0.903934
vt 0.166667 0.738027
vt -0.000000 0.738027
vt 0.500000 0.738027
vt 0.666667 0.738027
vt 0.957846 0.370000
vt 0.750000 0.010000
vt 0.542154 0.370000
vt 0.833333 0.738027
vt 1.000000 0.738027
vt 0.166667 0.738027
vt -0.000000 0.500000
vt 0.166667 0.500000
vt 0.333333 0.738027
vt 0.333333 0.500000
vt 0.500000 0.500000
vt 0.666667 0.500000
vt 0.833333 0.500000
vt 1.000000 0.500000
vt 1.000000 1.000000
vt 0.833333 1.000000
vt 0.500000 0.903934
vt 0.666667 1.000000
vt 0.500000 1.000000
vt 0.333333 1.000000
vt 0.166667 1.000000
vt 0.833333 0.738027
vt 1.000000 0.903934
vt 1.000000 0.738027
vt 0.666667 0.738027
vt 0.833333 0.903934
vt 0.500000 0.738027
vt 0.666667 0.903934
vt 0.333333 0.903934
vt 0.500000 0.903934
vt 0.166667 0.903934
vt -0.000000 0.903934
vt 0.333333 0.738027
vt 0.166667 0.738027
vt 0.500000 0.738027
vt 0.750000 0.010000
vt 0.957846 0.130000
vt 0.957846 0.370000
vt 0.833333 0.738027
vt -0.000000 0.500000
vt 0.166667 0.738027
vt 0.166667 0.500000
vt 0.333333 0.738027
vt 0.333333 0.500000
vt 0.500000 0.500000
vt 0.666667 0.500000
vt 0.666667 0.738027
vt 0.833333 0.500000
vt 1.000000 0.500000
vt 1.000000 0.738027
vt -0.000000 0.738027
vt 0.750000 0.490000
vt 0.957846 0.130000
vt 0.542154 0.130000
vt -0.000000 0.738027
vt 0.750000 0.490000
vt 0.542154 0.370000
vt 0.542154 0.130000
vt -0.000000 0.738027
vn -1.0000 0.0000 0.0000
vn 0.0000 0.0000 -1.0000
vn 1.0000 0.0000 0.0000
vn 0.0000 -0.9995 0.0323
vn 0.0000 -1.0000 0.0000
vn 0.0000 1.0000 0.0000
vn 0.0000 0.0000 1.0000
vn 0.0000 0.9960 0.0895
vn 0.0000 0.1999 0.9798
vn 0.5000 0.0000 -0.8660
vn 0.5000 0.0000 0.8660
vn -0.5000 0.0000 0.8660
vn -0.5000 0.0000 -0.8660
vn 0.4486 0.8278 0.3369
vn 1.0000 0.0008 0.0059
vn 0.4638 -0.8451 -0.2659
vn -0.4622 -0.8434 -0.2740
vn -0.3670 0.3818 0.8483
vn -1.0000 -0.0008 -0.0059
vn -0.4495 0.8288 0.3332
vn -0.0837 0.2717 0.9587
vn -0.0000 -0.1299 -0.9915
vn 0.0837 0.2717 0.9587
vn -0.0831 -0.0147 0.9964
vn -0.4999 0.8559 -0.1322
vn -0.4999 -0.8559 0.1322
vn 0.4999 -0.8559 0.1322
vn 0.4999 0.8559 -0.1322
vn 0.0831 -0.0147 0.9964
vn -0.1668 0.1281 0.9776
vn 0.1668 0.1281 0.9776
vn 0.5489 0.2997 0.7803
vn 0.5537 -0.2304 -0.8002
vn -0.3484 -0.3170 -0.8821
vn 0.9985 -0.0532 0.0097
vn -0.9986 -0.0267 0.0452
vn 0.4486 -0.6566 0.6064
vn 1.0000 0.0014 0.0058
vn 0.4638 0.6977 -0.5460
vn -0.4192 0.7512 -0.5099
vn -0.3670 -0.0593 0.9283
vn -1.0000 -0.0071 -0.0057
vn -0.4299 -0.6750 0.5997
vn -0.0837 0.0825 0.9931
vn 0.0000 -0.2269 -0.9739
vn 0.0837 0.0825 0.9931
vn -0.0831 0.3639 0.9277
vn -0.4999 -0.8478 0.1771
vn -0.4999 0.8478 -0.1771
vn 0.4999 0.8478 -0.1771
vn 0.4999 -0.8478 0.1771
vn 0.0831 0.3639 0.9277
vn -0.1668 0.2237 0.9603
vn 0.1668 0.2237 0.9603
vn 0.3668 -0.0586 0.9285
vn 0.3486 -0.0122 -0.9372
vn -0.3484 -0.0132 -0.9373
vn 0.9985 0.0431 0.0347
vn -0.9986 0.0409 0.0330
vn 0.4301 0.8409 0.3283
vn 1.0000 -0.0046 0.0079
vn 0.4178 -0.8857 -0.2024
vn -0.4192 -0.8825 -0.2134
vn -0.5488 0.3009 0.7799
vn -1.0000 0.0046 -0.0079
vn -0.4299 0.8427 0.3242
vn 0.3668 0.3811 0.8487
vn 0.3486 -0.3179 -0.8817
vn -0.5538 -0.2287 -0.8006
vn 0.9985 -0.0281 0.0476
vn -0.9987 -0.0505 0.0092
vn 0.4301 -0.6719 0.6029
vn 1.0000 0.0071 0.0057
vn 0.4178 0.7581 -0.5008
vn -0.4622 0.6932 -0.5529
vn -0.5488 -0.0076 0.8359
vn -1.0000 -0.0014 -0.0058
vn -0.4495 -0.6589 0.6032
vn 0.5489 -0.0064 0.8359
vn 0.5537 -0.0656 -0.8301
vn -0.5538 -0.0672 -0.8299
vn 0.9985 0.0532 -0.0097
vn -0.9987 0.0505 -0.0092
usemtl GrayPhoneBooth_02
s off
f 2/1/1 18/2/1 17/3/1
f 35/4/2 19/5/2 39/6/2
f 8/7/3 20/8/3 19/5/3
f 11/9/4 32/10/4 30/11/4
f 7/12/5 36/13/5 40/14/5
f 4/15/6 28/16/6 26/17/6
f 20/8/7 10/18/7 21/19/7
f 28/20/7 11/9/7 30/11/7
f 17/21/7 12/22/7 22/23/7
f 36/24/7 9/25/7 37/26/7
f 10/18/1 23/27/1 21/19/1
f 22/23/3 15/28/3 24/29/3
f 9/25/8 38/30/8 37/26/8
f 11/9/3 24/29/3 16/31/3
f 21/19/1 14/32/1 9/25/1
f 17/21/7 11/9/7 2/33/7
f 20/8/7 9/25/7 5/34/7
f 19/5/3 5/34/3 7/12/3
f 39/6/2 7/12/2 40/35/2
f 17/3/1 3/36/1 1/37/1
f 18/2/2 25/38/2 3/36/2
f 44/39/9 31/40/9 38/30/9
f 29/41/8 15/28/8 12/22/8
f 27/42/7 12/22/7 1/43/7
f 41/44/7 30/11/7 42/45/7
f 26/17/6 41/46/6 35/47/6
f 25/48/5 1/49/5 3/50/5
f 30/11/4 43/51/4 42/45/4
f 4/52/2 34/53/2 18/2/2
f 42/45/4 13/54/4 10/18/4
f 35/47/6 6/55/6 8/7/6
f 41/44/7 10/18/7 6/55/7
f 34/53/2 40/35/2 25/38/2
f 37/26/8 31/40/8 29/41/8
f 36/24/7 29/41/7 27/42/7
f 40/14/5 27/56/5 25/48/5
f 26/57/2 39/6/2 34/53/2
f 54/58/10 55/59/10 53/60/10
f 56/61/3 57/62/3 55/59/3
f 58/63/11 59/64/11 57/62/11
f 60/65/12 61/66/12 59/64/12
f 62/67/6 60/68/6 58/69/6
f 62/70/1 63/71/1 61/66/1
f 64/72/13 53/73/13 63/71/13
f 55/74/5 59/75/5 63/76/5
f 2/1/1 4/52/1 18/2/1
f 35/4/2 8/7/2 19/5/2
f 8/7/3 6/55/3 20/8/3
f 11/9/4 16/31/4 32/10/4
f 7/12/5 5/34/5 36/13/5
f 4/15/6 2/77/6 28/16/6
f 20/8/7 6/55/7 10/18/7
f 28/20/7 2/33/7 11/9/7
f 17/21/7 1/43/7 12/22/7
f 36/24/7 5/34/7 9/25/7
f 10/18/1 13/54/1 23/27/1
f 22/23/3 12/22/3 15/28/3
f 9/25/8 14/32/8 38/30/8
f 11/9/3 22/23/3 24/29/3
f 21/19/1 23/27/1 14/32/1
f 17/21/7 22/23/7 11/9/7
f 20/8/7 21/19/7 9/25/7
f 19/5/3 20/8/3 5/34/3
f 39/6/2 19/5/2 7/12/2
f 17/3/1 18/2/1 3/36/1
f 18/2/2 34/53/2 25/38/2
f 44/39/9 33/78/9 31/40/9
f 29/41/8 31/40/8 15/28/8
f 27/42/7 29/41/7 12/22/7
f 41/44/7 28/20/7 30/11/7
f 26/17/6 28/16/6 41/46/6
f 25/48/5 27/56/5 1/49/5
f 30/11/4 32/10/4 43/51/4
f 4/52/2 26/57/2 34/53/2
f 42/45/4 43/51/4 13/54/4
f 35/47/6 41/46/6 6/55/6
f 41/44/7 42/45/7 10/18/7
f 34/53/2 39/6/2 40/35/2
f 37/26/8 38/30/8 31/40/8
f 36/24/7 37/26/7 29/41/7
f 40/14/5 36/13/5 27/56/5
f 26/57/2 35/4/2 39/6/2
f 54/58/10 56/61/10 55/59/10
f 56/61/3 58/63/3 57/62/3
f 58/63/11 60/65/11 59/64/11
f 60/65/12 62/70/12 61/66/12
f 58/69/6 56/79/6 54/80/6
f 54/80/6 64/81/6 58/69/6
f 64/81/6 62/67/6 58/69/6
f 62/70/1 64/72/1 63/71/1
f 64/72/13 54/82/13 53/73/13
f 63/76/5 53/83/5 55/74/5
f 55/74/5 57/84/5 59/75/5
f 59/75/5 61/85/5 63/76/5
usemtl BlackPhoneBooth_02
f 33/78/9 15/28/9 31/40/9
f 23/27/9 38/30/9 14/32/9
f 46/86/1 47/87/1 45/88/1
f 48/89/2 51/90/2 47/87/2
f 52/91/3 49/92/3 51/90/3
f 50/93/7 45/94/7 49/92/7
f 51/90/5 45/95/5 47/96/5
f 48/97/6 50/93/6 52/91/6
f 33/78/9 24/29/9 15/28/9
f 23/27/9 44/39/9 38/30/9
f 46/86/1 48/89/1 47/87/1
f 48/89/2 52/91/2 51/90/2
f 52/91/3 50/93/3 49/92/3
f 50/93/7 46/98/7 45/94/7
f 51/90/5 49/92/5 45/95/5
f 48/97/6 46/99/6 50/93/6
usemtl BluePhoneBooth_02
f 32/10/9 24/29/9 33/78/9
f 43/51/9 33/78/9 44/39/9
f 13/54/9 44/39/9 23/27/9
f 32/10/9 16/31/9 24/29/9
f 43/51/9 32/10/9 33/78/9
f 13/54/9 43/51/9 44/39/9
usemtl Material.007
f 65/100/14 72/101/14 71/102/14
f 66/103/15 73/104/15 72/101/15
f 67/105/16 74/106/16 73/104/16
f 74/106/17 69/107/17 75/108/17
f 70/109/18 118/110/18 65/111/18
f 75/108/19 70/109/19 76/112/19
f 76/112/20 65/111/20 71/113/20
f 73/104/21 83/114/21 81/115/21
f 78/116/22 82/117/22 86/118/22
f 75/108/23 83/114/23 74/106/23
f 71/102/24 79/119/24 88/120/24
f 87/121/25 77/122/25 86/123/25
f 85/124/1 86/123/1 84/125/1
f 83/114/26 84/125/26 82/126/26
f 80/127/27 83/114/27 82/126/27
f 78/128/3 81/115/3 80/127/3
f 77/129/28 79/119/28 78/128/28
f 71/113/29 87/121/29 76/112/29
f 72/101/30 81/115/30 79/119/30
f 76/112/31 85/124/31 75/108/31
f 66/103/32 118/130/32 117/131/32
f 68/132/33 116/133/33 115/134/33
f 68/132/34 114/135/34 69/107/34
f 67/105/35 117/131/35 116/133/35
f 69/107/36 113/136/36 70/109/36
f 96/137/37 89/138/37 95/139/37
f 97/140/38 90/141/38 96/137/38
f 98/142/39 91/143/39 97/140/39
f 98/142/40 93/144/40 92/145/40
f 118/110/41 94/146/41 89/147/41
f 99/148/42 94/146/42 93/144/42
f 100/149/43 89/147/43 94/146/43
f 97/140/44 107/150/44 98/142/44
f 106/151/45 104/152/45 102/153/45
f 107/150/46 99/148/46 98/142/46
f 95/139/47 103/154/47 96/137/47
f 101/155/48 111/156/48 110/157/48
f 110/157/1 109/158/1 108/159/1
f 108/159/49 107/150/49 106/160/49
f 104/161/50 107/150/50 105/162/50
f 102/163/3 105/162/3 103/154/3
f 101/164/51 103/154/51 112/165/51
f 111/156/52 95/166/52 100/149/52
f 96/137/53 105/162/53 97/140/53
f 109/158/54 100/149/54 99/148/54
f 90/141/55 118/130/55 89/138/55
f 92/145/56 116/133/56 91/143/56
f 114/135/57 92/145/57 93/144/57
f 91/143/58 117/131/58 90/141/58
f 113/136/59 93/144/59 94/146/59
f 65/100/60 66/103/60 72/101/60
f 66/103/61 67/105/61 73/104/61
f 67/105/62 68/132/62 74/106/62
f 74/106/63 68/132/63 69/107/63
f 70/109/64 113/136/64 118/110/64
f 75/108/65 69/107/65 70/109/65
f 76/112/66 70/109/66 65/111/66
f 73/104/21 74/106/21 83/114/21
f 86/118/22 77/167/22 78/116/22
f 78/116/22 80/168/22 82/117/22
f 82/117/22 84/169/22 86/118/22
f 75/108/23 85/124/23 83/114/23
f 71/102/24 72/101/24 79/119/24
f 87/121/25 88/170/25 77/122/25
f 85/124/1 87/121/1 86/123/1
f 83/114/26 85/124/26 84/125/26
f 80/127/27 81/115/27 83/114/27
f 78/128/3 79/119/3 81/115/3
f 77/129/28 88/120/28 79/119/28
f 71/113/29 88/170/29 87/121/29
f 72/101/30 73/104/30 81/115/30
f 76/112/31 87/121/31 85/124/31
f 66/103/67 65/100/67 118/130/67
f 68/132/68 67/105/68 116/133/68
f 68/132/69 115/134/69 114/135/69
f 67/105/70 66/103/70 117/131/70
f 69/107/71 114/135/71 113/136/71
f 96/137/72 90/141/72 89/138/72
f 97/140/73 91/143/73 90/141/73
f 98/142/74 92/145/74 91/143/74
f 98/142/75 99/148/75 93/144/75
f 118/110/76 113/136/76 94/146/76
f 99/148/77 100/149/77 94/146/77
f 100/149/78 95/166/78 89/147/78
f 97/140/44 105/162/44 107/150/44
f 102/153/45 101/171/45 110/172/45
f 110/172/45 108/173/45 102/153/45
f 108/173/45 106/151/45 102/153/45
f 107/150/46 109/158/46 99/148/46
f 95/139/47 112/165/47 103/154/47
f 101/155/48 112/174/48 111/156/48
f 110/157/1 111/156/1 109/158/1
f 108/159/49 109/158/49 107/150/49
f 104/161/50 106/160/50 107/150/50
f 102/163/3 104/161/3 105/162/3
f 101/164/51 102/163/51 103/154/51
f 111/156/52 112/174/52 95/166/52
f 96/137/53 103/154/53 105/162/53
f 109/158/54 111/156/54 100/149/54
f 90/141/79 117/131/79 118/130/79
f 92/145/80 115/134/80 116/133/80
f 114/135/81 115/134/81 92/145/81
f 91/143/82 116/133/82 117/131/82
f 113/136/83 114/135/83 93/144/83
