# Blender v2.90.0 OBJ File: 'PowerGenerator_01.blend'
# www.blender.org
mtllib PowerGenerator_01.mtl
o PowerGenerator_01_Cube.009
v -3.232899 -3.314664 1.157156
v -3.232899 3.583979 1.157156
v -3.232899 -3.314664 -2.332088
v -3.232899 3.583979 -2.332088
v -3.232899 2.622761 1.157156
v -3.232899 2.622761 -2.332088
v -3.232899 -2.821401 -2.332088
v -3.232899 -2.821401 1.157156
v -3.060433 -3.314664 -2.332088
v -3.060433 3.583979 1.157156
v -3.060433 3.583979 -2.332088
v -3.060433 -3.314664 1.157156
v -3.060433 2.622761 -2.332088
v -3.060433 2.622761 1.157156
v -3.060433 -2.821401 1.157156
v -3.060433 -2.821401 -2.332088
v -0.039807 -2.565171 1.157156
v -0.039807 2.366531 1.157156
v -2.804203 2.366531 1.157156
v -2.804203 -2.565171 1.157156
v -0.039807 2.366531 0.900277
v -0.039807 -2.565171 0.900277
v -2.804203 -2.565171 0.900277
v -2.804203 2.366531 0.900277
v 3.665744 -3.314664 1.157156
v 3.665744 3.583979 1.157156
v 3.665744 -3.314664 -2.332088
v 3.665744 3.583979 -2.332088
v 0.216423 -3.314664 -2.332088
v 0.216423 3.583979 -2.332088
v 0.216423 -3.314664 1.157156
v 0.216423 3.583979 1.157156
v 3.665744 2.622761 1.157156
v 3.665744 2.622761 -2.332088
v 0.216423 2.622761 1.157156
v 0.216423 2.622761 -2.332088
v 3.665744 -2.821401 -2.332088
v 0.216423 -2.821401 1.157156
v 0.216423 -2.821401 -2.332088
v 3.665744 -2.821401 1.157156
v 3.493278 -3.314664 -2.332088
v 3.493278 3.583979 1.157156
v 3.493278 3.583979 -2.332088
v 3.493278 -3.314664 1.157156
v 3.493278 2.622761 -2.332088
v 3.493278 2.622761 1.157156
v 3.493278 -2.821401 1.157156
v 3.493278 -2.821401 -2.332088
v 0.472652 -2.565171 1.157156
v 0.472652 2.366531 1.157156
v 3.237048 2.366531 1.157156
v 3.237048 -2.565171 1.157156
v 0.472652 2.366531 0.900277
v 0.472652 -2.565171 0.900277
v 3.237048 -2.565171 0.900277
v 3.237048 2.366531 0.900277
v -2.514959 -0.889705 0.809650
v -1.633660 1.110295 0.809650
v -2.514959 -0.889705 0.950143
v -1.633660 1.110295 0.950143
v -0.514959 -0.889705 0.809650
v -1.396258 1.110295 0.809650
v -0.514959 -0.889705 0.950143
v -1.396258 1.110295 0.950143
vt 0.625000 0.000000
vt 0.590166 0.250000
vt 0.590166 0.000000
vt 0.625000 0.993750
vt 0.590166 1.000000
vt 0.590166 0.993750
vt 0.875000 0.500000
vt 0.868750 0.750000
vt 0.868750 0.500000
vt 0.250000 0.500000
vt 0.131250 0.750000
vt 0.131250 0.500000
vt 0.625000 0.256250
vt 0.590166 0.375000
vt 0.590166 0.256250
vt 0.392875 0.375000
vt 0.392875 0.256250
vt 0.392875 1.000000
vt 0.392875 0.993750
vt 0.392875 0.250000
vt 0.392875 0.000000
vt 0.375000 0.250000
vt 0.375000 0.000000
vt 0.375000 1.000000
vt 0.375000 0.993750
vt 0.375000 0.375000
vt 0.375000 0.256250
vt 0.392875 0.875000
vt 0.375000 0.875000
vt 0.580881 0.984464
vt 0.580881 0.884286
vt 0.580881 0.884286
vt 0.625000 0.250000
vt 0.125000 0.750000
vt 0.125000 0.500000
vt 0.750000 0.750000
vt 0.750000 0.500000
vt 0.625000 0.875000
vt 0.590166 0.875000
vt 0.402161 0.884286
vt 0.402161 0.984465
vt 0.580881 0.984464
vt 0.402161 0.884286
vt 0.402161 0.984465
vt 0.590166 0.250000
vt 0.625000 0.000000
vt 0.590166 0.000000
vt 0.590166 1.000000
vt 0.625000 0.993750
vt 0.590166 0.993750
vt 0.868750 0.750000
vt 0.875000 0.500000
vt 0.868750 0.500000
vt 0.131250 0.750000
vt 0.131250 0.500000
vt 0.625000 0.256250
vt 0.590166 0.256250
vt 0.392875 0.256250
vt 0.392875 1.000000
vt 0.392875 0.993750
vt 0.392875 0.250000
vt 0.392875 0.000000
vt 0.375000 0.250000
vt 0.375000 0.000000
vt 0.375000 1.000000
vt 0.375000 0.993750
vt 0.375000 0.256250
vt 0.580881 0.884286
vt 0.580881 0.984464
vt 0.580881 0.884286
vt 0.625000 0.250000
vt 0.125000 0.750000
vt 0.125000 0.500000
vt 0.402161 0.884286
vt 0.402161 0.984465
vt 0.580881 0.984464
vt 0.402161 0.884286
vt 0.402161 0.984465
vt 0.625000 1.000000
vt 0.875000 0.750000
vt 0.250000 0.750000
vt 0.625000 0.375000
vt 0.625000 1.000000
vt 0.875000 0.750000
vt 0.375000 0.250000
vt 0.625000 0.000000
vt 0.375000 0.000000
vt 0.375000 0.500000
vt 0.625000 0.250000
vt 0.375000 0.750000
vt 0.625000 0.500000
vt 0.625000 1.000000
vt 0.625000 0.750000
vt 0.125000 0.750000
vt 0.125000 0.500000
vt 0.875000 0.500000
vt 0.375000 1.000000
vt 0.875000 0.750000
vn -1.0000 0.0000 0.0000
vn 0.0000 0.0000 1.0000
vn 0.0000 1.0000 0.0000
vn 0.0000 -1.0000 0.0000
vn 0.0000 0.0000 -1.0000
vn 1.0000 0.0000 0.0000
vn -0.9151 0.4032 0.0000
vn 0.9151 0.4032 0.0000
usemtl GrayPowerGenerator_01
s off
f 2/1/1 6/2/1 5/3/1
f 10/4/2 5/5/2 14/6/2
f 4/7/3 10/8/3 11/9/3
f 29/10/4 12/11/4 9/12/4
f 11/13/5 36/14/5 13/15/5
f 13/15/5 39/16/5 16/17/5
f 14/6/2 8/18/2 15/19/2
f 5/3/1 7/20/1 8/21/1
f 8/21/1 3/22/1 1/23/1
f 15/19/2 1/24/2 12/25/2
f 16/17/5 29/26/5 9/27/5
f 7/20/5 9/27/5 3/22/5
f 38/28/2 12/25/2 31/29/2
f 19/30/4 21/31/4 18/32/4
f 6/2/5 16/17/5 7/20/5
f 4/33/5 13/15/5 6/2/5
f 9/12/4 1/34/4 3/35/4
f 11/9/3 32/36/3 30/37/3
f 32/38/2 14/6/2 35/39/2
f 35/39/2 17/40/2 38/28/2
f 14/6/2 18/32/2 35/39/2
f 15/19/2 19/30/2 14/6/2
f 38/28/2 20/41/2 15/19/2
f 20/41/6 24/42/6 19/30/6
f 18/32/1 22/43/1 17/40/1
f 17/40/3 23/44/3 20/41/3
f 34/45/6 26/46/6 33/47/6
f 33/48/2 42/49/2 46/50/2
f 42/51/3 28/52/3 43/53/3
f 44/54/4 29/10/4 41/55/4
f 36/14/5 43/56/5 45/57/5
f 39/16/5 45/57/5 48/58/5
f 40/59/2 46/50/2 47/60/2
f 37/61/6 33/47/6 40/62/6
f 27/63/6 40/62/6 25/64/6
f 25/65/2 47/60/2 44/66/2
f 29/26/5 48/58/5 41/67/5
f 41/67/5 37/61/5 27/63/5
f 44/66/2 38/28/2 31/29/2
f 53/68/4 51/69/4 50/70/4
f 48/58/5 34/45/5 37/61/5
f 45/57/5 28/71/5 34/45/5
f 25/72/4 41/55/4 27/73/4
f 32/36/3 43/53/3 30/37/3
f 46/50/2 32/38/2 35/39/2
f 49/74/2 35/39/2 38/28/2
f 50/70/2 46/50/2 35/39/2
f 51/69/2 47/60/2 46/50/2
f 52/75/2 38/28/2 47/60/2
f 56/76/1 52/75/1 51/69/1
f 54/77/6 50/70/6 49/74/6
f 55/78/3 49/74/3 52/75/3
f 2/1/1 4/33/1 6/2/1
f 10/4/2 2/79/2 5/5/2
f 4/7/3 2/80/3 10/8/3
f 29/10/4 31/81/4 12/11/4
f 11/13/5 30/82/5 36/14/5
f 13/15/5 36/14/5 39/16/5
f 14/6/2 5/5/2 8/18/2
f 5/3/1 6/2/1 7/20/1
f 8/21/1 7/20/1 3/22/1
f 15/19/2 8/18/2 1/24/2
f 16/17/5 39/16/5 29/26/5
f 7/20/5 16/17/5 9/27/5
f 38/28/2 15/19/2 12/25/2
f 19/30/4 24/42/4 21/31/4
f 6/2/5 13/15/5 16/17/5
f 4/33/5 11/13/5 13/15/5
f 9/12/4 12/11/4 1/34/4
f 11/9/3 10/8/3 32/36/3
f 32/38/2 10/4/2 14/6/2
f 35/39/2 18/32/2 17/40/2
f 14/6/2 19/30/2 18/32/2
f 15/19/2 20/41/2 19/30/2
f 38/28/2 17/40/2 20/41/2
f 20/41/6 23/44/6 24/42/6
f 18/32/1 21/31/1 22/43/1
f 17/40/3 22/43/3 23/44/3
f 34/45/6 28/71/6 26/46/6
f 33/48/2 26/83/2 42/49/2
f 42/51/3 26/84/3 28/52/3
f 44/54/4 31/81/4 29/10/4
f 36/14/5 30/82/5 43/56/5
f 39/16/5 36/14/5 45/57/5
f 40/59/2 33/48/2 46/50/2
f 37/61/6 34/45/6 33/47/6
f 27/63/6 37/61/6 40/62/6
f 25/65/2 40/59/2 47/60/2
f 29/26/5 39/16/5 48/58/5
f 41/67/5 48/58/5 37/61/5
f 44/66/2 47/60/2 38/28/2
f 53/68/4 56/76/4 51/69/4
f 48/58/5 45/57/5 34/45/5
f 45/57/5 43/56/5 28/71/5
f 25/72/4 44/54/4 41/55/4
f 32/36/3 42/51/3 43/53/3
f 46/50/2 42/49/2 32/38/2
f 49/74/2 50/70/2 35/39/2
f 50/70/2 51/69/2 46/50/2
f 51/69/2 52/75/2 47/60/2
f 52/75/2 49/74/2 38/28/2
f 56/76/1 55/78/1 52/75/1
f 54/77/6 53/68/6 50/70/6
f 55/78/3 54/77/3 49/74/3
usemtl DarkowerGenerator_01
f 21/31/2 23/44/2 22/43/2
f 55/78/2 53/68/2 54/77/2
f 21/31/2 24/42/2 23/44/2
f 55/78/2 56/76/2 53/68/2
usemtl YellowPowerGenerator_01
f 59/85/7 58/86/7 57/87/7
f 63/88/2 60/89/2 59/85/2
f 61/90/8 64/91/8 63/88/8
f 61/90/5 58/92/5 62/93/5
f 57/94/4 63/88/4 59/95/4
f 62/93/3 60/96/3 64/91/3
f 59/85/7 60/89/7 58/86/7
f 63/88/2 64/91/2 60/89/2
f 61/90/8 62/93/8 64/91/8
f 61/90/5 57/97/5 58/92/5
f 57/94/4 61/90/4 63/88/4
f 62/93/3 58/98/3 60/96/3
