# Blender v2.90.0 OBJ File: 'PowerGenerator_02.blend'
# www.blender.org
mtllib PowerGenerator_02.mtl
o PowerGenerator_02_Cube.012
v -3.812658 -0.099182 0.646919
v -3.251181 1.175021 0.646919
v -3.812658 -0.099182 0.833837
v -3.251181 1.175021 0.833837
v -2.538456 -0.099182 0.646919
v -3.099933 1.175021 0.646919
v -2.538456 -0.099182 0.833837
v -3.099933 1.175021 0.833837
v -4.212413 -4.763868 0.569624
v -4.212413 2.446209 0.569624
v -4.212413 -4.763868 -2.911179
v -4.212413 2.446209 -2.911179
v 4.736793 -4.763868 0.569624
v 4.736793 2.446209 0.569624
v 4.736793 -4.763868 -2.911179
v 4.736793 2.446209 -2.911179
v -2.064225 -4.763868 -2.911179
v -2.064225 2.446209 -2.911179
v -2.064225 -4.763868 0.569624
v -2.064225 2.446209 0.569624
v -4.212413 1.725201 0.569624
v -4.212413 1.725201 -2.911179
v 4.736793 1.725201 -2.911179
v 4.736793 1.725201 0.569624
v -2.064225 1.725201 0.569624
v -2.064225 1.725201 -2.911179
v -4.212413 -2.168240 -2.911179
v 4.736793 -2.168240 -2.911179
v 4.736793 -2.168240 0.569624
v -2.064225 -2.168240 0.569624
v -2.064225 -2.168240 -2.911179
v -4.212413 -2.168240 0.569624
v 1.284111 2.446209 -2.907165
v 1.284111 -4.763868 0.573639
v 1.284111 -4.763868 -2.907165
v 1.284111 2.446209 0.573639
v 1.284111 1.725201 0.573639
v 1.284111 1.725201 -2.907165
v 1.284111 -2.168240 -2.907165
v 1.284111 -2.168240 0.573639
v 1.005059 -2.105876 0.573304
v 1.005059 1.662837 0.573304
v -1.785173 1.662837 0.569959
v -1.785173 -2.105876 0.569959
v -2.343278 -2.105876 0.569624
v -2.343278 1.662837 0.569624
v -3.933360 1.662837 0.569624
v -3.933360 -2.105876 0.569624
v 4.457741 -2.105876 0.569949
v 4.457741 1.662837 0.569949
v 1.563163 1.662837 0.573315
v 1.563163 -2.105876 0.573315
v 1.005059 1.662837 0.721515
v 1.005059 -2.105876 0.721515
v -1.785173 -2.105876 0.718170
v -1.785173 1.662837 0.718170
v -2.343278 1.662837 0.717835
v -2.343278 -2.105876 0.717835
v -3.933360 -2.105876 0.717835
v -3.933360 1.662837 0.717835
v 4.457741 1.662837 0.718160
v 4.457741 -2.105876 0.718160
v 1.563163 -2.105876 0.721526
v 1.563163 1.662837 0.721526
v -4.212413 -0.870427 0.569624
v -4.212413 0.427387 0.569624
v -4.212413 0.427387 -2.911179
v -4.212413 -0.870427 -2.911179
v 4.736793 0.427387 -2.911179
v 4.736793 -0.870427 -2.911179
v 4.736793 0.427387 0.569624
v 4.736793 -0.870427 0.569624
v -2.064225 0.427387 0.569624
v -2.064225 -0.870427 0.569624
v -2.064225 0.427387 -2.911179
v -2.064225 -0.870427 -2.911179
v 1.284111 0.427387 -2.907165
v 1.284111 -0.870427 -2.907165
v 1.284111 0.427387 0.573639
v 1.284111 -0.870427 0.573639
v 1.005059 0.406599 0.573304
v 1.005059 -0.849639 0.573304
v -1.785173 0.406599 0.569959
v -1.785173 -0.849639 0.569959
v -2.343278 0.406599 0.569624
v -2.343278 -0.849639 0.569624
v -3.933360 -0.849638 0.569624
v -3.933360 0.406599 0.569624
v 4.457741 0.406599 0.569949
v 4.457741 -0.849639 0.569949
v 1.563163 0.406599 0.573315
v 1.563163 -0.849639 0.573315
v 1.005059 0.406599 0.721515
v 1.005059 -0.849639 0.721515
v -1.785173 0.406599 0.718170
v -1.785173 -0.849639 0.718170
v -2.343278 0.406599 0.717835
v -2.343278 -0.849639 0.717835
v -3.933360 -0.849638 0.717835
v -3.933360 0.406599 0.717835
v 4.457741 0.406599 0.718160
v 4.457741 -0.849639 0.718160
v 1.563163 0.406599 0.721526
v 1.563163 -0.849639 0.721526
v -4.212413 0.865926 0.569624
v -3.933360 0.831090 0.569624
v -3.933360 0.831090 0.717835
v -4.212413 0.865926 -2.911179
v 4.736793 0.865926 -2.911179
v 4.736793 0.865926 0.569624
v -2.064225 0.865926 0.569624
v -2.064225 0.865926 -2.911179
v 1.284111 0.865926 -2.907165
v 1.284111 0.865926 0.573639
v 1.005059 0.831090 0.573304
v -1.785173 0.831090 0.569959
v -2.343278 0.831090 0.569624
v 4.457741 0.831090 0.569949
v 1.563163 0.831090 0.573315
v 1.005059 0.831090 0.721515
v -1.785173 0.831090 0.718170
v -2.343278 0.831090 0.717835
v 4.457741 0.831090 0.718160
v 1.563163 0.831090 0.721526
v -4.212413 0.074805 0.569624
v -4.212413 0.074805 -2.911179
v 4.736793 0.074805 -2.911179
v 4.736793 0.074805 0.569624
v -2.064225 0.074805 0.569624
v -2.064225 0.074805 -2.911179
v 1.284111 0.074805 -2.907165
v 1.284111 0.074805 0.573639
v 1.005059 0.065312 0.573304
v -1.785173 0.065312 0.569959
v -2.343278 0.065312 0.569624
v -3.933360 0.065312 0.569624
v 4.457741 0.065312 0.569949
v 1.563163 0.065312 0.573315
v 1.005059 0.065312 0.721515
v -1.785173 0.065312 0.718170
v -2.343278 0.065312 0.717835
v -3.933360 0.065312 0.717835
v 4.457741 0.065312 0.718160
v 1.563163 0.065312 0.721526
v 4.403399 0.077457 0.718223
v 4.403399 0.394454 0.718223
v 1.617505 0.394454 0.721462
v 1.617505 0.077457 0.721462
v 0.950717 0.077457 0.721450
v 0.950717 0.394454 0.721450
v -1.730830 0.394454 0.718235
v -1.730830 0.077457 0.718235
v 4.403399 0.418744 0.718223
v 4.403399 0.818945 0.718223
v 1.617505 0.818945 0.721462
v 1.617505 0.418744 0.721462
v 0.950717 0.418744 0.721450
v 0.950717 0.818945 0.721450
v -1.730830 0.818945 0.718235
v -1.730830 0.418744 0.718235
v 4.403399 0.394454 0.684640
v 4.403399 0.077457 0.684640
v 1.617505 0.077457 0.687879
v 1.617505 0.394454 0.687879
v 0.950717 0.394454 0.687867
v 0.950717 0.077457 0.687867
v -1.730830 0.077457 0.684652
v -1.730830 0.394454 0.684652
v 4.403399 0.818945 0.684640
v 4.403399 0.418744 0.684640
v 1.617505 0.418744 0.687879
v 1.617505 0.818945 0.687879
v 0.950717 0.818945 0.687867
v 0.950717 0.418744 0.687867
v -1.730830 0.418744 0.684652
v -1.730830 0.818945 0.684652
vt 0.375000 0.250000
vt 0.625000 0.000000
vt 0.375000 0.000000
vt 0.375000 0.500000
vt 0.625000 0.250000
vt 0.375000 0.750000
vt 0.625000 0.500000
vt 0.375000 1.000000
vt 0.625000 0.750000
vt 0.125000 0.750000
vt 0.125000 0.500000
vt 0.875000 0.500000
vt 0.625000 1.000000
vt 0.875000 0.750000
vt 0.597838 0.865105
vt 0.568998 0.953645
vt 0.568998 0.865105
vt 0.597838 0.967371
vt 0.568998 0.995129
vt 0.568998 0.967371
vt 0.597838 0.758587
vt 0.568998 0.847663
vt 0.568998 0.758587
vt 0.510721 0.758587
vt 0.467162 0.847663
vt 0.467162 0.758587
vt 0.542867 0.760260
vt 0.542867 0.845990
vt 0.542867 0.845990
vt 0.467162 0.967371
vt 0.510721 0.995129
vt 0.467162 0.995129
vt 0.554279 0.967371
vt 0.542446 0.995129
vt 0.542446 0.967371
vt 0.510721 0.865105
vt 0.467162 0.953645
vt 0.467162 0.865105
vt 0.553858 0.866829
vt 0.542867 0.866829
vt 0.542867 0.866829
vt 0.553858 0.760260
vt 0.542867 0.760260
vt 0.554279 0.995129
vt 0.554700 0.951921
vt 0.568577 0.951921
vt 0.568577 0.951921
vt 0.542446 0.865105
vt 0.510721 0.953645
vt 0.510721 0.967371
vt 0.542446 0.758587
vt 0.510721 0.847663
vt 0.554279 0.758587
vt 0.554279 0.847663
vt 0.542446 0.847663
vt 0.553858 0.845990
vt 0.554279 0.865105
vt 0.553858 0.951921
vt 0.542446 0.953645
vt 0.554279 0.953645
vt 0.542867 0.951921
vt 0.568577 0.760260
vt 0.554700 0.760260
vt 0.568577 0.845990
vt 0.554700 0.845990
vt 0.554700 0.866829
vt 0.568577 0.866829
vt 0.553858 0.760260
vt 0.553858 0.866829
vt 0.542867 0.951921
vt 0.568577 0.760260
vt 0.554700 0.845990
vt 0.554700 0.760260
vt 0.568577 0.866829
vt 0.554700 0.951921
vt 0.554700 0.866829
vt 0.553858 0.845990
vt 0.568577 0.845990
vt 0.553858 0.951921
vt 0.597838 0.953645
vt 0.597838 0.995129
vt 0.597838 0.847663
vt 0.625000 0.000000
vt 0.600000 0.250000
vt 0.600000 0.000000
vt 0.625000 0.393750
vt 0.600000 0.500000
vt 0.600000 0.393750
vt 0.625000 0.500000
vt 0.600000 0.750000
vt 0.625000 0.962500
vt 0.600000 1.000000
vt 0.600000 0.962500
vt 0.268750 0.500000
vt 0.375000 0.750000
vt 0.268750 0.750000
vt 0.875000 0.500000
vt 0.837500 0.750000
vt 0.837500 0.500000
vt 0.731250 0.500000
vt 0.731250 0.750000
vt 0.162500 0.500000
vt 0.125000 0.750000
vt 0.125000 0.500000
vt 0.625000 0.856250
vt 0.600000 0.856250
vt 0.625000 0.250000
vt 0.600000 0.287500
vt 0.570206 0.287500
vt 0.570206 0.250000
vt 0.467162 0.967371
vt 0.467162 0.995129
vt 0.597838 0.865105
vt 0.570206 0.750000
vt 0.570206 0.500000
vt 0.570206 0.393750
vt 0.570206 0.000000
vt 0.465000 0.000000
vt 0.375000 0.250000
vt 0.375000 0.000000
vt 0.465000 0.393750
vt 0.375000 0.500000
vt 0.375000 0.393750
vt 0.465000 0.500000
vt 0.465000 0.962500
vt 0.375000 1.000000
vt 0.375000 0.962500
vt 0.465000 0.856250
vt 0.375000 0.856250
vt 0.465000 0.250000
vt 0.375000 0.287500
vt 0.465000 0.750000
vt 0.465000 0.287500
vt 0.467162 0.847663
vt 0.510721 0.847663
vt 0.625000 0.750000
vt 0.162500 0.750000
vt 0.625000 0.287500
vt 0.570206 0.856250
vt 0.568998 0.865105
vt 0.510000 0.962500
vt 0.467162 0.953645
vt 0.510721 0.953645
vt 0.467162 0.865105
vt 0.570206 0.962500
vt 0.597838 0.967371
vt 0.568998 0.967371
vt 0.597838 0.995129
vt 0.510000 1.000000
vt 0.510721 0.995129
vt 0.465000 1.000000
vt 0.597838 0.758587
vt 0.568998 0.758587
vt 0.510000 0.856250
vt 0.597838 0.847663
vt 0.510721 0.967371
vt 0.554279 0.967371
vt 0.542446 0.967371
vt 0.554279 0.995129
vt 0.568998 0.995129
vt 0.542446 0.995129
vt 0.510721 0.865105
vt 0.554279 0.865105
vt 0.542446 0.865105
vt 0.554279 0.953645
vt 0.568998 0.953645
vt 0.542446 0.953645
vt 0.510721 0.758587
vt 0.467162 0.758587
vt 0.554279 0.758587
vt 0.542446 0.758587
vt 0.555000 0.856250
vt 0.568998 0.847663
vt 0.542775 0.856250
vt 0.542446 0.847663
vt 0.510000 0.750000
vt 0.542775 0.750000
vt 0.555000 1.000000
vt 0.570206 1.000000
vt 0.542775 1.000000
vt 0.542775 0.962500
vt 0.555000 0.962500
vt 0.554279 0.847663
vt 0.510000 0.287500
vt 0.555000 0.287500
vt 0.542775 0.393750
vt 0.542775 0.287500
vt 0.510000 0.000000
vt 0.555000 0.000000
vt 0.542775 0.250000
vt 0.542775 0.000000
vt 0.510000 0.393750
vt 0.555000 0.393750
vt 0.542775 0.500000
vt 0.510000 0.500000
vt 0.555000 0.500000
vt 0.510000 0.250000
vt 0.555000 0.250000
vt 0.597838 0.953645
vt 0.555000 0.750000
vt 0.625000 1.000000
vt 0.875000 0.750000
vn -0.9151 0.4032 0.0000
vn 0.0000 0.0000 1.0000
vn 0.9151 0.4032 0.0000
vn 0.0000 0.0000 -1.0000
vn 0.0000 -1.0000 0.0000
vn 0.0000 1.0000 0.0000
vn -0.0012 0.0000 1.0000
vn 0.0012 0.0000 1.0000
vn -1.0000 0.0000 0.0000
vn 1.0000 0.0000 0.0000
vn -0.0012 0.0000 -1.0000
vn 0.0012 0.0000 -1.0000
usemtl YellowPowerGenerator_01.001
s off
f 3/1/1 2/2/1 1/3/1
f 7/4/2 4/5/2 3/1/2
f 5/6/3 8/7/3 7/4/3
f 1/8/4 6/9/4 5/6/4
f 1/10/5 7/4/5 3/11/5
f 6/9/6 4/12/6 8/7/6
f 3/1/1 4/5/1 2/2/1
f 7/4/2 8/7/2 4/5/2
f 5/6/3 6/9/3 8/7/3
f 1/8/4 2/13/4 6/9/4
f 1/10/5 5/6/5 7/4/5
f 6/9/6 2/14/6 4/12/6
usemtl DarkBluePowerGenerator_02
f 53/15/7 121/16/7 120/17/7
f 57/18/2 107/19/2 122/20/2
f 61/21/8 124/22/8 123/23/8
f 102/24/8 63/25/8 62/26/8
f 145/27/6 163/28/6 148/29/6
f 58/30/2 99/31/2 59/32/2
f 97/33/2 142/34/2 141/35/2
f 94/36/7 55/37/7 54/38/7
f 150/39/9 166/40/9 149/41/9
f 146/42/9 162/43/9 145/27/9
f 122/20/2 100/44/2 97/33/2
f 160/45/10 176/46/10 159/47/10
f 139/48/7 96/49/7 94/36/7
f 141/35/2 99/31/2 98/50/2
f 143/51/8 104/52/8 102/24/8
f 101/53/8 145/27/8 143/51/8
f 103/54/8 146/42/8 101/53/8
f 144/55/8 147/56/8 103/54/8
f 143/51/8 148/29/8 144/55/8
f 93/57/7 149/41/7 139/48/7
f 93/57/7 151/58/7 150/39/7
f 140/59/7 151/58/7 95/60/7
f 139/48/7 152/61/7 140/59/7
f 101/53/8 154/62/8 153/63/8
f 124/22/8 154/62/8 123/23/8
f 103/54/8 155/64/8 124/22/8
f 103/54/8 153/63/8 156/65/8
f 120/17/7 157/66/7 93/57/7
f 121/16/7 158/67/7 120/17/7
f 95/60/7 159/47/7 121/16/7
f 93/57/7 160/45/7 95/60/7
f 161/68/8 163/28/8 162/43/8
f 165/69/7 167/70/7 166/40/7
f 169/71/8 171/72/8 170/73/8
f 173/74/7 175/75/7 174/76/7
f 154/62/9 170/73/9 153/63/9
f 152/61/6 166/40/6 167/70/6
f 158/67/9 174/76/9 157/66/9
f 146/42/5 164/77/5 161/68/5
f 153/63/6 171/72/6 156/65/6
f 151/58/5 165/69/5 150/39/5
f 160/45/6 174/76/6 175/75/6
f 148/29/10 164/77/10 147/56/10
f 154/62/5 172/78/5 169/71/5
f 152/61/10 168/79/10 151/58/10
f 159/47/5 173/74/5 158/67/5
f 156/65/10 172/78/10 155/64/10
f 53/15/7 56/80/7 121/16/7
f 57/18/2 60/81/2 107/19/2
f 61/21/8 64/82/8 124/22/8
f 102/24/8 104/52/8 63/25/8
f 145/27/6 162/43/6 163/28/6
f 58/30/2 98/50/2 99/31/2
f 97/33/2 100/44/2 142/34/2
f 94/36/7 96/49/7 55/37/7
f 150/39/9 165/69/9 166/40/9
f 146/42/9 161/68/9 162/43/9
f 122/20/2 107/19/2 100/44/2
f 160/45/10 175/75/10 176/46/10
f 139/48/7 140/59/7 96/49/7
f 141/35/2 142/34/2 99/31/2
f 143/51/8 144/55/8 104/52/8
f 101/53/8 146/42/8 145/27/8
f 103/54/8 147/56/8 146/42/8
f 144/55/8 148/29/8 147/56/8
f 143/51/8 145/27/8 148/29/8
f 93/57/7 150/39/7 149/41/7
f 93/57/7 95/60/7 151/58/7
f 140/59/7 152/61/7 151/58/7
f 139/48/7 149/41/7 152/61/7
f 101/53/8 123/23/8 154/62/8
f 124/22/8 155/64/8 154/62/8
f 103/54/8 156/65/8 155/64/8
f 103/54/8 101/53/8 153/63/8
f 120/17/7 158/67/7 157/66/7
f 121/16/7 159/47/7 158/67/7
f 95/60/7 160/45/7 159/47/7
f 93/57/7 157/66/7 160/45/7
f 161/68/8 164/77/8 163/28/8
f 165/69/7 168/79/7 167/70/7
f 169/71/8 172/78/8 171/72/8
f 173/74/7 176/46/7 175/75/7
f 154/62/9 169/71/9 170/73/9
f 152/61/6 149/41/6 166/40/6
f 158/67/9 173/74/9 174/76/9
f 146/42/5 147/56/5 164/77/5
f 153/63/6 170/73/6 171/72/6
f 151/58/5 168/79/5 165/69/5
f 160/45/6 157/66/6 174/76/6
f 148/29/10 163/28/10 164/77/10
f 154/62/5 155/64/5 172/78/5
f 152/61/10 167/70/10 168/79/10
f 159/47/5 176/46/5 173/74/5
f 156/65/10 171/72/10 172/78/10
usemtl LightBluePowerGenerator_02
f 10/83/9 22/84/9 21/85/9
f 33/86/11 23/87/11 38/88/11
f 16/89/10 24/90/10 23/87/10
f 20/91/2 21/92/2 25/93/2
f 35/94/5 13/95/5 34/96/5
f 12/97/6 20/98/6 18/99/6
f 33/100/6 20/98/6 36/101/6
f 17/102/5 9/103/5 11/104/5
f 36/105/7 25/93/7 37/106/7
f 12/107/4 26/108/4 22/84/4
f 22/84/4 112/109/4 108/110/4
f 45/111/5 59/32/5 48/112/5
f 42/113/6 56/80/6 53/15/6
f 23/87/10 110/114/10 109/115/10
f 38/88/11 109/115/11 113/116/11
f 21/85/9 108/110/9 105/117/9
f 32/118/9 11/119/9 9/120/9
f 39/121/11 15/122/11 35/123/11
f 28/124/10 13/95/10 15/122/10
f 30/125/2 9/126/2 19/127/2
f 40/128/7 19/127/7 34/129/7
f 27/130/4 17/131/4 11/119/4
f 29/132/8 34/129/8 13/95/8
f 31/133/12 35/123/12 17/131/12
f 26/108/12 113/116/12 112/109/12
f 52/134/9 104/52/9 92/135/9
f 14/136/8 37/106/8 24/90/8
f 33/100/6 14/136/6 16/89/6
f 35/94/5 19/137/5 17/102/5
f 18/138/12 38/88/12 26/108/12
f 114/139/7 42/113/7 115/140/7
f 25/93/7 42/113/7 37/106/7
f 74/141/7 44/142/7 84/143/7
f 30/125/7 41/144/7 44/142/7
f 111/145/2 46/146/2 117/147/2
f 25/93/2 47/148/2 46/146/2
f 65/149/2 48/112/2 87/150/2
f 30/125/2 48/112/2 32/151/2
f 110/114/8 50/152/8 118/153/8
f 37/106/8 50/152/8 24/90/8
f 80/154/8 52/134/8 92/135/8
f 29/132/8 52/134/8 40/128/8
f 50/152/10 123/23/10 118/153/10
f 44/142/9 96/49/9 84/143/9
f 47/148/6 57/18/6 46/146/6
f 52/134/5 62/26/5 63/25/5
f 42/113/10 120/17/10 115/140/10
f 48/112/9 99/31/9 87/150/9
f 51/155/6 61/21/6 50/152/6
f 41/144/5 55/37/5 44/142/5
f 46/146/10 122/20/10 117/147/10
f 86/156/10 58/30/10 45/111/10
f 85/157/10 141/35/10 135/158/10
f 88/159/9 107/19/9 106/160/9
f 87/150/9 142/34/9 136/161/9
f 82/162/10 54/38/10 41/144/10
f 81/163/10 139/48/10 133/164/10
f 83/165/9 121/16/9 116/166/9
f 84/143/9 140/59/9 134/167/9
f 90/168/10 62/26/10 49/169/10
f 89/170/10 143/51/10 137/171/10
f 79/172/8 119/173/8 114/139/8
f 132/174/8 92/135/8 138/175/8
f 72/176/8 49/169/8 29/132/8
f 128/177/8 89/170/8 137/171/8
f 66/178/2 106/160/2 105/179/2
f 125/180/2 87/150/2 136/161/2
f 74/141/2 45/111/2 30/125/2
f 129/181/2 85/157/2 135/158/2
f 73/182/7 116/166/7 111/145/7
f 129/181/7 84/143/7 134/167/7
f 80/154/7 41/144/7 40/128/7
f 132/174/7 81/163/7 133/164/7
f 91/183/9 124/22/9 119/173/9
f 92/135/9 144/55/9 138/175/9
f 76/184/12 39/121/12 31/133/12
f 75/185/12 131/186/12 130/187/12
f 65/188/9 27/130/9 32/118/9
f 66/189/9 126/190/9 125/191/9
f 78/192/11 28/124/11 39/121/11
f 77/193/11 127/194/11 131/186/11
f 70/195/10 29/132/10 28/124/10
f 69/196/10 128/177/10 127/194/10
f 68/197/4 31/133/4 27/130/4
f 67/198/4 130/187/4 126/190/4
f 119/173/9 64/82/9 51/155/9
f 111/145/7 43/199/7 25/93/7
f 105/179/2 47/148/2 21/92/2
f 114/139/8 51/155/8 37/106/8
f 116/166/9 56/80/9 43/199/9
f 106/160/9 60/81/9 47/148/9
f 117/147/10 97/33/10 85/157/10
f 115/140/10 93/57/10 81/163/10
f 118/153/10 101/53/10 89/170/10
f 71/200/8 118/153/8 89/170/8
f 73/182/2 117/147/2 85/157/2
f 79/172/7 115/140/7 81/163/7
f 112/109/12 77/193/12 75/185/12
f 105/117/9 67/198/9 66/189/9
f 113/116/11 69/196/11 77/193/11
f 109/115/10 71/200/10 69/196/10
f 108/110/4 75/185/4 67/198/4
f 126/190/4 76/184/4 68/197/4
f 127/194/10 72/176/10 70/195/10
f 131/186/11 70/195/11 78/192/11
f 125/191/9 68/197/9 65/188/9
f 130/187/12 78/192/12 76/184/12
f 138/175/9 103/54/9 91/183/9
f 132/174/7 82/162/7 80/154/7
f 129/181/7 83/165/7 73/182/7
f 129/181/2 86/156/2 74/141/2
f 125/180/2 88/159/2 66/178/2
f 128/177/8 90/168/8 72/176/8
f 132/174/8 91/183/8 79/172/8
f 137/171/10 102/24/10 90/168/10
f 134/167/9 95/60/9 83/165/9
f 133/164/10 94/36/10 82/162/10
f 136/161/9 100/44/9 88/159/9
f 135/158/10 98/50/10 86/156/10
f 10/83/9 12/107/9 22/84/9
f 33/86/11 16/89/11 23/87/11
f 16/89/10 14/136/10 24/90/10
f 20/91/2 10/201/2 21/92/2
f 35/94/5 15/122/5 13/95/5
f 12/97/6 10/202/6 20/98/6
f 33/100/6 18/99/6 20/98/6
f 17/102/5 19/137/5 9/103/5
f 36/105/7 20/91/7 25/93/7
f 12/107/4 18/138/4 26/108/4
f 22/84/4 26/108/4 112/109/4
f 45/111/5 58/30/5 59/32/5
f 42/113/6 43/199/6 56/80/6
f 23/87/10 24/90/10 110/114/10
f 38/88/11 23/87/11 109/115/11
f 21/85/9 22/84/9 108/110/9
f 32/118/9 27/130/9 11/119/9
f 39/121/11 28/124/11 15/122/11
f 28/124/10 29/132/10 13/95/10
f 30/125/2 32/151/2 9/126/2
f 40/128/7 30/125/7 19/127/7
f 27/130/4 31/133/4 17/131/4
f 29/132/8 40/128/8 34/129/8
f 31/133/12 39/121/12 35/123/12
f 26/108/12 38/88/12 113/116/12
f 52/134/9 63/25/9 104/52/9
f 14/136/8 36/105/8 37/106/8
f 33/100/6 36/101/6 14/136/6
f 35/94/5 34/96/5 19/137/5
f 18/138/12 33/86/12 38/88/12
f 114/139/7 37/106/7 42/113/7
f 25/93/7 43/199/7 42/113/7
f 74/141/7 30/125/7 44/142/7
f 30/125/7 40/128/7 41/144/7
f 111/145/2 25/93/2 46/146/2
f 25/93/2 21/92/2 47/148/2
f 65/149/2 32/151/2 48/112/2
f 30/125/2 45/111/2 48/112/2
f 110/114/8 24/90/8 50/152/8
f 37/106/8 51/155/8 50/152/8
f 80/154/8 40/128/8 52/134/8
f 29/132/8 49/169/8 52/134/8
f 50/152/10 61/21/10 123/23/10
f 44/142/9 55/37/9 96/49/9
f 47/148/6 60/81/6 57/18/6
f 52/134/5 49/169/5 62/26/5
f 42/113/10 53/15/10 120/17/10
f 48/112/9 59/32/9 99/31/9
f 51/155/6 64/82/6 61/21/6
f 41/144/5 54/38/5 55/37/5
f 46/146/10 57/18/10 122/20/10
f 86/156/10 98/50/10 58/30/10
f 85/157/10 97/33/10 141/35/10
f 88/159/9 100/44/9 107/19/9
f 87/150/9 99/31/9 142/34/9
f 82/162/10 94/36/10 54/38/10
f 81/163/10 93/57/10 139/48/10
f 83/165/9 95/60/9 121/16/9
f 84/143/9 96/49/9 140/59/9
f 90/168/10 102/24/10 62/26/10
f 89/170/10 101/53/10 143/51/10
f 79/172/8 91/183/8 119/173/8
f 132/174/8 80/154/8 92/135/8
f 72/176/8 90/168/8 49/169/8
f 128/177/8 71/200/8 89/170/8
f 66/178/2 88/159/2 106/160/2
f 125/180/2 65/149/2 87/150/2
f 74/141/2 86/156/2 45/111/2
f 129/181/2 73/182/2 85/157/2
f 73/182/7 83/165/7 116/166/7
f 129/181/7 74/141/7 84/143/7
f 80/154/7 82/162/7 41/144/7
f 132/174/7 79/172/7 81/163/7
f 91/183/9 103/54/9 124/22/9
f 92/135/9 104/52/9 144/55/9
f 76/184/12 78/192/12 39/121/12
f 75/185/12 77/193/12 131/186/12
f 65/188/9 68/197/9 27/130/9
f 66/189/9 67/198/9 126/190/9
f 78/192/11 70/195/11 28/124/11
f 77/193/11 69/196/11 127/194/11
f 70/195/10 72/176/10 29/132/10
f 69/196/10 71/200/10 128/177/10
f 68/197/4 76/184/4 31/133/4
f 67/198/4 75/185/4 130/187/4
f 119/173/9 124/22/9 64/82/9
f 111/145/7 116/166/7 43/199/7
f 105/179/2 106/160/2 47/148/2
f 114/139/8 119/173/8 51/155/8
f 116/166/9 121/16/9 56/80/9
f 106/160/9 107/19/9 60/81/9
f 117/147/10 122/20/10 97/33/10
f 115/140/10 120/17/10 93/57/10
f 118/153/10 123/23/10 101/53/10
f 71/200/8 110/114/8 118/153/8
f 73/182/2 111/145/2 117/147/2
f 79/172/7 114/139/7 115/140/7
f 112/109/12 113/116/12 77/193/12
f 105/117/9 108/110/9 67/198/9
f 113/116/11 109/115/11 69/196/11
f 109/115/10 110/114/10 71/200/10
f 108/110/4 112/109/4 75/185/4
f 126/190/4 130/187/4 76/184/4
f 127/194/10 128/177/10 72/176/10
f 131/186/11 127/194/11 70/195/11
f 125/191/9 126/190/9 68/197/9
f 130/187/12 131/186/12 78/192/12
f 138/175/9 144/55/9 103/54/9
f 132/174/7 133/164/7 82/162/7
f 129/181/7 134/167/7 83/165/7
f 129/181/2 135/158/2 86/156/2
f 125/180/2 136/161/2 88/159/2
f 128/177/8 137/171/8 90/168/8
f 132/174/8 138/175/8 91/183/8
f 137/171/10 143/51/10 102/24/10
f 134/167/9 140/59/9 95/60/9
f 133/164/10 139/48/10 94/36/10
f 136/161/9 142/34/9 100/44/9
f 135/158/10 141/35/10 98/50/10
