# Blender v2.90.0 OBJ File: 'SignBoard_05.blend'
# www.blender.org
mtllib SignBoard_05.mtl
o SignBoard_05_Cylinder.003
v -0.002024 -6.371416 -0.551347
v -0.002024 -3.772567 -0.551347
v 0.475457 -6.371416 -0.275673
v 0.475457 -3.772567 -0.275673
v 0.475457 -6.371416 0.275674
v 0.475457 -3.772567 0.275674
v -0.002024 -6.371416 0.551347
v -0.002024 -3.772567 0.551347
v -0.479504 -6.371416 0.275674
v -0.479504 -3.772567 0.275674
v -0.479504 -6.371416 -0.275673
v -0.479504 -3.772567 -0.275673
v 0.291000 -3.772567 -0.169177
v -0.002024 -3.772567 -0.338354
v -0.295047 -3.772567 -0.169177
v -0.295047 -3.772567 0.169177
v -0.002024 -3.772567 0.338354
v 0.291000 -3.772567 0.169177
v 0.291000 4.751166 -0.169177
v -0.002024 4.751166 -0.338354
v 0.291000 4.751166 0.169177
v -0.295047 4.751166 -0.169177
v -0.295047 4.751166 0.169177
v -0.002024 4.751166 0.338354
v -2.843669 9.594922 -0.473573
v -0.205021 4.153153 -0.473575
v -2.843669 9.594920 0.473574
v -0.205021 4.153153 0.473572
v 2.855806 9.594922 -0.473573
v 0.217169 4.153153 -0.473575
v 2.855806 9.594920 0.473574
v 0.217169 4.153153 0.473572
vt 0.625000 0.000000
vt 0.375000 0.250000
vt 0.375000 0.000000
vt 0.625000 0.250000
vt 0.375000 0.500000
vt 0.625000 0.500000
vt 0.375000 0.750000
vt 0.625000 0.750000
vt 0.375000 1.000000
vt 0.125000 0.750000
vt 0.125000 0.500000
vt 0.875000 0.500000
vt 0.625000 1.000000
vt 0.875000 0.750000
vt 0.985235 0.079667
vt 0.818569 -0.420333
vt 0.985235 -0.420333
vt 0.818569 0.079667
vt 0.651902 -0.420333
vt 0.651902 0.079667
vt 0.485235 -0.420333
vt 0.485235 0.079667
vt 0.318569 -0.420333
vt 0.107683 -0.596690
vt 0.235235 -0.523048
vt 0.235235 -0.523048
vt 0.318569 0.079667
vt 0.151902 -0.420333
vt 0.151902 0.079667
vt -0.014765 -0.420333
vt 0.735235 -0.910333
vt 0.527389 -0.790333
vt 0.527389 -0.550333
vt 0.443081 -0.550333
vt 0.362788 -0.596690
vt 0.027389 -0.550333
vt 0.235235 -0.430333
vt 0.027389 -0.790333
vt 0.235235 -0.817618
vt 0.107683 -0.743975
vt 0.443081 -0.790333
vt 0.235235 -0.910333
vt 0.362788 -0.743975
vt 0.107683 -0.743975
vt 0.235235 -0.817618
vt 0.362788 -0.743975
vt 0.362788 -0.596690
vt 0.107683 -0.596690
vt -0.014765 0.079667
vt 0.735235 -0.430333
vt 0.943081 -0.550333
vt 0.943081 -0.790333
vn -0.8998 -0.4363 -0.0000
vn 0.0000 -0.0000 1.0000
vn 0.8998 -0.4363 -0.0000
vn 0.0000 0.0000 -1.0000
vn 0.0000 1.0000 0.0000
vn 0.0000 -1.0000 0.0000
vn 0.5000 0.0000 -0.8660
vn 1.0000 0.0000 0.0000
vn 0.5000 0.0000 0.8660
vn -0.5000 0.0000 0.8660
vn -0.5000 0.0000 -0.8660
vn -1.0000 0.0000 0.0000
usemtl GreenBoard.004
s off
f 26/1/1 27/2/1 25/3/1
f 28/4/2 31/5/2 27/2/2
f 32/6/3 29/7/3 31/5/3
f 30/8/4 25/9/4 29/7/4
f 31/5/5 25/10/5 27/11/5
f 28/12/6 30/8/6 32/6/6
f 26/1/1 28/4/1 27/2/1
f 28/4/2 32/6/2 31/5/2
f 32/6/3 30/8/3 29/7/3
f 30/8/4 26/13/4 25/9/4
f 31/5/5 29/7/5 25/10/5
f 28/12/6 26/14/6 30/8/6
usemtl MetalSignBoard.004
f 2/15/7 3/16/7 1/17/7
f 4/18/8 5/19/8 3/16/8
f 6/20/9 7/21/9 5/19/9
f 8/22/10 9/23/10 7/21/10
f 15/24/11 20/25/11 14/26/11
f 10/27/12 11/28/12 9/23/12
f 12/29/11 1/30/11 11/28/11
f 7/31/6 9/32/6 11/33/6
f 4/34/5 14/26/5 13/35/5
f 12/36/5 14/26/5 2/37/5
f 10/38/5 15/24/5 12/36/5
f 10/38/5 17/39/5 16/40/5
f 6/41/5 17/39/5 8/42/5
f 4/34/5 18/43/5 6/41/5
f 23/44/5 24/45/5 21/46/5
f 14/26/7 19/47/7 13/35/7
f 18/43/9 24/45/9 17/39/9
f 16/40/12 22/48/12 15/24/12
f 13/35/8 21/46/8 18/43/8
f 17/39/10 23/44/10 16/40/10
f 2/15/7 4/18/7 3/16/7
f 4/18/8 6/20/8 5/19/8
f 6/20/9 8/22/9 7/21/9
f 8/22/10 10/27/10 9/23/10
f 15/24/11 22/48/11 20/25/11
f 10/27/12 12/29/12 11/28/12
f 12/29/11 2/49/11 1/30/11
f 11/33/6 1/50/6 3/51/6
f 3/51/6 5/52/6 11/33/6
f 5/52/6 7/31/6 11/33/6
f 4/34/5 2/37/5 14/26/5
f 12/36/5 15/24/5 14/26/5
f 10/38/5 16/40/5 15/24/5
f 10/38/5 8/42/5 17/39/5
f 6/41/5 18/43/5 17/39/5
f 4/34/5 13/35/5 18/43/5
f 21/46/5 19/47/5 23/44/5
f 19/47/5 20/25/5 23/44/5
f 20/25/5 22/48/5 23/44/5
f 14/26/7 20/25/7 19/47/7
f 18/43/9 21/46/9 24/45/9
f 16/40/12 23/44/12 22/48/12
f 13/35/8 19/47/8 21/46/8
f 17/39/10 24/45/10 23/44/10
