# Blender v2.90.0 OBJ File: 'TrafficBarrier_02.blend'
# www.blender.org
mtllib TrafficBarrier_02.mtl
o TrafficBarrier_02_Cube.022
v -7.711276 -4.036357 2.704951
v -7.711275 3.253481 1.528021
v -7.711276 -4.036357 -2.704951
v -7.711275 3.253481 -1.528021
v 7.711276 -4.036357 2.704951
v 7.711275 3.253481 1.528021
v 7.711276 -4.036357 -2.704951
v 7.711275 3.253481 -1.528021
v 7.711275 -1.331407 1.528021
v 7.711275 -1.331407 -1.528021
v -7.711275 -1.331407 -1.528021
v -7.711275 -1.331407 1.528021
v 7.711275 -4.036357 -4.603607
v -7.711275 -4.036357 -4.603607
v -7.711275 -4.036357 4.603607
v 7.711275 -4.036357 4.603607
v 3.855638 -4.036357 -2.704951
v 0.000000 -4.036357 -2.704951
v -3.855638 -4.036357 -2.704951
v -3.855637 3.253481 -1.528021
v 0.000000 3.253481 -1.528021
v 3.855637 3.253481 -1.528021
v -3.855638 -4.036357 2.704951
v 0.000000 -4.036357 2.704951
v 3.855638 -4.036357 2.704951
v 3.855637 3.253481 1.528021
v -0.000000 3.253481 1.528021
v -3.855637 3.253481 1.528021
v -3.855637 -1.331407 -1.528021
v 0.000000 -1.331407 -1.528021
v 3.855637 -1.331407 -1.528021
v 3.855637 -1.331407 1.528021
v -0.000000 -1.331407 1.528021
v -3.855637 -1.331407 1.528021
v 3.855637 -4.036357 -4.603607
v -0.000000 -4.036357 -4.603607
v -3.855637 -4.036357 -4.603607
v -3.855637 -4.036357 4.603607
v 0.000000 -4.036357 4.603607
v 3.855637 -4.036357 4.603607
v -4.886198 2.891983 1.528021
v -6.680714 2.891983 1.528021
v -6.680714 -0.969908 1.528021
v -4.886199 -0.969908 1.528021
v 4.886198 2.891983 -1.528021
v 6.680714 2.891983 -1.528021
v 6.680714 -0.969908 -1.528021
v 4.886199 -0.969908 -1.528021
v -6.680714 2.891983 -1.528021
v -4.886199 2.891983 -1.528021
v -4.886198 -0.969908 -1.528021
v -6.680714 -0.969908 -1.528021
v -2.825077 2.891983 -1.528021
v -1.030560 2.891983 -1.528021
v -1.030560 -0.969908 -1.528021
v -2.825077 -0.969908 -1.528021
v 1.030561 2.891983 -1.528021
v 2.825077 2.891983 -1.528021
v 2.825077 -0.969908 -1.528021
v 1.030561 -0.969908 -1.528021
v 6.680714 2.891983 1.528021
v 4.886199 2.891983 1.528021
v 4.886198 -0.969908 1.528021
v 6.680714 -0.969908 1.528021
v 2.825077 2.891983 1.528021
v 1.030560 2.891983 1.528021
v 1.030560 -0.969908 1.528021
v 2.825077 -0.969908 1.528021
v -1.030561 2.891983 1.528021
v -2.825077 2.891983 1.528021
v -2.825077 -0.969908 1.528021
v -1.030561 -0.969908 1.528021
v -4.886198 2.891983 1.169664
v -6.680713 2.891983 1.169664
v -4.886198 -0.969908 1.169664
v -6.680713 -0.969908 1.169664
v 4.886198 2.891983 -1.169664
v 6.680713 2.891983 -1.169664
v 4.886198 -0.969908 -1.169664
v 6.680713 -0.969908 -1.169664
v -6.680713 2.891983 -1.169664
v -4.886198 2.891983 -1.169664
v -6.680713 -0.969908 -1.169664
v -4.886198 -0.969908 -1.169664
v -2.825076 2.891983 -1.169664
v -1.030560 2.891983 -1.169664
v -2.825076 -0.969908 -1.169664
v -1.030560 -0.969908 -1.169664
v 1.030561 2.891983 -1.169664
v 2.825076 2.891983 -1.169664
v 1.030561 -0.969908 -1.169664
v 2.825076 -0.969908 -1.169664
v 6.680713 2.891983 1.169664
v 4.886198 2.891983 1.169664
v 6.680713 -0.969908 1.169664
v 4.886198 -0.969908 1.169664
v 2.825076 2.891983 1.169664
v 1.030560 2.891983 1.169664
v 2.825076 -0.969908 1.169664
v 1.030560 -0.969908 1.169664
v -1.030561 2.891983 1.169664
v -2.825076 2.891983 1.169664
v -1.030561 -0.969908 1.169664
v -2.825076 -0.969908 1.169664
vt 0.625000 0.000000
vt 0.500000 0.250000
vt 0.500000 0.000000
vt 0.625000 0.500000
vt 0.500000 0.750000
vt 0.500000 0.500000
vt 0.375000 0.250000
vt 0.375000 0.000000
vt 0.375000 0.500000
vt 0.375000 0.500000
vt 0.375000 0.750000
vt 0.375000 0.750000
vt 0.375000 0.250000
vt 0.375000 0.000000
vt 0.375000 0.437500
vt 0.500000 0.437500
vt 0.187500 0.500000
vt 0.125000 0.500000
vt 0.187500 0.500000
vt 0.500000 1.000000
vt 0.375000 0.937500
vt 0.500000 0.937500
vt 0.615144 0.266705
vt 0.509856 0.266705
vt 0.509856 0.266705
vt 0.875000 0.500000
vt 0.812500 0.750000
vt 0.812500 0.500000
vt 0.312500 0.750000
vt 0.312500 0.500000
vt 0.615144 0.891705
vt 0.509856 0.891705
vt 0.509856 0.891705
vt 0.312500 0.750000
vt 0.187500 0.750000
vt 0.125000 0.750000
vt 0.125000 0.750000
vt 0.250000 0.750000
vt 0.187500 0.750000
vt 0.250000 0.750000
vt 0.509856 0.954206
vt 0.509856 0.983295
vt 0.509856 0.983295
vt 0.509856 0.795795
vt 0.509856 0.766705
vt 0.509856 0.795795
vt 0.615144 0.295795
vt 0.615144 0.266705
vt 0.125000 0.500000
vt 0.250000 0.500000
vt 0.687500 0.500000
vt 0.625000 0.750000
vt 0.750000 0.500000
vt 0.687500 0.750000
vt 0.750000 0.750000
vt 0.615144 0.920795
vt 0.615144 0.891705
vt 0.615144 0.983294
vt 0.615144 0.983294
vt 0.615144 0.795795
vt 0.615144 0.795795
vt 0.500000 0.812500
vt 0.375000 0.875000
vt 0.375000 0.812500
vt 0.500000 0.875000
vt 0.312500 0.500000
vt 0.250000 0.500000
vt 0.500000 0.312500
vt 0.375000 0.375000
vt 0.375000 0.312500
vt 0.500000 0.375000
vt 0.625000 1.000000
vt 0.615144 0.954205
vt 0.625000 0.937500
vt 0.615144 0.454205
vt 0.625000 0.437500
vt 0.615144 0.483295
vt 0.509856 0.483295
vt 0.509856 0.454205
vt 0.625000 0.250000
vt 0.625000 0.312500
vt 0.509856 0.295795
vt 0.615144 0.358295
vt 0.615144 0.329205
vt 0.625000 0.375000
vt 0.509856 0.358295
vt 0.509856 0.329205
vt 0.615144 0.391705
vt 0.615144 0.420795
vt 0.509856 0.420795
vt 0.509856 0.391705
vt 0.615144 0.766705
vt 0.625000 0.812500
vt 0.509856 0.766705
vt 0.625000 0.875000
vt 0.615144 0.829205
vt 0.615144 0.858295
vt 0.509856 0.858295
vt 0.509856 0.829205
vt 0.615144 0.920795
vt 0.509856 0.920795
vt 0.615144 0.295795
vt 0.615144 0.420795
vt 0.615144 0.391705
vt 0.509856 0.920795
vt 0.509856 0.295795
vt 0.509856 0.391705
vt 0.615144 0.829205
vt 0.615144 0.483295
vt 0.615144 0.454205
vt 0.509856 0.420795
vt 0.509856 0.829205
vt 0.509856 0.454205
vt 0.615144 0.858295
vt 0.615144 0.329205
vt 0.509856 0.858295
vt 0.509856 0.483295
vt 0.509856 0.329205
vt 0.615144 0.358295
vt 0.615144 0.766705
vt 0.615144 0.954205
vt 0.509856 0.358295
vt 0.509856 0.954206
vt 0.375000 1.000000
vt 0.875000 0.750000
vn -1.0000 0.0000 0.0000
vn 1.0000 0.0000 0.0000
vn 0.0000 0.7509 -0.6604
vn 0.0000 -1.0000 0.0000
vn 0.0000 0.7509 0.6604
vn 0.0000 1.0000 0.0000
vn 0.0000 0.0000 1.0000
vn 0.0000 0.0000 -1.0000
usemtl YellowTraficBarrier
s off
f 2/1/1 11/2/1 12/3/1
f 8/4/2 9/5/2 10/6/2
f 12/3/1 3/7/1 1/8/1
f 10/6/2 7/9/2 13/10/2
f 10/6/2 5/11/2 7/9/2
f 5/11/2 9/5/2 16/12/2
f 3/7/1 11/2/1 14/13/1
f 12/3/1 1/8/1 15/14/1
f 10/6/3 35/15/3 31/16/3
f 19/17/4 14/18/4 37/19/4
f 12/20/5 38/21/5 34/22/5
f 49/23/2 83/24/2 52/25/2
f 4/26/6 28/27/6 20/28/6
f 7/9/4 25/29/4 17/30/4
f 69/31/1 103/32/1 72/33/1
f 25/29/4 16/12/4 40/34/4
f 23/35/4 15/36/4 1/37/4
f 24/38/4 38/39/4 23/35/4
f 24/38/4 40/34/4 39/40/4
f 44/41/6 76/42/6 43/43/6
f 63/44/6 95/45/6 96/46/6
f 50/47/4 81/48/4 49/23/4
f 19/17/4 1/37/4 3/49/4
f 18/50/4 23/35/4 19/17/4
f 17/30/4 24/38/4 18/50/4
f 22/51/6 6/52/6 8/4/6
f 21/53/6 26/54/6 22/51/6
f 20/28/6 27/55/6 21/53/6
f 69/31/4 102/56/4 101/57/4
f 43/43/2 74/58/2 42/59/2
f 63/44/2 94/60/2 62/61/2
f 32/62/5 16/12/5 9/5/5
f 32/62/5 39/63/5 40/64/5
f 33/65/5 38/21/5 39/63/5
f 17/30/4 13/10/4 7/9/4
f 18/50/4 35/66/4 17/30/4
f 18/50/4 37/19/4 36/67/4
f 29/68/3 14/13/3 11/2/3
f 29/68/3 36/69/3 37/70/3
f 30/71/3 35/15/3 36/69/3
f 2/72/7 41/73/7 28/74/7
f 12/20/7 42/59/7 2/72/7
f 34/22/7 43/43/7 12/20/7
f 28/74/7 44/41/7 34/22/7
f 8/4/8 45/75/8 22/76/8
f 10/6/8 46/77/8 8/4/8
f 31/16/8 47/78/8 10/6/8
f 22/76/8 48/79/8 31/16/8
f 4/80/8 50/47/8 49/23/8
f 29/68/8 50/47/8 20/81/8
f 11/2/8 51/82/8 29/68/8
f 11/2/8 49/23/8 52/25/8
f 20/81/8 54/83/8 53/84/8
f 30/71/8 54/83/8 21/85/8
f 29/68/8 55/86/8 30/71/8
f 20/81/8 56/87/8 29/68/8
f 22/76/8 57/88/8 21/85/8
f 31/16/8 58/89/8 22/76/8
f 30/71/8 59/90/8 31/16/8
f 21/85/8 60/91/8 30/71/8
f 6/52/7 62/61/7 61/92/7
f 32/62/7 62/61/7 26/93/7
f 9/5/7 63/44/7 32/62/7
f 9/5/7 61/92/7 64/94/7
f 27/95/7 65/96/7 26/93/7
f 33/65/7 66/97/7 27/95/7
f 32/62/7 67/98/7 33/65/7
f 26/93/7 68/99/7 32/62/7
f 28/74/7 69/31/7 27/95/7
f 34/22/7 70/100/7 28/74/7
f 34/22/7 72/33/7 71/101/7
f 27/95/7 72/33/7 33/65/7
f 71/101/2 102/56/2 70/100/2
f 51/82/1 82/102/1 50/47/1
f 57/88/4 90/103/4 89/104/4
f 72/33/6 104/105/6 71/101/6
f 51/82/6 83/24/6 84/106/6
f 57/88/2 91/107/2 60/91/2
f 59/90/1 90/103/1 58/89/1
f 66/97/4 97/108/4 65/96/4
f 45/75/4 78/109/4 77/110/4
f 60/91/6 92/111/6 59/90/6
f 65/96/1 99/112/1 68/99/1
f 45/75/2 79/113/2 48/79/2
f 67/98/2 98/114/2 66/97/2
f 47/78/1 78/109/1 46/77/1
f 54/83/4 85/115/4 53/84/4
f 68/99/6 100/116/6 67/98/6
f 48/79/6 80/117/6 47/78/6
f 53/84/2 87/118/2 56/87/2
f 55/86/1 86/119/1 54/83/1
f 62/61/4 93/120/4 61/92/4
f 41/73/4 74/58/4 73/121/4
f 56/87/6 88/122/6 55/86/6
f 61/92/1 95/45/1 64/94/1
f 41/73/1 75/123/1 44/41/1
f 2/1/1 4/80/1 11/2/1
f 8/4/2 6/52/2 9/5/2
f 12/3/1 11/2/1 3/7/1
f 10/6/2 9/5/2 5/11/2
f 10/6/3 13/10/3 35/15/3
f 19/17/4 3/49/4 14/18/4
f 12/20/5 15/124/5 38/21/5
f 49/23/2 81/48/2 83/24/2
f 4/26/6 2/125/6 28/27/6
f 7/9/4 5/11/4 25/29/4
f 69/31/1 101/57/1 103/32/1
f 25/29/4 5/11/4 16/12/4
f 23/35/4 38/39/4 15/36/4
f 24/38/4 39/40/4 38/39/4
f 24/38/4 25/29/4 40/34/4
f 44/41/6 75/123/6 76/42/6
f 63/44/6 64/94/6 95/45/6
f 50/47/4 82/102/4 81/48/4
f 19/17/4 23/35/4 1/37/4
f 18/50/4 24/38/4 23/35/4
f 17/30/4 25/29/4 24/38/4
f 22/51/6 26/54/6 6/52/6
f 21/53/6 27/55/6 26/54/6
f 20/28/6 28/27/6 27/55/6
f 69/31/4 70/100/4 102/56/4
f 43/43/2 76/42/2 74/58/2
f 63/44/2 96/46/2 94/60/2
f 32/62/5 40/64/5 16/12/5
f 32/62/5 33/65/5 39/63/5
f 33/65/5 34/22/5 38/21/5
f 17/30/4 35/66/4 13/10/4
f 18/50/4 36/67/4 35/66/4
f 18/50/4 19/17/4 37/19/4
f 29/68/3 37/70/3 14/13/3
f 29/68/3 30/71/3 36/69/3
f 30/71/3 31/16/3 35/15/3
f 2/72/7 42/59/7 41/73/7
f 12/20/7 43/43/7 42/59/7
f 34/22/7 44/41/7 43/43/7
f 28/74/7 41/73/7 44/41/7
f 8/4/8 46/77/8 45/75/8
f 10/6/8 47/78/8 46/77/8
f 31/16/8 48/79/8 47/78/8
f 22/76/8 45/75/8 48/79/8
f 4/80/8 20/81/8 50/47/8
f 29/68/8 51/82/8 50/47/8
f 11/2/8 52/25/8 51/82/8
f 11/2/8 4/80/8 49/23/8
f 20/81/8 21/85/8 54/83/8
f 30/71/8 55/86/8 54/83/8
f 29/68/8 56/87/8 55/86/8
f 20/81/8 53/84/8 56/87/8
f 22/76/8 58/89/8 57/88/8
f 31/16/8 59/90/8 58/89/8
f 30/71/8 60/91/8 59/90/8
f 21/85/8 57/88/8 60/91/8
f 6/52/7 26/93/7 62/61/7
f 32/62/7 63/44/7 62/61/7
f 9/5/7 64/94/7 63/44/7
f 9/5/7 6/52/7 61/92/7
f 27/95/7 66/97/7 65/96/7
f 33/65/7 67/98/7 66/97/7
f 32/62/7 68/99/7 67/98/7
f 26/93/7 65/96/7 68/99/7
f 28/74/7 70/100/7 69/31/7
f 34/22/7 71/101/7 70/100/7
f 34/22/7 33/65/7 72/33/7
f 27/95/7 69/31/7 72/33/7
f 71/101/2 104/105/2 102/56/2
f 51/82/1 84/106/1 82/102/1
f 57/88/4 58/89/4 90/103/4
f 72/33/6 103/32/6 104/105/6
f 51/82/6 52/25/6 83/24/6
f 57/88/2 89/104/2 91/107/2
f 59/90/1 92/111/1 90/103/1
f 66/97/4 98/114/4 97/108/4
f 45/75/4 46/77/4 78/109/4
f 60/91/6 91/107/6 92/111/6
f 65/96/1 97/108/1 99/112/1
f 45/75/2 77/110/2 79/113/2
f 67/98/2 100/116/2 98/114/2
f 47/78/1 80/117/1 78/109/1
f 54/83/4 86/119/4 85/115/4
f 68/99/6 99/112/6 100/116/6
f 48/79/6 79/113/6 80/117/6
f 53/84/2 85/115/2 87/118/2
f 55/86/1 88/122/1 86/119/1
f 62/61/4 94/60/4 93/120/4
f 41/73/4 42/59/4 74/58/4
f 56/87/6 87/118/6 88/122/6
f 61/92/1 93/120/1 95/45/1
f 41/73/1 73/121/1 75/123/1
usemtl DarkYellowTrafficBarrier
f 74/58/7 75/123/7 73/121/7
f 78/109/8 79/113/8 77/110/8
f 82/102/8 83/24/8 81/48/8
f 86/119/8 87/118/8 85/115/8
f 90/103/8 91/107/8 89/104/8
f 94/60/7 95/45/7 93/120/7
f 98/114/7 99/112/7 97/108/7
f 102/56/7 103/32/7 101/57/7
f 74/58/7 76/42/7 75/123/7
f 78/109/8 80/117/8 79/113/8
f 82/102/8 84/106/8 83/24/8
f 86/119/8 88/122/8 87/118/8
f 90/103/8 92/111/8 91/107/8
f 94/60/7 96/46/7 95/45/7
f 98/114/7 100/116/7 99/112/7
f 102/56/7 104/105/7 103/32/7
